<?xml version="1.0" encoding="UTF-8" standalone="no"?>
<svg
   xmlns:dc="http://purl.org/dc/elements/1.1/"
   xmlns:cc="http://creativecommons.org/ns#"
   xmlns:rdf="http://www.w3.org/1999/02/22-rdf-syntax-ns#"
   xmlns:svg="http://www.w3.org/2000/svg"
   xmlns="http://www.w3.org/2000/svg"
   height="67.872734"
   width="48.103882"
   viewBox="0 0 48.103882 67.872734"
   version="1"
   id="svg26">
  <metadata
     id="metadata31">
    <rdf:RDF>
      <cc:Work
         rdf:about="">
        <dc:format>image/svg+xml</dc:format>
        <dc:type
           rdf:resource="http://purl.org/dc/dcmitype/StillImage" />
        <dc:title></dc:title>
      </cc:Work>
    </rdf:RDF>
  </metadata>
  <defs
     id="defs6">
    <style
       id="style4">.cls-1{fill: #7e5fa6}</style>
    <style
       id="style4-3">.cls-1{fill: #7e5fa6}</style>
    <style
       id="style4-32">.cls-1{fill: #7e5fa6}</style>
  </defs>
  <g
     transform="matrix(0.12862,0,0,0.12234,-41.02978,98.580074)"
     id="g4539">
    <g
       id="g856">
      <g
         id="g4505"
         transform="translate(1,-938)" />
      <path
         d="m 525,-576 a 51,51 0 0 1 -51,51 51,51 0 0 1 -51,-51 51,51 0 0 1 51,-51 51,51 0 0 1 51,51 z m 75,46 a 39,39 0 0 1 -39,39 39,39 0 0 1 -39,-39 39,39 0 0 1 39,-39 39,39 0 0 1 39,39 z m -126,111 a 27,27 0 0 1 -27,27 27,27 0 0 1 -27,-27 27,27 0 0 1 27,-27 27,27 0 0 1 27,27 z m 202,-157 a 38,38 0 0 1 -38,38 38,38 0 0 1 -38,-38 38,38 0 0 1 38,-38 38,38 0 0 1 38,38 z m -152,305 a 19,20 0 0 1 -19,20 19,20 0 0 1 -19,-20 19,20 0 0 1 19,-20 19,20 0 0 1 19,20 z m -35,-27 a 21,21 0 0 1 -21,21 21,21 0 0 1 -21,-21 21,21 0 0 1 21,-21 21,21 0 0 1 21,21 z m 45,-25 a 25,25 0 0 1 -25,25 25,25 0 0 1 -25,-25 25,25 0 0 1 25,-25 25,25 0 0 1 25,25 z m 118,-182 a 28,28 0 0 1 -28,28 28,28 0 0 1 -28,-28 28,28 0 0 1 28,-28 28,28 0 0 1 28,28 z m -49,54 a 32,33 0 0 1 -32,33 32,33 0 0 1 -32,-33 32,33 0 0 1 32,-33 32,33 0 0 1 32,33 z m -124,97 a 32,33 0 0 1 -32,33 32,33 0 0 1 -32,-33 32,33 0 0 1 32,-33 32,33 0 0 1 32,33 z m 214,-308 a 45,45 0 0 1 -45,45 45,45 0 0 1 -45,-45 45,45 0 0 1 45,-45 45,45 0 0 1 45,45 z m -139,273 a 39,39 0 0 1 -39,39 39,39 0 0 1 -39,-39 39,39 0 0 1 39,-39 39,39 0 0 1 39,39 z M 421,-601 a 51,51 0 0 1 -51,51 51,51 0 0 1 -51,-51 51,51 0 0 1 51,-51 51,51 0 0 1 51,51 z m 183,-19 a 43,43 0 0 1 -43,43 43,43 0 0 1 -43,-43 43,43 0 0 1 43,-43 43,43 0 0 1 43,43 z m 0,0 a 43,43 0 0 1 -43,43 43,43 0 0 1 -43,-43 43,43 0 0 1 43,-43 43,43 0 0 1 43,43 z m -67,148 a 40,40 0 0 1 -40,40 40,40 0 0 1 -40,-40 40,40 0 0 1 40,-40 40,40 0 0 1 40,40 z m -82,-28 a 51,51 0 0 1 -51,51 51,51 0 0 1 -51,-51 51,51 0 0 1 51,-51 51,51 0 0 1 51,51 z m 50.16769,-132 -2,-5 -1,-6 -1,-3 c 0,-5 -4,-22 -8,-34 -2,-5 -7,-11 -11,-16 -8,-7 -26,-17 -42,-23 l -9,-4 c 1,-2 11,-3 20,-3 l 7,1 -2,-2 -7,-6 a 72,72 0 0 1 -17,-23 l -7,-22 -12,-25 c -3,-4 -2,-4 9,2 a 143,143 0 0 1 67,81 c 0,3 2,3 5,1 5,-5 6,-9 6,-20 -1,-8 -1,-10 -3,-14 l -2,-3 3,2 c 4,3 5,5 7,12 3,6 2,23 -1,34 -2,10 -2,21 2,33 l 3,5 c 1,1 1,-1 1,-14 0,-20 3,-37 6,-34 l 2,8 c 3,17 7,23 16,26 4,1 5,2 3,3 -5,2 -10,7 -13,14 l -4,7 -9,23 c -3,5 -5,7 -6,5 z"
         style="fill:#7e5fa6"
         id="Еліпс_1_копія" />
    </g>
  </g>
</svg>
