<?xml version="1.0" encoding="UTF-8" standalone="no"?>
<svg
   xmlns:dc="http://purl.org/dc/elements/1.1/"
   xmlns:cc="http://creativecommons.org/ns#"
   xmlns:rdf="http://www.w3.org/1999/02/22-rdf-syntax-ns#"
   xmlns:svg="http://www.w3.org/2000/svg"
   xmlns="http://www.w3.org/2000/svg"
   xmlns:sodipodi="http://sodipodi.sourceforge.net/DTD/sodipodi-0.dtd"
   xmlns:inkscape="http://www.inkscape.org/namespaces/inkscape"
   width="300"
   height="194.673"
   viewBox="0 0 300 194.67324"
   version="1.1"
   id="svg8"
   sodipodi:docname="fontello.svg"
   inkscape:version="0.92.3 (2405546, 2018-03-11)">
  <metadata
     id="metadata14">
    <rdf:RDF>
      <cc:Work
         rdf:about="">
        <dc:format>image/svg+xml</dc:format>
        <dc:type
           rdf:resource="http://purl.org/dc/dcmitype/StillImage" />
        <dc:title></dc:title>
      </cc:Work>
    </rdf:RDF>
  </metadata>
  <defs
     id="defs12" />
  <sodipodi:namedview
     pagecolor="#ffffff"
     bordercolor="#666666"
     borderopacity="1"
     objecttolerance="10"
     gridtolerance="10"
     guidetolerance="10"
     inkscape:pageopacity="0"
     inkscape:pageshadow="2"
     inkscape:window-width="1366"
     inkscape:window-height="705"
     id="namedview10"
     showgrid="false"
     inkscape:zoom="1.2033333"
     inkscape:cx="150"
     inkscape:cy="97.336502"
     inkscape:window-x="-8"
     inkscape:window-y="-8"
     inkscape:window-maximized="1"
     inkscape:current-layer="svg8" />
  <g
     id="g6"
     transform="translate(0,-0.83102594)">
    <path
       d="m 286.267,65.861 c 5.202,6.446 2.022,21.283 -11.417,25.516 -1.632,0.514 -3.146,0.825 -4.545,0.969 0.139,-2.462 0.039,-4.469 -0.071,-6.564 -0.992,-18.816 -13.765,-20.451 -18.899,-15.882 -5.656,5.033 -5.348,19.025 6.826,26.098 1.009,0.587 2.122,1.083 3.313,1.495 -3.039,15.055 -9.852,15.67 -12.881,12.421 -1.778,-1.909 -2.82,-5.238 -3.42,-8.869 2.224,-7.256 3.105,-14.474 2.387,-17.597 -0.44,-1.918 -1.243,-3.211 -2.095,-3.626 -0.305,-0.176 -1.059,-0.423 -2.569,0.111 -2.051,0.725 -3.544,2.819 -3.765,3.712 -0.969,2.605 -0.71,8.058 -0.048,15.901 l 0.071,0.744 c -1.784,4.141 -3.997,7.394 -6.626,7.885 -3.117,0.582 -6.507,-5.084 -9.256,-16.51 4.55,-12.531 12.579,-35.796 8.65,-52.91 -2.594,-11.321 -8.309,-13.166 -12.808,-12.323 -13.607,2.544 -11.006,48.513 -6.333,68.901 l 0.282,1.202 c -1.922,5.851 -4.58,11.144 -7.995,11.783 -3.117,0.582 -6.507,-5.084 -9.256,-16.51 4.55,-12.532 11.633,-36.432 7.704,-53.546 -2.594,-11.321 -7.363,-12.53 -11.861,-11.687 -13.608,2.544 -11.007,48.513 -6.333,68.902 0.27,1.181 0.547,2.321 0.831,3.425 -2.657,7.172 -6.647,15.055 -10.94,13.329 -0.694,-0.28 -1.342,-0.662 -1.945,-1.13 4.126,-6.462 6.571,-15.579 6.459,-24.115 -0.235,-17.955 -17.513,-24.731 -21.655,-4.49 -1.803,8.807 0.955,19.281 5.714,26.883 -1.616,0.476 -3.288,0.443 -4.94,-0.162 -5.195,-1.903 -7.37,-11.133 -8.238,-16.974 -0.053,-0.516 -0.104,-1.041 -0.147,-1.577 -0.735,-9.053 -0.063,-20.88 1.994,-35.229 2.214,0.262 4.468,0.375 6.768,0.297 23.402,-0.792 13.486,-25.515 13.486,-25.515 -3.768,8.461 -10.253,11.721 -18.04,12.334 l 1.678,-7.711 2.921,-11.85 0.012,-0.065 c 0.176,-1.039 -0.023,-1.9 -0.588,-2.557 -0.61,-0.71 -1.558,-1.067 -2.82,-1.06 -3.353,0.018 -11.202,3.396 -11.369,5.774 -0.516,4.412 -1.149,8.91 -1.761,13.139 l -0.375,3.611 c -9.323,-1.475 -19.337,-4.535 -28.332,-6.09 l -0.094,-0.04 c -0.726,-0.117 -1.44,-0.219 -2.15,-0.317 C 100.185,33.678 91.431,34.532 84.96,36.364 91.319,-0.548 55.488,-10.926 43.922,12.481 35.958,28.601 40.686,56.286 46.759,84.988 44.21,87.134 41.723,89.669 39.46,92.651 34.303,85.536 27.23,81.01 19.272,83.586 0.463,89.673 -3.892,124.289 3.226,152.636 c 8.734,34.773 30.408,45.614 46.433,41.049 15.962,-4.548 20.279,-32.693 15.377,-59.896 -2.172,-12.056 -5.762,-27.79 -8.692,-45.563 1.466,-0.798 2.914,-1.505 4.295,-2.125 -0.427,2.875 -0.586,7.202 0.495,13.56 2.062,12.129 8.597,19.962 17.372,21.198 9.29,1.308 13.957,-9.882 15.609,-20.774 2.072,-0.225 3.87,-0.892 5.428,-1.867 l -0.027,0.694 c 0.086,3.576 0.385,6.575 1.012,9.027 2.275,11.35 6.568,13.272 7.325,13.171 2.291,-0.424 5.252,-4.523 5.13,-4.546 -0.119,-0.023 -0.119,-0.023 -0.101,-0.14 0.125,-5.862 3.822,-17.428 6.51,-26.365 0.426,18.494 6.332,27.892 12.043,30.286 1.989,0.944 9.036,3.185 14.811,-8.679 2.885,4.86 7.47,8.626 14.771,8.172 3.019,-0.188 5.798,-1.598 8.243,-3.853 4.705,4.123 10.146,5.357 14.976,1.309 2.303,-1.93 4.056,-4.757 5.385,-7.735 3.512,8.303 7.943,12.233 13.853,11.128 5.292,-0.989 9.517,-7.191 12.417,-14.35 3.692,10.395 8.445,15.44 15.043,14.207 4.287,-0.801 7.872,-5.024 10.623,-10.406 2.304,5.612 6.169,10.126 11.75,11.266 8.868,1.811 13.183,-9.769 14.732,-15.924 0.63,-2.507 1.098,-4.661 1.444,-6.557 12.298,0.52 27.155,-5.439 30.111,-17.541 3.169,-12.969 -13.329,-15.521 -13.329,-15.521 z M 67.104,58.554 c -1.524,-1.334 0.871,-7.372 7.916,-12.158 -0.864,2.936 -1.646,4.865 -1.743,5.102 -2.333,5.147 -4.971,8.109 -6.173,7.056 z m -9.96,80.41 c 5.075,42.156 -12.732,50.943 -29.498,24.482 -10.789,-17.028 -15.08,-57.281 -5.952,-66.926 4.31,-4.554 9.478,-2.22 13.635,2.628 -0.609,1.155 -1.187,2.357 -1.721,3.615 -9.813,23.04 5.302,33.75 12.156,24.879 4.217,-5.457 2.645,-18.199 -2.539,-28.7 l 0.228,-0.304 c 1.505,-1.932 3.25,-3.666 5.118,-5.213 3.407,15.76 6.884,31.516 8.574,45.54 z M 42.871,118.728 c -0.709,8.047 -5.879,-2.164 -3.068,-12.648 2.135,4.37 3.379,9.103 3.068,12.648 z M 85.017,91.5 c -0.464,-0.326 -0.758,-0.568 -0.844,-0.64 -1.824,-1.835 -2.556,-4.601 -2.72,-7.103 -0.285,-4.31 3.055,-2.745 3.511,4.899 0.05,0.852 0.069,1.811 0.053,2.844 z m 35.862,-18.711 c 0,0 -9.987,22.032 -11.211,31.124 -0.292,-8.888 1.937,-18.892 3.702,-25.794 2.581,-4.047 3.177,-6.387 2.976,-7.53 -0.707,-3.57 -9.369,-1.907 -12.215,-0.242 -2.102,7.185 -3.355,13.328 -4.017,18.674 -1.613,2.711 -3.481,4.124 -5.359,4.731 0.2,-3.935 0.004,-7.456 -0.5,-9.841 C 91.978,73.127 86.294,71 81.169,71.281 c -5.062,0.278 -9.851,6.644 -6.257,16.786 1.756,4.952 5.365,8.904 9.539,10.562 -0.992,7.049 -3.339,14.227 -7.499,14.629 -6.638,0.64 -8.384,-12.6 -8.423,-18.374 -0.036,-5.248 1.278,-9.613 2.451,-12.453 l 0.029,-0.007 -0.007,-0.047 c 0.926,-2.231 1.759,-3.506 1.759,-3.506 0,0 -1.006,-4.301 -2.692,-4.832 -0.086,-0.042 -0.171,-0.065 -0.256,-0.063 L 69.541,73.999 69.539,74 h -0.002 l -0.13,0.02 C 67.337,74.292 61.54,75.702 54.969,79.349 53.473,69.004 52.294,58.103 51.802,46.925 50.291,12.618 68.706,5.714 75.043,18.905 c 3.1,6.45 2.742,14.39 1.567,20.823 -8.386,4.294 -12.842,10.393 -14.309,14.759 -2.338,6.959 3.768,13.707 10.398,8.901 2.759,-1.999 5.271,-6.006 7.312,-10.922 l 0.023,0.003 c 1.517,-3.546 2.698,-6.923 3.582,-10.131 1.65,-0.551 3.411,-1.024 5.292,-1.393 0.875,-0.156 1.728,-0.299 2.561,-0.425 3.45,-0.474 7.269,-0.605 11.507,-0.263 12.939,1.046 25.054,8.453 38.197,12.64 -0.55,5.37 -0.928,10.739 -1.124,16.027 l -0.263,9.586 c 0.102,13.609 1.849,22.466 4.088,28.229 -7.37,10.125 -11.584,1.012 -12.654,-1.85 -2.574,-7.509 -2.553,-19.957 0.207,-32.532 1.216,-2.345 -5.769,-3.386 -10.549,0.433 z m 45.871,14.24 c 1.158,-12.839 9.476,-10.512 8.546,1.295 -0.593,7.537 -2.922,13.516 -6.044,17.216 -2.317,-5.296 -3.039,-12.563 -2.502,-18.511 z m 28.441,-45.625 c 1.373,-0.261 2.131,2.484 2.592,4.497 2.575,11.201 -0.893,25.63 -4.019,35.267 -2.417,-17.921 -1.447,-39.23 1.427,-39.764 z m 27.459,-0.143 c 1.374,-0.261 2.133,2.483 2.594,4.496 2.574,11.201 -0.894,25.629 -4.021,35.267 -2.417,-17.921 -1.446,-39.23 1.427,-39.764 z m 39.766,49.843 c -5.273,-2.586 -6.642,-8.555 -6.384,-10.764 0.53,-4.52 7.935,-5.734 6.384,10.764 z"
       id="path2"
       inkscape:connector-curvature="0" />
    <path
       d="m 77.709,146.687 c 0,0 -1.686,1.838 0.601,6.179 2.287,4.34 4.679,6.453 5.52,6.599 0.84,0.145 26.494,-17.72 85.559,-18.797 48.11,-0.878 81.327,11.228 81.934,10.829 0.607,-0.399 2.3,-4.348 0.333,-6.294 -1.967,-1.947 -30.099,-19.455 -106.244,-15.708 -55.58,2.734 -67.702,17.191 -67.702,17.191 z"
       id="path4"
       inkscape:connector-curvature="0" />
  </g>
</svg>
