<?xml version="1.0" encoding="UTF-8" standalone="no"?>
<svg
   xmlns:dc="http://purl.org/dc/elements/1.1/"
   xmlns:cc="http://creativecommons.org/ns#"
   xmlns:rdf="http://www.w3.org/1999/02/22-rdf-syntax-ns#"
   xmlns:svg="http://www.w3.org/2000/svg"
   xmlns="http://www.w3.org/2000/svg"
   xmlns:sodipodi="http://sodipodi.sourceforge.net/DTD/sodipodi-0.dtd"
   xmlns:inkscape="http://www.inkscape.org/namespaces/inkscape"
   id="svg26"
   version="1"
   viewBox="0 0 70 70"
   sodipodi:docname="grape-MAINNN.svg"
   inkscape:version="0.92.3 (2405546, 2018-03-11)">
  <metadata
     id="metadata31">
    <rdf:RDF>
      <cc:Work
         rdf:about="">
        <dc:format>image/svg+xml</dc:format>
        <dc:type
           rdf:resource="http://purl.org/dc/dcmitype/StillImage" />
      </cc:Work>
    </rdf:RDF>
  </metadata>
  <sodipodi:namedview
     pagecolor="#ffffff"
     bordercolor="#666666"
     borderopacity="1"
     objecttolerance="10"
     gridtolerance="10"
     guidetolerance="10"
     inkscape:pageopacity="0"
     inkscape:pageshadow="2"
     inkscape:window-width="1366"
     inkscape:window-height="705"
     id="namedview29"
     showgrid="false"
     inkscape:zoom="19.077568"
     inkscape:cx="31.709849"
     inkscape:cy="57.441363"
     inkscape:window-x="-8"
     inkscape:window-y="-8"
     inkscape:window-maximized="1"
     inkscape:current-layer="g4505" />
  <defs
     id="defs6">
    <style
       id="style4">.cls-1{fill: #7e5fa6}</style>
    <style
       id="style4-3">.cls-1{fill: #7e5fa6}</style>
    <style
       id="style4-32">.cls-1{fill: #7e5fa6}</style>
  </defs>
  <g
     id="g4539"
     transform="matrix(.12862 0 0 .12234 -26 100)">
    <g
       id="g4505"
       transform="translate(1 -938)">
      <path
         id="path4511"
         d="m 504.16769,306 -2,-5 -1,-6 -1,-3 c 0,-5 -4,-22 -8,-34 -2,-5 -7,-11 -11,-16 -8,-7 -26,-17 -42,-23 l -9,-4 c 1,-2 11,-3 20,-3 l 7,1 -2,-2 -7,-6 a 72,72 0 0 1 -17,-23 l -7,-22 -12,-25 c -3,-4 -2,-4 9,2 a 143,143 0 0 1 67,81 c 0,3 2,3 5,1 5,-5 6,-9 6,-20 -1,-8 -1,-10 -3,-14 l -2,-3 3,2 c 4,3 5,5 7,12 3,6 2,23 -1,34 -2,10 -2,21 2,33 l 3,5 c 1,1 1,-1 1,-14 0,-20 3,-37 6,-34 l 2,8 c 3,17 7,23 16,26 4,1 5,2 3,3 -5,2 -10,7 -13,14 l -4,7 -9,23 c -3,5 -5,7 -6,5 z"
         inkscape:connector-curvature="0"
         style="fill:#7e5fa6;fill-opacity:1" />
    </g>
    <circle
       id="Еліпс_1"
       cx="404"
       cy="-500"
       r="51"
       class="cls-1"
       data-name="Еліпс 1" />
    <circle
       id="Еліпс_1_копія_5"
       cx="497"
       cy="-472"
       r="40"
       class="cls-1"
       data-name="Еліпс 1 копія 5" />
    <circle
       id="Еліпс_1_копія_7"
       cx="561"
       cy="-620"
       r="43"
       class="cls-1"
       data-name="Еліпс 1 копія 7" />
    <circle
       id="Еліпс_1_копія_19"
       cx="561"
       cy="-620"
       r="43"
       class="cls-1"
       data-name="Еліпс 1 копія 19" />
    <circle
       id="Еліпс_1_копія_3"
       cx="370"
       cy="-601"
       r="51"
       class="cls-1"
       data-name="Еліпс 1 копія 3" />
    <circle
       id="Еліпс_1_копія_8"
       cx="515"
       cy="-389"
       r="39"
       class="cls-1"
       data-name="Еліпс 1 копія 8" />
    <ellipse
       id="Еліпс_1_копія_10"
       cx="648"
       cy="-662"
       class="cls-1"
       data-name="Еліпс 1 копія 10"
       rx="45"
       ry="45" />
    <ellipse
       id="Еліпс_1_копія_9"
       cx="447"
       cy="-354"
       class="cls-1"
       data-name="Еліпс 1 копія 9"
       rx="32"
       ry="33" />
    <ellipse
       id="Еліпс_1_копія_16"
       cx="571"
       cy="-451"
       class="cls-1"
       data-name="Еліпс 1 копія 16"
       rx="32"
       ry="33" />
    <circle
       id="Еліпс_1_копія_14"
       cx="624"
       cy="-505"
       r="28"
       class="cls-1"
       data-name="Еліпс 1 копія 14" />
    <ellipse
       id="Еліпс_1_копія_15"
       cx="509"
       cy="-323"
       class="cls-1"
       data-name="Еліпс 1 копія 15"
       rx="25"
       ry="25" />
    <ellipse
       id="Еліпс_1_копія_17"
       cx="468"
       cy="-298"
       class="cls-1"
       data-name="Еліпс 1 копія 17"
       rx="21"
       ry="21" />
    <ellipse
       id="Еліпс_1_копія_18"
       cx="505"
       cy="-271"
       class="cls-1"
       data-name="Еліпс 1 копія 18"
       rx="19"
       ry="20" />
    <circle
       id="Еліпс_1_копія_12"
       cx="638"
       cy="-576"
       r="38"
       class="cls-1"
       data-name="Еліпс 1 копія 12" />
    <circle
       id="Еліпс_1_копія_13"
       cx="447"
       cy="-419"
       r="27"
       class="cls-1"
       data-name="Еліпс 1 копія 13" />
    <circle
       id="Еліпс_1_копія_11"
       cx="561"
       cy="-530"
       r="39"
       class="cls-1"
       data-name="Еліпс 1 копія 11" />
    <circle
       id="Еліпс_1_копія"
       cx="474"
       cy="-576"
       r="51"
       class="cls-1"
       data-name="Еліпс 1 копія" />
  </g>
</svg>
