<?xml version="1.0" encoding="UTF-8" standalone="no"?>
<svg
   xmlns:dc="http://purl.org/dc/elements/1.1/"
   xmlns:cc="http://creativecommons.org/ns#"
   xmlns:rdf="http://www.w3.org/1999/02/22-rdf-syntax-ns#"
   xmlns:svg="http://www.w3.org/2000/svg"
   xmlns="http://www.w3.org/2000/svg"
   viewBox="0 0 625.76697 1301.2139"
   height="1301.2139"
   width="625.76697"
   id="svg2"
   version="1.1">
  <metadata
     id="metadata8">
    <rdf:RDF>
      <cc:Work
         rdf:about="">
        <dc:format>image/svg+xml</dc:format>
        <dc:type
           rdf:resource="http://purl.org/dc/dcmitype/StillImage" />
        <dc:title></dc:title>
      </cc:Work>
    </rdf:RDF>
  </metadata>
  <defs
     id="defs6" />
  <path
     id="path817"
     d="m 270.88189,1300.143 c -65.95979,-3.7213 -119.55445,-17.5229 -127.46755,-32.8252 -1.0014,-1.9364 -3.3917,-30.792 -8.4602,-102.1309 -3.8854,-54.6875 -7.4326,-101.0403 -7.8826,-103.0063 -0.45,-1.966 -9.7327,-17.3976 -20.6282,-34.2924 -10.895605,-16.8948 -19.629905,-30.89803 -19.409605,-31.11834 0.2203,-0.22031 6.2388,1.37189 13.374405,3.53824 76.966,23.3664 188.63771,32.4773 286.97375,23.413 50.81477,-4.684 104.06304,-14.6706 136.27006,-25.55731 4.71561,-1.59397 8.69621,-2.77577 8.84577,-2.62621 0.14956,0.14956 -7.97983,13.53472 -18.06531,29.74472 l -18.33724,29.4728 -6.68843,104.9578 c -5.05538,79.3313 -7.04346,105.6444 -8.14251,107.7697 -3.2851,6.3527 -17.27043,13.7817 -36.09065,19.1714 -40.33114,11.5499 -111.3032,17.0427 -174.29169,13.489 z m 4,-287.4846 c -85.19736,-3.474 -147.97575,-15.29183 -190.750055,-35.90814 -7.2875,-3.51242 -13.2876,-6.52323 -13.3335,-6.6907 -0.2171,-0.79106 -22.506,-200.80448 -22.3771,-200.80448 0.081,0 2.8055,0.98162 6.0541,2.18138 4.7849,1.76713 8.0904,2.18478 17.4065,2.19927 10.1961,0.0159 12.3405,-0.30009 18.9123,-2.78645 13.431705,-5.08172 25.192005,-13.21241 44.043205,-30.45015 5.4519,-4.98519 8.0445,-6.79896 8.0445,-5.62774 0,0.95051 -3.1357,11.23569 -6.9682,22.85595 -8.116,24.60752 -10.1268,32.68046 -10.1657,40.81297 -0.032,6.71839 1.7616,10.34252 5.8972,11.91486 3.4063,1.29505 6.3271,0.53624 10.075,-2.61743 6.7004,-5.63803 11.8154,-18.01974 22.094,-53.48266 3.9056,-13.475 11.801,-38.45 17.5453,-55.5 10.98187,-32.59612 13.95148,-42.91091 15.36296,-53.3625 1.68092,-12.44679 -1.85113,-20.1375 -9.24839,-20.1375 -8.28477,0 -14.62587,9.42199 -22.20957,33 -6.1474,19.11288 -8.3716,23.96929 -15.0966,32.96305 -7.6072,10.17354 -26.8649,29.29666 -37.286,37.02535 -10.3942,7.70878 -22.832705,13.84915 -29.702205,14.66275 -18.9015,2.2386 -25.7865,-20.45831 -16.7529,-55.2269 10.1173,-38.93944 45.859805,-101.11041 68.648805,-119.40861 12.6909,-10.19004 24.0923,-15.20797 34.8661,-15.34514 9.8092,-0.12489 14.2243,2.82332 21.87221,14.60537 11.77104,18.13394 13.21555,19.34876 22.00309,18.50439 4.18248,-0.40188 5.89308,-1.14713 8.40785,-3.663 2.71417,-2.71535 3.1471,-3.84525 3.08584,-8.05364 -0.1973,-13.55381 -18.48318,-35.54478 -37.28143,-44.83538 -6.69266,-3.30767 -8.37816,-3.70698 -17.13116,-4.05855 -11.5708,-0.46475 -22.347,1.87591 -33.9274,7.36924 -34.322,16.28115 -67.223705,61.342 -94.144305,128.93624 -4.4962,11.28928 -4.8032,11.77612 -5.3608,8.5 -0.3253,-1.91134 -8.2318,-72.77517 -17.5701,-157.47517 -9.3383,-84.7 -17.2192996,-155.70298 -17.5133996,-157.7844 -0.5344,-3.78167 -0.5331,-3.78328 1.827,-2.23692 3.8967,2.55324 18.3258996,7.46617 31.0624996,10.57633 31.3595,7.65772 78.820305,13.47441 138.110305,16.92652 71.39397,4.15684 198.06146,4.15558 271.00005,-0.003 76.26362,-4.34785 138.26398,-13.7445 167.11027,-25.32688 4.61435,-1.85276 8.38973,-3.28072 8.38973,-3.17325 0,0.10747 -9.43246,79.58123 -20.96101,176.60836 l -20.96102,176.41324 -8.28898,8.04453 c -17.08053,16.57678 -46.23971,32.36618 -63.03899,34.13497 -4.4787,0.47156 -5.75,0.30466 -5.75,-0.75489 0,-0.74816 8.92989,-10.14977 19.84421,-20.89245 25.76722,-25.36204 33.87482,-36.28159 37.69248,-50.76536 2.48309,-9.42056 0.0185,-17.93814 -6.96465,-24.0694 -6.80024,-5.97069 -17.28059,-6.55823 -31.38888,-1.7597 -13.02156,4.42892 -29.85481,14.2986 -38.79481,22.74619 l -3.11165,2.94026 1.44905,-5.68944 c 2.42266,-9.51219 -0.16732,-15.2746 -7.59899,-16.90687 -7.17487,-1.57586 -10.58763,2.95478 -17.68069,23.47216 -8.38392,24.25131 -16.80073,37.55439 -31.13861,49.21574 -9.71898,7.90468 -16.15489,11.20389 -31.79082,16.29675 -7.57755,2.46813 -13.91156,4.48751 -14.07557,4.48751 -0.16402,0 -1.00536,-0.70714 -1.86964,-1.57143 -6.01682,-6.01682 5.68942,-38.41949 43.14641,-119.42857 8.51936,-18.425 17.03433,-38.10569 18.92216,-43.73487 5.67591,-16.92453 5.56093,-27.60211 -0.34725,-32.24949 -4.26475,-3.35466 -7.09712,-2.61697 -12.88136,3.35493 -6.34299,6.54877 -16.92993,27.44705 -29.95461,59.12943 -4.74822,11.55 -13.27291,31.8 -18.94375,45 -11.17125,26.00328 -15.53962,37.81499 -21.51244,58.16786 -2.12535,7.24233 -4.56297,14.51898 -5.41692,16.17034 -3.58168,6.92621 -18.84808,15.81755 -28.94859,16.86001 -5.04427,0.52062 -5.68891,0.34675 -8.01335,-2.16136 -3.44972,-3.72231 -4.1005,-9.38829 -2.15484,-18.76121 1.92032,-9.25088 4.06585,-15.07118 13.55661,-36.77564 12.07089,-27.60498 14.32271,-35.29648 11.56557,-39.50441 -2.0061,-3.06169 -5.62222,-3.25625 -10.01874,-0.53906 -6.46772,3.99728 -13.30391,14.54435 -26.47272,40.84292 -9.75016,19.47141 -15.35555,26.8769 -32.32105,42.70055 -10.36144,9.66407 -18.16757,14.56432 -24.30263,15.25583 -6.71091,0.75642 -8.47393,-1.23527 -8.47393,-9.57304 0,-10.50089 7.97964,-31.56956 22.7939,-60.18279 9.03452,-17.44988 10.15154,-25.71177 4.08829,-30.23863 -1.99638,-1.49052 -3.02533,-1.65745 -5.17611,-0.83972 -9.03513,3.43515 -26.47198,30.32233 -37.16296,57.30434 -12.17179,30.7193 -13.67653,53.57393 -4.15423,63.09623 6.36891,6.36891 20.79271,8.43333 32.75577,4.68819 12.24816,-3.83439 24.01513,-12.74548 33.60212,-25.44679 2.51726,-3.33499 4.84153,-6.37852 5.16503,-6.7634 0.3235,-0.38487 0.6203,2.1522 0.65954,5.63795 0.27446,24.37957 21.91529,31.46013 51.11029,16.72254 3.39496,-1.71378 6.457,-3.57602 6.80453,-4.13833 1.22365,-1.9799 3.0374,-0.9657 5.27228,2.94812 1.34431,2.35422 4.15303,5.06539 6.93917,6.69818 11.36087,6.65792 30.42647,1.28138 56.77545,-16.0108 5.48519,-3.59979 10.15981,-6.35833 10.38805,-6.13009 0.79639,0.79639 -6.23399,17.14789 -17.55592,40.83214 -17.06419,35.69645 -22.3052,49.40034 -22.3052,58.32233 0,3.60895 0.56391,5.03549 2.92308,7.39466 3.27845,3.27846 4.95903,3.56307 8.87658,1.50329 10.00309,-5.25947 22.95718,-26.82703 39.67835,-66.06143 14.49114,-34.00185 27.35678,-59.66128 38.36655,-76.51878 3.11269,-4.76598 9.96723,-12.92733 15.60343,-18.57822 8.32891,-8.35062 11.50907,-10.79945 18.55201,-14.28567 8.55557,-4.23497 23.24855,-8.02218 26.4126,-6.80802 4.26166,1.63535 1.62185,5.14479 -19.68663,26.17191 -27.12476,26.76662 -33.94168,35.54722 -37.14347,47.843 -2.73242,10.49327 0.98682,20.16313 9.38746,24.407 14.83231,7.49305 50.77372,-4.11781 80.13434,-25.88738 l 8.19164,-6.07374 -0.52646,3.35556 c -0.28956,1.84556 -6.54364,54.17211 -13.89797,116.28122 l -13.37151,112.92565 -12,5.76698 c -37.8239,18.17748 -94.38439,30.05983 -166,34.87373 -15.69846,1.0552 -78.85416,2.0085 -93.5,1.4113 z m -43,-644.48934 C 124.18804,364.28536 37.753735,352.87879 10.194335,338.91341 c -23.8943,-12.10817 -5.3000996,-24.96627 50.6875,-35.05103 26.9573,-4.85566 65.938405,-9.19211 108.500005,-12.07007 48.82623,-3.30156 67.97385,-3.85495 141.00005,-4.0751 l 76,-0.22911 16.0692,-61.1784 16.06921,-61.17839 25.43079,-25.50848 c 13.98694,-14.02966 51.42833,-51.184211 83.2031,-82.565657 L 584.92648,0 l 4.51575,0.50899 c 6.63391,0.747737 16.21819,5.89188 23.62842,12.682004 7.39195,6.773385 12.48799,15.241845 11.50711,19.122208 -0.36781,1.455063 -27.40616,28.788368 -66.90656,67.636441 -36.45912,35.857017 -71.39146,70.328817 -77.62742,76.604007 l -11.3381,11.40944 -13.78689,50.89599 c -7.58278,27.9928 -13.59158,51.2335 -13.35287,51.646 0.2387,0.4125 2.61014,0.75 5.26987,0.75 6.96377,0 40.408,2.70082 62.5461,5.05098 64.6562,6.86382 105.96098,16.82054 114.42686,27.58317 2.80985,3.57215 2.60578,6.55242 -0.67686,9.88478 -16.34361,16.59122 -105.6407,29.81851 -232.6471,34.46128 -31.44543,1.1495 -125.98585,1.11002 -158.6029,-0.0662 z m 187.5,-18.94502 c 10.66141,-1.20193 14.64393,-2.36553 16.9976,-4.96631 2.27179,-2.5103 1.34654,-6.21292 -2.00013,-8.004 -2.22702,-1.19187 -2.76889,-1.15581 -4.20452,0.27983 -1.53071,1.53071 -1.52861,1.69386 0.0295,2.29176 2.15123,0.82551 2.14197,2.03756 -0.0219,2.86793 -3.59029,1.37772 -32.23052,2.42156 -43.80054,1.59638 -14.85782,-1.05966 -17.73189,-1.71705 -17.05338,-3.90062 0.86441,-2.78179 -0.87254,-4.51153 -3.25172,-3.23824 -2.72494,1.45835 -3.52405,4.2878 -2.0961,7.42181 2.19698,4.82184 9.74474,6.37145 31.9012,6.54954 7.975,0.0641 18.55,-0.34003 23.5,-0.89808 z"
     style="fill:#f24844" />
</svg>
