<?xml version="1.0" encoding="UTF-8" standalone="no"?>
<svg
   xmlns:dc="http://purl.org/dc/elements/1.1/"
   xmlns:cc="http://creativecommons.org/ns#"
   xmlns:rdf="http://www.w3.org/1999/02/22-rdf-syntax-ns#"
   xmlns:svg="http://www.w3.org/2000/svg"
   xmlns="http://www.w3.org/2000/svg"
   viewBox="0 0 408.61365 405.58847"
   height="405.58847"
   width="408.61365"
   id="svg2"
   version="1.1">
  <metadata
     id="metadata8">
    <rdf:RDF>
      <cc:Work
         rdf:about="">
        <dc:format>image/svg+xml</dc:format>
        <dc:type
           rdf:resource="http://purl.org/dc/dcmitype/StillImage" />
        <dc:title></dc:title>
      </cc:Work>
    </rdf:RDF>
  </metadata>
  <defs
     id="defs6" />
  <path
     id="path817"
     d="M 223.83182,405.09784 C 162.48766,399.09753 104.51144,371.66295 64.327844,329.61988 35.337184,299.28771 16.188344,266.61162 6.9067737,231.63508 -5.8555863,183.54159 -0.82582635,137.30927 21.121194,100.97957 c 5.42922,-8.987185 29.90142,-44.386855 30.34856,-43.899975 0.0913,0.0994 -1.12537,5.10215 -2.7036,11.11731 -5.18261,19.75269 -6.43062,30.07537 -6.35489,52.563355 0.0756,22.44198 1.30541,32.32948 6.41586,51.58154 22.99024,86.6086 102.446246,157.43237 194.018636,172.94011 12.8583,2.17755 41.87642,3.02004 54.89047,1.59365 32.59666,-3.57272 62.85683,-14.47391 89.59559,-32.27669 6.05,-4.02812 11.63973,-7.73025 12.42163,-8.22697 1.55703,-0.98913 0.42798,0.98243 -10.65588,18.60748 -10.2425,16.28715 -19.46561,27.91473 -29.87796,37.66714 -24.69129,23.12636 -58.42317,37.9626 -95.59838,42.04688 -8.95223,0.98354 -31.5234,1.21297 -39.78941,0.40444 z M 279.14148,268.73206 C 205.82316,261.01678 140.17709,200.15849 128.29943,128.8914 c -2.45891,-14.75369 -1.64593,-36.948445 1.83627,-50.131145 5.0065,-18.95333 13.47744,-34.972649 26.64456,-50.387309 3.54664,-4.152029 6.54859,-7.448988 6.671,-7.326577 0.12242,0.122412 -0.61102,3.721383 -1.62985,7.997713 -6.09094,25.565463 -4.98847,54.949033 2.99093,79.716178 3.62748,11.25927 15.4951,33.90873 23.05463,44 27.21734,36.33257 66.90327,60.94859 110.46485,68.5181 13.32888,2.3161 35.71188,2.33726 49,0.0463 17.23121,-2.97074 35.93413,-10.07987 50,-19.0054 7.84614,-4.97878 7.54841,-4.85358 6.80313,-2.86097 -1.45472,3.88937 -9.67361,16.98394 -14.34413,22.85346 -6.9075,8.68078 -21.48636,22.31588 -29.69599,27.77363 -23.45971,15.59598 -50.58003,21.84283 -80.95335,18.64665 z m 55.27114,-116.00659 c -38.26253,-4.60475 -76.47432,-29.81229 -93.93225,-61.965215 -9.03325,-16.63686 -11.93816,-36.41329 -7.788,-53.020013 2.58768,-10.354485 8.35738,-22.208087 15.22532,-31.2797426 2.83137,-3.739868 5.30464,-6.64306201 5.49616,-6.45154201 0.19152,0.19152 -0.14192,3.47641201 -0.74097,7.29976001 -1.44167,9.2011806 -0.48894,25.0330646 2.10332,34.9515416 4.63902,17.749756 16.6953,37.307396 31.92658,51.791146 32.61622,31.015475 74.75493,39.142405 110.62904,21.336085 6.05,-3.00295 11.12227,-5.33779 11.27172,-5.18852 0.14945,0.14927 -1.37626,3.47507 -3.39046,7.39066 -13.07373,25.41531 -40.10486,38.82993 -70.80046,35.13584 z"
     style="fill:#010101" />
</svg>
