<?xml version="1.0" encoding="UTF-8" standalone="no"?>
<svg
   xmlns:dc="http://purl.org/dc/elements/1.1/"
   xmlns:cc="http://creativecommons.org/ns#"
   xmlns:rdf="http://www.w3.org/1999/02/22-rdf-syntax-ns#"
   xmlns:svg="http://www.w3.org/2000/svg"
   xmlns="http://www.w3.org/2000/svg"
   viewBox="0 0 406.55542 496.41064"
   height="496.41064"
   width="406.55542"
   id="svg2"
   version="1.1">
  <metadata
     id="metadata8">
    <rdf:RDF>
      <cc:Work
         rdf:about="">
        <dc:format>image/svg+xml</dc:format>
        <dc:type
           rdf:resource="http://purl.org/dc/dcmitype/StillImage" />
        <dc:title></dc:title>
      </cc:Work>
    </rdf:RDF>
  </metadata>
  <defs
     id="defs6" />
  <path
     id="path817"
     d="m 130.03952,494.29947 c -8.77992,-3.13254 -12.94304,-6.14371 -18.4945,-13.37703 -5.74207,-7.48167 -7.43854,-14.55007 -6.75699,-28.15339 0.65047,-12.98322 2.66645,-17.8909 10.82247,-26.34608 9.26341,-9.60318 25.03493,-13.4502 38.54598,-9.40218 12.56135,3.76346 23.24532,18.77094 24.68774,34.67817 l 0.70154,7.73676 h -31.54392 -31.54392 l 0.86952,3.66667 c 1.66452,7.01901 4.14763,11.69302 8.42392,15.85649 8.69955,8.47003 24.33402,9.37291 36.06175,2.08255 l 6.62411,-4.11778 2.71608,3.81438 2.71606,3.81437 -4.75533,3.91975 c -9.17299,7.56114 -26.83311,10.19486 -39.07451,5.82732 z m 36.43451,-47.19708 c -2.41005,-11.43567 -9.19573,-18.44175 -19.61221,-20.24924 -12.98491,-2.25316 -29.01976,9.4515 -29.01976,21.18302 v 3.39955 h 24.77261 24.7726 z m 45.44512,47.75829 c -7.79148,-2.89584 -11.73056,-6.23623 -15.07709,-12.78553 -7.21658,-14.12316 -0.17499,-30.87407 14.85481,-35.33744 11.22071,-3.33219 20.33855,-2.08514 29.32052,4.01021 l 4.82467,3.27411 -0.003,-7.6265 c -0.003,-10.55648 -3.14859,-16.4533 -9.99793,-18.7417 -8.21146,-2.7435 -18.6643,-1.20303 -25.7561,3.79574 -6.5951,4.64866 -8.10537,4.56106 -10.88426,-0.63136 -1.80478,-3.37225 -1.71655,-3.77638 1.35494,-6.20682 9.04215,-7.15494 13.38418,-8.509 27.28542,-8.509 15.17017,0 21.85688,2.41365 26.79177,9.67084 3.48048,5.11834 4.82909,23.16489 3.62001,48.44184 l -0.82277,17.22065 h -5.12738 c -3.66877,0 -5.12737,-0.56895 -5.12737,-2 0,-2.68649 -0.30469,-2.60828 -7.79609,2.00123 -8.02742,4.93932 -19.52527,6.37286 -27.46015,3.42373 z m 26.17531,-10.90835 c 5.57434,-2.85224 7.7476,-7.00214 7.7476,-14.79437 0,-6.70485 -0.2367,-7.17437 -5.30894,-10.53103 -6.83837,-4.52541 -15.61674,-5.55172 -23.08628,-2.69908 -14.48989,5.53374 -13.53558,25.88019 1.40404,29.93522 5.75732,1.56269 14.0679,0.73752 19.24358,-1.91074 z m 67.73897,10.31683 c -9.27055,-3.03975 -18.85136,-11.16191 -23.06895,-19.55673 -3.60266,-7.17088 -5.09592,-19.1818 -3.47492,-27.95058 1.91198,-10.34278 5.10575,-16.37545 11.93652,-22.54664 7.80156,-7.04824 13.63686,-9.2422 24.61598,-9.25509 10.48708,-0.012 20.86426,3.67553 26.13769,9.28884 l 3.06673,3.26439 -4.23913,4.23913 -4.23915,4.23913 -3.6964,-3.52645 c -9.75313,-9.30471 -26.24046,-8.02404 -35.29941,2.74191 -3.43007,4.07641 -6.397,14.02954 -6.397,21.45997 0,5.75189 3.69085,14.95755 7.71847,19.25125 4.31316,4.59812 12.84365,8.78084 17.99102,8.82148 4.97595,0.0393 12.85176,-3.37268 17.03583,-7.38024 l 3.41199,-3.26805 3.82886,3.99648 3.82887,3.99647 -3.24085,3.47206 c -5.49004,5.88174 -13.03134,8.92799 -23.24086,9.38798 -5.13333,0.23128 -10.83721,-0.0725 -12.67529,-0.67531 z m 65.48876,-0.69412 c -6.219,-3.44688 -6.7158,-6.1738 -6.7662,-37.13932 l -0.047,-29 h -6.74717 -6.74714 l 0.41381,-5 c 0.40169,-4.85337 0.58,-5.01203 6.08049,-5.41 l 5.66671,-0.41 v -10.59 -10.59 h 6 6 v 10 10 h 8 8 v 6 6 h -7.3333 -7.3334 v 26.57143 c 0,22.98762 0.2988,26.87017 2.215,28.78644 2.1344,2.13438 6.4283,2.1873 11.1493,0.13741 1.4535,-0.63111 2.504,0.35787 3.6945,3.47809 1.5027,3.93856 1.3888,4.58548 -1.1787,6.6933 -3.4566,2.83776 -16.2804,3.12548 -21.0666,0.47265 z M 59.386978,473.43572 45.946038,452.76905 h -11.38533 -11.38532 v 19.33334 19.33333 h -6 -6 v -52 -52 h 23.93437 c 30.97349,0 36.24007,1.09425 44.0908,9.16087 6.79162,6.97837 9.32258,13.61401 9.27888,24.32716 -0.0531,13.01545 -8.47118,24.92204 -20.12468,28.46445 -3.21532,0.97739 -5.70832,2.40107 -5.54001,3.16372 0.16832,0.76265 6.01832,10.03403 13,20.60305 6.98168,10.56903 12.69397,19.6059 12.69397,20.08192 0,0.47602 -3.52818,0.8655 -7.84041,0.8655 h -7.8404 z m 4.8006,-36.65947 c 12.71739,-7.75388 12.71739,-25.59385 0,-33.34773 -3.77859,-2.30383 -6.73737,-2.65015 -22.67886,-2.65448 l -18.33333,-0.005 v 19.33334 19.33333 l 18.33333,-0.005 c 15.94149,-0.004 18.90027,-0.35066 22.67886,-2.65448 z M 269.84206,361.30289 c -16.47002,-4.39597 -37.89586,-17.13622 -55.72892,-33.13756 -5.3509,-4.80129 -10.27822,-8.72961 -10.9496,-8.72961 -0.67138,0 -4.99336,3.37908 -9.60442,7.50908 -17.62329,15.78469 -39.94545,29.16723 -55.33905,33.17675 -17.53528,4.56736 -34.18248,1.17025 -44.488012,-9.07846 -6.79236,-6.7549 -11.27262,-16.03914 -14.07629,-29.1697 -2.74152,-12.83942 -1.69809,-42.0166 2.13341,-59.65646 1.49953,-6.90366 2.57486,-12.69026 2.38965,-12.8591 -0.18523,-0.16884 -6.01721,-2.20264 -12.95996,-4.51958 C 25.725238,229.65619 -0.05481249,206.46417 8.7505385e-5,180.76905 0.05308751,155.94629 23.849558,134.16144 67.842058,118.66196 c 12.91741,-4.55108 15.96464,-6.11132 15.81646,-8.09835 -0.10093,-1.35368 -1.45094,-9.57085 -3,-18.260391 -3.11438,-17.470346 -3.69407,-39.572905 -1.37141,-52.289285 3.14956,-17.243548 12.86597,-30.8692763 26.391752,-37.0102063 4.7077,-2.13738202 8.68222,-2.77408202 16.82986,-2.69606802 20.5695,0.196954 43.20614,11.60653832 70.18838,35.37715532 l 10.18838,8.975682 9.81162,-8.704811 c 12.78913,-11.346429 33.40972,-25.1041 44.77878,-29.8755643 12.68427,-5.32343602 24.67708,-7.215037 34.37612,-5.42207302 18.64418,3.44656302 29.429,15.84036632 34.82126,40.01620132 2.83057,12.690721 1.83662,41.707859 -2.05634,60.03227 -1.47273,6.93228 -2.44154,12.8403 -2.15289,13.12895 0.28864,0.28864 6.51791,2.53551 13.84281,4.99304 54.34465,18.23281 80.43005,49.3807 66.58495,79.50741 -8.6346,18.78851 -33.8389,36.44219 -68.16633,47.74516 -11.93211,3.92888 -13.04387,4.57637 -12.31124,7.17011 3.06001,10.83349 6.09197,35.11505 6.0748,48.65036 -0.0325,25.6378 -4.94747,40.16272 -17.36942,51.33112 -10.87638,9.7788 -24.72905,12.48716 -41.27754,8.07022 z M 145.14238,338.31941 c 10.63618,-5.12992 26.03722,-15.99269 38.6087,-27.23174 l 6.5757,-5.87875 -11.02592,-13.03899 c -6.06426,-7.17145 -13.7265,-16.79301 -17.0272,-21.38125 l -6.00128,-8.34225 -8.67836,-0.88912 c -4.77311,-0.48903 -15.96992,-2.14283 -24.88183,-3.67514 -8.91191,-1.53229 -17.06367,-2.8596 -18.11504,-2.94956 -2.97072,-0.25418 -6.706512,19.713 -7.647322,40.87363 -0.66899,15.04695 -0.40321,19.89832 1.46908,26.81512 2.553652,9.43396 8.333002,17.45768 14.652912,20.34329 6.98101,3.18746 19.6289,1.35548 32.07056,-4.64524 z m 147.84222,4.61528 c 11.19931,-4.67936 16.85746,-18.48136 16.85746,-41.12061 0,-13.48416 -4.25356,-44.59441 -6.361,-46.52395 -0.53479,-0.48962 -6.37234,0.23423 -12.97234,1.60859 -6.6,1.37436 -18.4015,3.22232 -26.22558,4.10656 l -14.22558,1.60772 -6.63717,8.86913 c -3.65044,4.87803 -11.2396,14.35464 -16.86479,21.05914 -5.62518,6.70449 -9.89685,12.72517 -9.4926,13.37928 1.25291,2.02724 22.43466,19.50464 29.13238,24.03758 18.7512,12.69063 36.01464,17.47848 46.78922,12.97656 z m -78.33464,-65.16564 10.35368,-12.33333 -10.91412,-0.38725 c -6.00277,-0.213 -15.82549,-0.213 -21.82826,0 l -10.91412,0.38725 10.35368,12.33333 c 5.69452,6.78334 10.85808,12.33334 11.47457,12.33334 0.61649,0 5.78005,-5.55 11.47457,-12.33334 z m 26.37394,-35 c 5.45868,-7.42293 19.58756,-31.15057 27.00081,-45.34438 l 8.36239,-16.01106 -8.36515,-15.98894 c -7.43063,-14.2027 -21.58856,-37.96896 -26.9992,-45.32228 -1.87779,-2.55201 -3.50509,-2.66667 -37.84736,-2.66667 -34.34227,0 -35.96957,0.11465 -37.84736,2.66667 -5.39923,7.33781 -19.56071,31.10453 -26.95447,45.23677 l -8.32044,15.90344 5.93046,11.80824 c 6.16026,12.26583 18.01364,32.66813 25.93998,44.64852 3.49494,5.28245 5.53626,7.0686 8.58516,7.51199 2.2,0.31992 18.5247,0.50128 36.27708,0.40302 30.62446,-0.1695 32.3775,-0.31518 34.2381,-2.84532 z m -53.18184,-27.811 c -12.65192,-5.91782 -22,-20.16189 -22,-33.52233 0,-19.78433 17.17496,-36.64061 37.33333,-36.64061 20.15837,0 37.33333,16.85628 37.33333,36.64061 0,19.78433 -17.17496,36.64061 -37.33333,36.64061 -6.29579,0 -10.49043,-0.85304 -15.33333,-3.11828 z m -46,26.619 c 0,-0.28894 -4.1854,-7.57033 -9.30088,-16.18086 -5.1155,-8.61054 -9.65592,-16.77414 -10.08986,-18.14134 -0.43393,-1.36718 -1.27672,-2.4858 -1.87286,-2.4858 -1.01727,0 -12.06974,28.03867 -12.06974,30.61934 0,0.65538 3.41154,1.89984 7.58119,2.76545 15.45575,3.2086 25.75215,4.57729 25.75215,3.42321 z m 143.66666,-2.8814 c 8.54596,-1.52693 12.33334,-2.76973 12.33334,-4.04708 0,-1.83505 -10.21666,-29.87394 -11.2686,-30.92589 -0.30367,-0.30367 -2.08891,2.4806 -3.96722,6.18725 -1.8783,3.70666 -6.71864,12.18742 -10.7563,18.84614 -4.03767,6.6587 -7.34122,12.45242 -7.34122,12.87492 0,0.7957 0.54232,0.7199 21,-2.93534 z M 96.452998,213.43572 c 3.5214,-9.53333 7.880802,-20.59288 9.687552,-24.57676 l 3.285,-7.24343 -7.02443,-16.98673 c -3.863422,-9.34271 -8.101122,-20.40241 -9.417082,-24.57713 -1.31597,-4.17474 -3.05122,-7.84312 -3.85612,-8.152 -2.41825,-0.92796 -24.42408,7.36461 -37.95253,14.30188 -49.9423105,25.60993 -41.7448405,55.73684 21.76851,80.00246 7.46065,2.85039 14.36172,5.04359 15.33569,4.87378 0.97399,-0.1698 4.65201,-8.10874 8.17341,-17.64207 z m 234.282822,13.86476 c 6.47509,-2.27439 17.4729,-7.05815 24.43957,-10.63059 50.2547,-25.77012 41.417,-56.49034 -23.15936,-80.50373 -7.23765,-2.69139 -13.83932,-4.63252 -14.67036,-4.31361 -0.83104,0.31889 -3.16467,5.60557 -5.18581,11.74816 -2.02116,6.14258 -6.26543,17.15296 -9.4317,24.46749 l -5.75685,13.29913 6.89489,16.70087 c 3.79219,9.18547 7.968,20.00085 9.27958,24.03419 2.80894,8.63802 3.15674,9.33333 4.66873,9.33333 0.63163,0 6.44621,-1.86085 12.92131,-4.13524 z M 125.3621,150.43572 c 2.74114,-4.95 7.91206,-13.70976 11.49096,-19.46613 l 6.50706,-10.46614 -5.75902,0.88369 c -3.16748,0.48603 -11.05627,1.81681 -17.53064,2.95728 -11.5945,2.04238 -11.75876,2.12478 -10.91752,5.47654 1.03134,4.1092 10.4072,29.61476 10.8864,29.61476 0.18638,0 2.58162,-4.05 5.32276,-9 z m 169.25186,-11.91671 4.45323,-12.25002 -6.94589,-1.36438 c -12.6989,-2.49441 -22.73923,-4.13556 -25.30084,-4.13556 -2.2822,0 -2.12326,0.69022 1.61204,7 2.27914,3.85 7.24617,12.67191 11.03784,19.60424 l 6.89394,12.60424 1.89823,-4.60424 c 1.04401,-2.53233 3.90217,-10.11676 6.35145,-16.85428 z M 121.81539,104.83213 c 7.91395,-1.42503 18.87965,-2.9979 24.36825,-3.49526 l 9.97927,-0.9043 6.70232,-8.956201 c 3.68628,-4.925907 11.30476,-14.441696 16.92995,-21.146194 5.62518,-6.704497 9.89685,-12.72517 9.4926,-13.379274 -1.75216,-2.835052 -23.58174,-20.359528 -32.11239,-25.779372 -28.76423,-18.274991 -47.77887,-17.184251 -56.73481,3.254488 -4.573282,10.43687 -5.161872,33.464821 -1.417432,55.455282 3.093492,18.167611 3.529432,19.412051 6.412612,18.305671 1.09484,-0.42013 8.46568,-1.92981 16.37963,-3.35484 z M 306.93927,93.769049 c 3.786,-20.881523 4.51529,-31.941482 2.92333,-44.333327 -3.26752,-25.434489 -15.77465,-35.41428 -36.82524,-29.383875 -14.49217,4.151604 -31.33008,14.784275 -47.77794,30.170451 l -8.61899,8.062639 9.96649,11.570374 c 5.48158,6.363707 13.10195,15.843268 16.93415,21.065688 l 6.96765,9.495321 9.33334,0.95589 c 7.07314,0.72442 31.28725,4.74326 43.52212,7.22343 0.4705,0.0954 2.07929,-6.57659 3.57509,-14.826591 z m -83.27156,2.66667 c -2.19413,-3.66276 -19.51439,-23.666664 -20.49163,-23.666664 -0.99945,0 -18.51894,20.199784 -20.52636,23.666664 -0.75522,1.30431 3.7073,1.66667 20.52567,1.66667 16.83616,0 21.27448,-0.36098 20.49232,-1.66667 z"
     style="fill:#52d1f9;stroke-width:1.33333337" />
</svg>
