<?xml version="1.0" encoding="UTF-8" standalone="no"?>
<svg
   xmlns:dc="http://purl.org/dc/elements/1.1/"
   xmlns:cc="http://creativecommons.org/ns#"
   xmlns:rdf="http://www.w3.org/1999/02/22-rdf-syntax-ns#"
   xmlns:svg="http://www.w3.org/2000/svg"
   xmlns="http://www.w3.org/2000/svg"
   viewBox="0 0 2281.8047 1710.8107"
   height="1710.8107"
   width="2281.8047"
   id="svg2"
   version="1.1">
  <metadata
     id="metadata8">
    <rdf:RDF>
      <cc:Work
         rdf:about="">
        <dc:format>image/svg+xml</dc:format>
        <dc:type
           rdf:resource="http://purl.org/dc/dcmitype/StillImage" />
        <dc:title></dc:title>
      </cc:Work>
    </rdf:RDF>
  </metadata>
  <defs
     id="defs6" />
  <g
     transform="translate(-0.07380369,-0.11550232)"
     id="g817">
    <path
       id="path831"
       d="m 215.75,1710.3377 c 0.6875,-0.2774 1.8125,-0.2774 2.5,0 0.6875,0.2774 0.125,0.5044 -1.25,0.5044 -1.375,0 -1.9375,-0.227 -1.25,-0.5044 z m 48.0625,-0.021 c 0.72187,-0.2889 1.58438,-0.2534 1.91667,0.079 0.33229,0.3323 -0.25834,0.5687 -1.3125,0.5253 -1.16495,-0.048 -1.4019,-0.285 -0.60417,-0.6042 z M 504,1589.6224 c 0,-0.2076 0.7875,-0.9951 1.75,-1.75 1.58606,-1.2438 1.62143,-1.2085 0.37756,0.3776 -1.30637,1.6657 -2.12756,2.1955 -2.12756,1.3724 z m -240.1875,-7.3055 c 0.72187,-0.2889 1.58438,-0.2534 1.91667,0.079 0.33229,0.3323 -0.25834,0.5687 -1.3125,0.5253 -1.16495,-0.048 -1.4019,-0.285 -0.60417,-0.6042 z m 16,0 c 0.72187,-0.2889 1.58438,-0.2534 1.91667,0.079 0.33229,0.3323 -0.25834,0.5687 -1.3125,0.5253 -1.16495,-0.048 -1.4019,-0.285 -0.60417,-0.6042 z M 73.309869,1553.5 c 0.0056,-3.3 0.192301,-4.5294 0.414862,-2.7321 0.222562,1.7974 0.217969,4.4974 -0.0102,6 -0.228174,1.5027 -0.41027,0.032 -0.404657,-3.2679 z M 419,1513.5 c 1.29175,-1.375 2.57363,-2.5 2.84863,-2.5 0.275,0 -0.55688,1.125 -1.84863,2.5 -1.29175,1.375 -2.57363,2.5 -2.84863,2.5 -0.275,0 0.55688,-1.125 1.84863,-2.5 z m -203.92105,-2.0833 c 0.048,-1.165 0.28494,-1.4019 0.60416,-0.6042 0.28887,0.7219 0.25335,1.5844 -0.0789,1.9167 -0.3323,0.3323 -0.56864,-0.2584 -0.52522,-1.3125 z M 430,1502.5 c 1.29175,-1.375 2.57363,-2.5 2.84863,-2.5 0.275,0 -0.55688,1.125 -1.84863,2.5 -1.29175,1.375 -2.57363,2.5 -2.84863,2.5 -0.275,0 0.55688,-1.125 1.84863,-2.5 z m 352.8125,-0.1831 c 0.72187,-0.2889 1.58438,-0.2534 1.91667,0.079 0.33229,0.3323 -0.25834,0.5687 -1.3125,0.5253 -1.16495,-0.048 -1.4019,-0.285 -0.60417,-0.6042 z m 19,0 c 0.72187,-0.2889 1.58438,-0.2534 1.91667,0.079 0.33229,0.3323 -0.25834,0.5687 -1.3125,0.5253 -1.16495,-0.048 -1.4019,-0.285 -0.60417,-0.6042 z M 737.43709,1482.75 734.5,1479.5 l 3.25,2.9371 c 3.02946,2.7378 3.70965,3.5629 2.93709,3.5629 -0.1721,0 -1.6346,-1.4625 -3.25,-3.25 z M 849,1479.5 c 1.86578,-1.925 3.61733,-3.5 3.89233,-3.5 0.275,0 -1.02655,1.575 -2.89233,3.5 -1.86578,1.925 -3.61733,3.5 -3.89233,3.5 -0.275,0 1.02655,-1.575 2.89233,-3.5 z m 149.8125,-8.1831 c 0.72187,-0.2889 1.5844,-0.2534 1.9167,0.079 0.3323,0.3323 -0.2584,0.5687 -1.31253,0.5253 -1.16495,-0.048 -1.4019,-0.285 -0.60417,-0.6042 z m 274,-33 c 0.7219,-0.2889 1.5844,-0.2534 1.9167,0.079 0.3323,0.3323 -0.2584,0.5687 -1.3125,0.5253 -1.165,-0.048 -1.4019,-0.285 -0.6042,-0.6042 z M 275,1386.6224 c 0,-0.2076 0.7875,-0.9951 1.75,-1.75 1.58606,-1.2438 1.62143,-1.2085 0.37756,0.3776 -1.30637,1.6657 -2.12756,2.1955 -2.12756,1.3724 z m 667.07895,-6.2057 c 0.048,-1.165 0.28494,-1.4019 0.60416,-0.6042 0.28887,0.7219 0.25335,1.5844 -0.0789,1.9167 -0.33229,0.3323 -0.56864,-0.2584 -0.52522,-1.3125 z M 1440,1369.6224 c 0,-0.2076 0.7875,-0.9951 1.75,-1.75 1.5861,-1.2438 1.6214,-1.2085 0.3776,0.3776 -1.3064,1.6657 -2.1276,2.1955 -2.1276,1.3724 z m -1144,-4 c 0,-0.2076 0.7875,-0.9951 1.75,-1.75 1.58606,-1.2438 1.62143,-1.2085 0.37756,0.3776 -1.30637,1.6657 -2.12756,2.1955 -2.12756,1.3724 z m 1287.8125,-0.3055 c 0.7219,-0.2889 1.5844,-0.2534 1.9167,0.079 0.3323,0.3323 -0.2584,0.5687 -1.3125,0.5253 -1.165,-0.048 -1.4019,-0.285 -0.6042,-0.6042 z m 7.9375,0.021 c 0.6875,-0.2774 1.8125,-0.2774 2.5,0 0.6875,0.2774 0.125,0.5044 -1.25,0.5044 -1.375,0 -1.9375,-0.227 -1.25,-0.5044 z m -776.9375,-1.0208 c 0.72187,-0.2889 1.58438,-0.2534 1.91667,0.079 0.33229,0.3323 -0.25834,0.5687 -1.3125,0.5253 -1.16495,-0.048 -1.4019,-0.285 -0.60417,-0.6042 z m -213.73355,-4.9002 c 0.048,-1.165 0.28494,-1.4019 0.60416,-0.6042 0.28887,0.7219 0.25335,1.5844 -0.0789,1.9167 -0.33229,0.3323 -0.56864,-0.2584 -0.52522,-1.3125 z M 1293,1356.6224 c 0,-0.2076 0.7875,-0.9951 1.75,-1.75 1.5861,-1.2438 1.6214,-1.2085 0.3776,0.3776 -1.3064,1.6657 -2.1276,2.1955 -2.1276,1.3724 z m -1118,-7 c 0,-0.2076 0.7875,-0.9951 1.75,-1.75 1.58606,-1.2438 1.62143,-1.2085 0.37756,0.3776 -1.30637,1.6657 -2.12756,2.1955 -2.12756,1.3724 z M 602.27236,1340 c 0,-2.475 0.19502,-3.4875 0.43337,-2.25 0.23836,1.2375 0.23836,3.2625 0,4.5 -0.23835,1.2375 -0.43337,0.225 -0.43337,-2.25 z M 1305,1343.6224 c 0,-0.2076 0.7875,-0.9951 1.75,-1.75 1.5861,-1.2438 1.6214,-1.2085 0.3776,0.3776 -1.3064,1.6657 -2.1276,2.1955 -2.1276,1.3724 z M 1051.5,1334 c 0.9955,-1.1 2.035,-2 2.31,-2 0.275,0 -0.3145,0.9 -1.31,2 -0.9955,1.1 -2.035,2 -2.31,2 -0.275,0 0.3145,-0.9 1.31,-2 z m -109.42105,-2.5833 c 0.048,-1.165 0.28494,-1.4019 0.60416,-0.6042 0.28887,0.7219 0.25335,1.5844 -0.0789,1.9167 -0.33229,0.3323 -0.56864,-0.2584 -0.52522,-1.3125 z M 1315,1332.6224 c 0,-0.2076 0.7875,-0.9951 1.75,-1.75 1.5861,-1.2438 1.6214,-1.2085 0.3776,0.3776 -1.3064,1.6657 -2.1276,2.1955 -2.1276,1.3724 z M 1355.5,1325 c 3.2656,-3.3 6.1624,-6 6.4374,-6 0.275,0 -2.1718,2.7 -5.4374,6 -3.2656,3.3 -6.1624,6 -6.4374,6 -0.275,0 2.1718,-2.7 5.4374,-6 z m -843.42105,-0.5833 c 0.048,-1.165 0.28494,-1.4019 0.60416,-0.6042 0.28887,0.7219 0.25335,1.5844 -0.0789,1.9167 -0.33229,0.3323 -0.56864,-0.2584 -0.52522,-1.3125 z m 533.99995,-2 c 0.048,-1.165 0.285,-1.4019 0.6042,-0.6042 0.2889,0.7219 0.2534,1.5844 -0.079,1.9167 -0.3323,0.3323 -0.5687,-0.2584 -0.5253,-1.3125 z M 1324,1322.6224 c 0,-0.2076 0.7875,-0.9951 1.75,-1.75 1.5861,-1.2438 1.6214,-1.2085 0.3776,0.3776 -1.3064,1.6657 -2.1276,2.1955 -2.1276,1.3724 z M 602.27236,1316 c 0,-2.475 0.19502,-3.4875 0.43337,-2.25 0.23836,1.2375 0.23836,3.2625 0,4.5 -0.23835,1.2375 -0.43337,0.225 -0.43337,-2.25 z m 340.80659,2.4167 c 0.048,-1.165 0.28494,-1.4019 0.60416,-0.6042 0.28887,0.7219 0.25335,1.5844 -0.0789,1.9167 -0.33229,0.3323 -0.56864,-0.2584 -0.52522,-1.3125 z M 671.15789,1303 c 0,-1.375 0.22698,-1.9375 0.50439,-1.25 0.27741,0.6875 0.27741,1.8125 0,2.5 -0.27741,0.6875 -0.50439,0.125 -0.50439,-1.25 z m -70.07894,-6.5833 c 0.048,-1.165 0.28494,-1.4019 0.60416,-0.6042 0.28887,0.7219 0.25335,1.5844 -0.0789,1.9167 -0.33229,0.3323 -0.56864,-0.2584 -0.52522,-1.3125 z M 1046.1579,1296 c 0,-1.375 0.227,-1.9375 0.5044,-1.25 0.2774,0.6875 0.2774,1.8125 0,2.5 -0.2774,0.6875 -0.5044,0.125 -0.5044,-1.25 z m -258.00001,-2 c 0,-1.375 0.22698,-1.9375 0.50439,-1.25 0.27741,0.6875 0.27741,1.8125 0,2.5 -0.27741,0.6875 -0.50439,0.125 -0.50439,-1.25 z m 745.92101,-1.5833 c 0.048,-1.165 0.285,-1.4019 0.6042,-0.6042 0.2889,0.7219 0.2534,1.5844 -0.079,1.9167 -0.3323,0.3323 -0.5687,-0.2584 -0.5253,-1.3125 z M 1743,1291.6224 c 0,-0.2076 0.7875,-0.9951 1.75,-1.75 1.5861,-1.2438 1.6214,-1.2085 0.3776,0.3776 -1.3064,1.6657 -2.1276,2.1955 -2.1276,1.3724 z M 512.07895,1281.4167 c 0.048,-1.165 0.28494,-1.4019 0.60416,-0.6042 0.28887,0.7219 0.25335,1.5844 -0.0789,1.9167 -0.33229,0.3323 -0.56864,-0.2584 -0.52522,-1.3125 z M 671.15789,1268 c 0,-1.375 0.22698,-1.9375 0.50439,-1.25 0.27741,0.6875 0.27741,1.8125 0,2.5 -0.27741,0.6875 -0.50439,0.125 -0.50439,-1.25 z M 1671,1257.5 c 1.2917,-1.375 2.5736,-2.5 2.8486,-2.5 0.275,0 -0.5569,1.125 -1.8486,2.5 -1.2917,1.375 -2.5736,2.5 -2.8486,2.5 -0.275,0 0.5569,-1.125 1.8486,-2.5 z m -998.92105,-2.0833 c 0.048,-1.165 0.28494,-1.4019 0.60416,-0.6042 0.28887,0.7219 0.25335,1.5844 -0.0789,1.9167 -0.33229,0.3323 -0.56864,-0.2584 -0.52522,-1.3125 z M 1494.3428,1247.5 c 0,-4.4 0.1795,-6.0756 0.3907,-3.7236 0.2112,2.3521 0.2083,5.9521 -0.01,8 -0.2149,2.048 -0.3877,0.1236 -0.3841,-4.2764 z M 788.15789,1246 c 0,-1.375 0.22698,-1.9375 0.50439,-1.25 0.27741,0.6875 0.27741,1.8125 0,2.5 -0.27741,0.6875 -0.50439,0.125 -0.50439,-1.25 z m 609.14181,-7 c 0,-3.025 0.1874,-4.2625 0.4166,-2.75 0.2291,1.5125 0.2291,3.9875 0,5.5 -0.2292,1.5125 -0.4166,0.275 -0.4166,-2.75 z m -608.22075,-5.5833 c 0.048,-1.165 0.28494,-1.4019 0.60416,-0.6042 0.28887,0.7219 0.25335,1.5844 -0.0789,1.9167 -0.33229,0.3323 -0.56864,-0.2584 -0.52522,-1.3125 z m 703.99995,-6 c 0.048,-1.165 0.285,-1.4019 0.6042,-0.6042 0.2889,0.7219 0.2534,1.5844 -0.079,1.9167 -0.3323,0.3323 -0.5687,-0.2584 -0.5253,-1.3125 z M 1802.2522,1176.5 c 0.011,-2.2 0.2159,-2.9823 0.4551,-1.7383 0.2392,1.2439 0.2301,3.0439 -0.02,4 -0.2503,0.956 -0.446,-0.062 -0.4349,-2.2617 z m -96.9423,-6 c 0.01,-3.3 0.1923,-4.5294 0.4148,-2.7321 0.2226,1.7974 0.218,4.4974 -0.01,6 -0.2281,1.5027 -0.4102,0.032 -0.4046,-3.2679 z M 1675,1155.6224 c 0,-0.2076 0.7875,-0.9951 1.75,-1.75 1.5861,-1.2438 1.6214,-1.2085 0.3776,0.3776 -1.3064,1.6657 -2.1276,2.1955 -2.1276,1.3724 z m 515.8724,-9.3724 c -1.2438,-1.5861 -1.2085,-1.6214 0.3776,-0.3776 0.9625,0.7549 1.75,1.5424 1.75,1.75 0,0.8231 -0.8212,0.2933 -2.1276,-1.3724 z M 1615,1137.6224 c 0,-0.2076 0.7875,-0.9951 1.75,-1.75 1.5861,-1.2438 1.6214,-1.2085 0.3776,0.3776 -1.3064,1.6657 -2.1276,2.1955 -2.1276,1.3724 z m 78,0 c 0,-0.2076 0.7875,-0.9951 1.75,-1.75 1.5861,-1.2438 1.6214,-1.2085 0.3776,0.3776 -1.3064,1.6657 -2.1276,2.1955 -2.1276,1.3724 z m -49,-29 c 0,-0.2076 0.7875,-0.9951 1.75,-1.75 1.5861,-1.2438 1.6214,-1.2085 0.3776,0.3776 -1.3064,1.6657 -2.1276,2.1955 -2.1276,1.3724 z M 493.87244,1091.25 c -1.24387,-1.5861 -1.2085,-1.6214 0.37756,-0.3776 1.66575,1.3064 2.19548,2.1276 1.37244,2.1276 -0.20765,0 -0.99515,-0.7875 -1.75,-1.75 z m -10,-9 c -1.24387,-1.5861 -1.2085,-1.6214 0.37756,-0.3776 0.9625,0.7549 1.75,1.5424 1.75,1.75 0,0.8231 -0.82119,0.2933 -2.12756,-1.3724 z m 1495.94006,-21.9331 c 0.7219,-0.2889 1.5844,-0.2534 1.9167,0.079 0.3323,0.3323 -0.2584,0.5687 -1.3125,0.5253 -1.165,-0.048 -1.4019,-0.285 -0.6042,-0.6042 z m -64.5435,-1.0099 c 0.973,-0.2535 2.323,-0.2369 3,0.037 0.6771,0.2739 -0.119,0.4813 -1.769,0.461 -1.65,-0.02 -2.2039,-0.2445 -1.231,-0.4981 z m 47,0 c 0.973,-0.2535 2.323,-0.2369 3,0.037 0.6771,0.2739 -0.119,0.4813 -1.769,0.461 -1.65,-0.02 -2.2039,-0.2445 -1.231,-0.4981 z M 1029,1012.6224 c 0,-0.2076 0.7875,-0.9951 1.75,-1.75 1.5861,-1.2438 1.6214,-1.2085 0.3776,0.3776 -1.3064,1.6657 -2.1276,2.1955 -2.1276,1.3724 z M 888.5,997 c 0.99549,-1.1 2.03498,-2 2.30998,-2 0.275,0 -0.31449,0.9 -1.30998,2 -0.99549,1.1 -2.03498,2 -2.30998,2 -0.275,0 0.31449,-0.9 1.30998,-2 z m 10,-10 c 0.99549,-1.1 2.03498,-2 2.30998,-2 0.275,0 -0.31449,0.9 -1.30998,2 -0.99549,1.1 -2.03498,2 -2.30998,2 -0.275,0 0.31449,-0.9 1.30998,-2 z m 1104.3125,-2.68311 c 0.7219,-0.28887 1.5844,-0.25335 1.9167,0.0789 0.3323,0.33229 -0.2584,0.56864 -1.3125,0.52522 -1.165,-0.048 -1.4019,-0.28494 -0.6042,-0.60416 z m -59.5435,-1.00988 c 0.973,-0.25354 2.323,-0.23687 3,0.0371 0.6771,0.27393 -0.119,0.48137 -1.769,0.46099 -1.65,-0.0204 -2.2039,-0.2445 -1.231,-0.49804 z m 43,0 c 0.973,-0.25354 2.323,-0.23687 3,0.0371 0.6771,0.27393 -0.119,0.48137 -1.769,0.46099 -1.65,-0.0204 -2.2039,-0.2445 -1.231,-0.49804 z M 972.07895,972.41667 c 0.048,-1.16495 0.28494,-1.4019 0.60416,-0.60417 0.28887,0.72187 0.25335,1.58438 -0.0789,1.91667 -0.33229,0.33229 -0.56864,-0.25834 -0.52522,-1.3125 z M 1034.3099,962.5 c 0.01,-3.3 0.1923,-4.52944 0.4148,-2.73209 0.2226,1.79735 0.218,4.49735 -0.01,6 -0.2281,1.50265 -0.4102,0.0321 -0.4046,-3.26791 z M 786,966.62244 c 0,-0.20765 0.7875,-0.99515 1.75,-1.75 1.58606,-1.24387 1.62143,-1.2085 0.37756,0.37756 C 786.82119,966.91575 786,967.44548 786,966.62244 Z M 151.87244,953.25 c -1.24387,-1.58606 -1.2085,-1.62143 0.37756,-0.37756 1.66575,1.30637 2.19548,2.12756 1.37244,2.12756 -0.20765,0 -0.99515,-0.7875 -1.75,-1.75 z m -10,-9 c -1.24387,-1.58606 -1.2085,-1.62143 0.37756,-0.37756 0.9625,0.75485 1.75,1.54235 1.75,1.75 0,0.82304 -0.82119,0.29331 -2.12756,-1.37244 z M 1397.1949,943.5 c 0.02,-1.65 0.2445,-2.20394 0.4981,-1.23097 0.2535,0.97297 0.2369,2.32297 -0.037,3 -0.2739,0.67703 -0.4813,-0.11903 -0.461,-1.76903 z M 809,943.62244 c 0,-0.20765 0.7875,-0.99515 1.75,-1.75 1.58606,-1.24387 1.62143,-1.2085 0.37756,0.37756 C 809.82119,943.91575 809,944.44548 809,943.62244 Z M 117.98025,921.25 108.5,911.5 l 9.75,9.48025 C 127.3057,929.78541 128.45489,931 127.73025,931 c -0.14836,0 -4.53586,-4.3875 -9.75,-9.75 z m 1279.21465,1.25 c 0.02,-1.65 0.2445,-2.20394 0.4981,-1.23097 0.2535,0.97297 0.2369,2.32297 -0.037,3 -0.2739,0.67703 -0.4813,-0.11903 -0.461,-1.76903 z M 285.87244,922.25 c -1.24387,-1.58606 -1.2085,-1.62143 0.37756,-0.37756 0.9625,0.75485 1.75,1.54235 1.75,1.75 0,0.82304 -0.82119,0.29331 -2.12756,-1.37244 z m -12.94813,-12 -2.42431,-2.75 2.75,2.42431 c 2.57029,2.26589 3.20859,3.07569 2.42431,3.07569 -0.17912,0 -1.41662,-1.2375 -2.75,-2.75 z m -23.51932,-23.5 -1.90499,-2.25 2.25,1.90499 c 1.2375,1.04774 2.25,2.06024 2.25,2.25 0,0.80025 -0.80479,0.20945 -2.59501,-1.90499 z M 1705.1579,876 c 0,-1.375 0.227,-1.9375 0.5044,-1.25 0.2774,0.6875 0.2774,1.8125 0,2.5 -0.2774,0.6875 -0.5044,0.125 -0.5044,-1.25 z m -756.3454,-9.68311 c 0.72187,-0.28887 1.58438,-0.25335 1.91667,0.0789 0.33229,0.33229 -0.25834,0.56864 -1.3125,0.52522 -1.16495,-0.048 -1.4019,-0.28494 -0.60417,-0.60416 z M 1705.1579,854 c 0,-1.375 0.227,-1.9375 0.5044,-1.25 0.2774,0.6875 0.2774,1.8125 0,2.5 -0.2774,0.6875 -0.5044,0.125 -0.5044,-1.25 z M 759.26903,786.30701 c 0.97297,-0.25354 2.32297,-0.23687 3,0.0371 0.67703,0.27393 -0.11903,0.48137 -1.76903,0.46099 -1.65,-0.0204 -2.20394,-0.2445 -1.23097,-0.49804 z m 65,0 c 0.97297,-0.25354 2.32297,-0.23687 3,0.0371 0.67703,0.27393 -0.11903,0.48137 -1.76903,0.46099 -1.65,-0.0204 -2.20394,-0.2445 -1.23097,-0.49804 z M 840.75,785.33772 c 0.6875,-0.27741 1.8125,-0.27741 2.5,0 0.6875,0.27741 0.125,0.50439 -1.25,0.50439 -1.375,0 -1.9375,-0.22698 -1.25,-0.50439 z m 13.0625,-1.02083 c 0.72187,-0.28887 1.58438,-0.25335 1.91667,0.0789 0.33229,0.33229 -0.25834,0.56864 -1.3125,0.52522 -1.16495,-0.048 -1.4019,-0.28494 -0.60417,-0.60416 z m 487,-2 c 0.7219,-0.28887 1.5844,-0.25335 1.9167,0.0789 0.3323,0.33229 -0.2584,0.56864 -1.3125,0.52522 -1.165,-0.048 -1.4019,-0.28494 -0.6042,-0.60416 z m 12.4565,-1.00988 c 0.973,-0.25354 2.323,-0.23687 3,0.0371 0.6771,0.27393 -0.119,0.48137 -1.769,0.46099 -1.65,-0.0204 -2.2039,-0.2445 -1.231,-0.49804 z M 172.19495,727.5 c 0.0204,-1.65 0.2445,-2.20394 0.49804,-1.23097 0.25354,0.97297 0.23687,2.32297 -0.0371,3 -0.27393,0.67703 -0.48137,-0.11903 -0.46099,-1.76903 z M 565.92431,714.25 563.5,711.5 l 2.75,2.42431 c 1.5125,1.33338 2.75,2.57088 2.75,2.75 0,0.78428 -0.8098,0.14598 -3.07569,-2.42431 z M 1660.75,713.33772 c 0.6875,-0.27741 1.8125,-0.27741 2.5,0 0.6875,0.27741 0.125,0.50439 -1.25,0.50439 -1.375,0 -1.9375,-0.22698 -1.25,-0.50439 z M 172.19495,709.5 c 0.0204,-1.65 0.2445,-2.20394 0.49804,-1.23097 0.25354,0.97297 0.23687,2.32297 -0.0371,3 -0.27393,0.67703 -0.48137,-0.11903 -0.46099,-1.76903 z M 726.25,709.31067 c 0.9625,-0.25152 2.5375,-0.25152 3.5,0 0.9625,0.25153 0.175,0.45733 -1.75,0.45733 -1.925,0 -2.7125,-0.2058 -1.75,-0.45733 z m 28,0 c 0.9625,-0.25152 2.5375,-0.25152 3.5,0 0.9625,0.25153 0.175,0.45733 -1.75,0.45733 -1.925,0 -2.7125,-0.2058 -1.75,-0.45733 z m 19.5625,-0.99378 c 0.72187,-0.28887 1.58438,-0.25335 1.91667,0.0789 0.33229,0.33229 -0.25834,0.56864 -1.3125,0.52522 -1.16495,-0.048 -1.4019,-0.28494 -0.60417,-0.60416 z M 557.40499,705.75 555.5,703.5 l 2.25,1.90499 c 1.2375,1.04774 2.25,2.06024 2.25,2.25 0,0.80025 -0.80479,0.20945 -2.59501,-1.90499 z M 525.15789,644 c 0,-1.375 0.22698,-1.9375 0.50439,-1.25 0.27741,0.6875 0.27741,1.8125 0,2.5 -0.27741,0.6875 -0.50439,0.125 -0.50439,-1.25 z M 551,638.5 c -2.42903,-2.475 -4.19142,-4.5 -3.91642,-4.5 0.275,0 2.48739,2.025 4.91642,4.5 2.42903,2.475 4.19142,4.5 3.91642,4.5 -0.275,0 -2.48739,-2.025 -4.91642,-4.5 z m 718,-22.87756 c 0,-0.20765 0.7875,-0.99515 1.75,-1.75 1.5861,-1.24387 1.6214,-1.2085 0.3776,0.37756 -1.3064,1.66575 -2.1276,2.19548 -2.1276,1.37244 z m 38,-38 c 0,-0.20765 0.7875,-0.99515 1.75,-1.75 1.5861,-1.24387 1.6214,-1.2085 0.3776,0.37756 -1.3064,1.66575 -2.1276,2.19548 -2.1276,1.37244 z M 1189,529.5 c 1.2917,-1.375 2.5736,-2.5 2.8486,-2.5 0.275,0 -0.5569,1.125 -1.8486,2.5 -1.2917,1.375 -2.5736,2.5 -2.8486,2.5 -0.275,0 0.5569,-1.125 1.8486,-2.5 z m 22.5,-22.5 c 0.9955,-1.1 2.035,-2 2.31,-2 0.275,0 -0.3145,0.9 -1.31,2 -0.9955,1.1 -2.035,2 -2.31,2 -0.275,0 0.3145,-0.9 1.31,-2 z m -921,-29 c 6.03124,-6.05 11.19089,-11 11.46589,-11 0.275,0 -4.43465,4.95 -10.46589,11 -6.03124,6.05 -11.19089,11 -11.46589,11 -0.275,0 4.43465,-4.95 10.46589,-11 z M 314,455.62244 c 0,-0.20765 0.7875,-0.99515 1.75,-1.75 1.58606,-1.24387 1.62143,-1.2085 0.37756,0.37756 C 314.82119,455.91575 314,456.44548 314,455.62244 Z m -180,-35 c 0,-0.20765 0.7875,-0.99515 1.75,-1.75 1.58606,-1.24387 1.62143,-1.2085 0.37756,0.37756 C 134.82119,420.91575 134,421.44548 134,420.62244 Z M 145.5,408 c 0.99549,-1.1 2.03498,-2 2.30998,-2 0.275,0 -0.31449,0.9 -1.30998,2 -0.99549,1.1 -2.03498,2 -2.30998,2 -0.275,0 0.31449,-0.9 1.30998,-2 z m 47,-47 c 0.99549,-1.1 2.03498,-2 2.30998,-2 0.275,0 -0.31449,0.9 -1.30998,2 -0.99549,1.1 -2.03498,2 -2.30998,2 -0.275,0 0.31449,-0.9 1.30998,-2 z m 1244.6579,-60 c 0,-1.375 0.227,-1.9375 0.5044,-1.25 0.2774,0.6875 0.2774,1.8125 0,2.5 -0.2774,0.6875 -0.5044,0.125 -0.5044,-1.25 z m 0,-39 c 0,-1.375 0.227,-1.9375 0.5044,-1.25 0.2774,0.6875 0.2774,1.8125 0,2.5 -0.2774,0.6875 -0.5044,0.125 -0.5044,-1.25 z M 1004.8125,140.31689 c 0.7219,-0.28887 1.5844,-0.25335 1.9167,0.0789 0.3323,0.33229 -0.2584,0.56864 -1.3125,0.52522 -1.165,-0.048 -1.4019,-0.28494 -0.6042,-0.60416 z m 103,0 c 0.7219,-0.28887 1.5844,-0.25335 1.9167,0.0789 0.3323,0.33229 -0.2584,0.56864 -1.3125,0.52522 -1.165,-0.048 -1.4019,-0.28494 -0.6042,-0.60416 z m -88.5435,-1.00988 c 0.973,-0.25354 2.323,-0.23687 3,0.0371 0.6771,0.27393 -0.119,0.48137 -1.769,0.46099 -1.65,-0.0204 -2.2039,-0.2445 -1.231,-0.49804 z m 74.481,0.0307 c 0.6875,-0.27741 1.8125,-0.27741 2.5,0 0.6875,0.27741 0.125,0.50439 -1.25,0.50439 -1.375,0 -1.9375,-0.22698 -1.25,-0.50439 z m -44.5506,-1.08155 c 4.7847,-0.18291 12.8847,-0.18377 18,-0.002 5.1153,0.18186 1.2006,0.33151 -8.6994,0.33256 -9.9,10e-4 -14.0853,-0.14774 -9.3006,-0.33065 z M 1374.9243,113.25 1372.5,110.5 l 2.75,2.42431 c 1.5125,1.33338 2.75,2.57088 2.75,2.75 0,0.78428 -0.8098,0.14598 -3.0757,-2.42431 z m -9,-9 -2.4243,-2.75 2.75,2.42431 c 1.5125,1.33338 2.75,2.57088 2.75,2.75 0,0.78428 -0.8098,0.14598 -3.0757,-2.42431 z M 964.8125,2.316886 c 0.72187,-0.2888706 1.58438,-0.2533443 1.91667,0.078947 0.33229,0.3322917 -0.25834,0.5686404 -1.3125,0.5252193 -1.16495,-0.047984 -1.4019,-0.2849403 -0.60417,-0.6041663 z m 135,0 c 0.7219,-0.2888706 1.5844,-0.2533443 1.9167,0.078947 0.3323,0.3322917 -0.2584,0.5686404 -1.3125,0.5252193 -1.165,-0.047984 -1.4019,-0.2849403 -0.6042,-0.6041663 z M 977.75,1.3377193 c 0.6875,-0.2774123 1.8125,-0.2774123 2.5,0 0.6875,0.2774123 0.125,0.504386 -1.25,0.504386 -1.375,0 -1.9375,-0.2269737 -1.25,-0.504386 z m 109,0 c 0.6875,-0.2774123 1.8125,-0.2774123 2.5,0 0.6875,0.2774123 0.125,0.504386 -1.25,0.504386 -1.375,0 -1.9375,-0.2269737 -1.25,-0.504386 z M 995.26903,0.30700928 c 0.97297,-0.25354341 2.32297,-0.23686912 3,0.037054 C 998.94606,0.61798638 998.15,0.82543099 996.5,0.8050513 994.85,0.7846716 994.29606,0.56055271 995.26903,0.30700928 Z m 74.99997,0 c 0.973,-0.25354341 2.323,-0.23686912 3,0.037054 0.6771,0.2739231 -0.119,0.48136771 -1.769,0.46098802 -1.65,-0.0203797 -2.2039,-0.24449859 -1.231,-0.49804202 z"
       style="fill:#f0d8e5" />
    <path
       id="path829"
       d="m 479,1614.6224 c 0,-0.2076 0.7875,-0.9951 1.75,-1.75 1.58606,-1.2438 1.62143,-1.2085 0.37756,0.3776 -1.30637,1.6657 -2.12756,2.1955 -2.12756,1.3724 z m 22,-22 c 0,-0.2076 0.7875,-0.9951 1.75,-1.75 1.58606,-1.2438 1.62143,-1.2085 0.37756,0.3776 -1.30637,1.6657 -2.12756,2.1955 -2.12756,1.3724 z M 968.43709,1456.75 965.5,1453.5 l 3.25,2.9371 c 1.7875,1.6154 3.25,3.0779 3.25,3.25 0,0.7726 -0.82513,0.092 -3.56291,-2.9371 z M 145,1379.6224 c 0,-0.2076 0.7875,-0.9951 1.75,-1.75 1.58606,-1.2438 1.62143,-1.2085 0.37756,0.3776 -1.30637,1.6657 -2.12756,2.1955 -2.12756,1.3724 z M 1446.9582,1362.75 c 4.144,-4.4152 5.0418,-5.2091 5.0418,-4.4582 0,0.1605 -2.1375,2.298 -4.75,4.75 l -4.75,4.4582 z M 1290,1359.6224 c 0,-0.2076 0.7875,-0.9951 1.75,-1.75 1.5861,-1.2438 1.6214,-1.2085 0.3776,0.3776 -1.3064,1.6657 -2.1276,2.1955 -2.1276,1.3724 z m -1118,-7 c 0,-0.2076 0.7875,-0.9951 1.75,-1.75 1.58606,-1.2438 1.62143,-1.2085 0.37756,0.3776 -1.30637,1.6657 -2.12756,2.1955 -2.12756,1.3724 z m 1130,-6 c 0,-0.2076 0.7875,-0.9951 1.75,-1.75 1.5861,-1.2438 1.6214,-1.2085 0.3776,0.3776 -1.3064,1.6657 -2.1276,2.1955 -2.1276,1.3724 z M 2198.5,1328 c 0.9955,-1.1 2.035,-2 2.31,-2 0.275,0 -0.3145,0.9 -1.31,2 -0.9955,1.1 -2.035,2 -2.31,2 -0.275,0 0.3145,-0.9 1.31,-2 z m -451,-41 c 0.9955,-1.1 2.035,-2 2.31,-2 0.275,0 -0.3145,0.9 -1.31,2 -0.9955,1.1 -2.035,2 -2.31,2 -0.275,0 0.3145,-0.9 1.31,-2 z m 10,-10 c 0.9955,-1.1 2.035,-2 2.31,-2 0.275,0 -0.3145,0.9 -1.31,2 -0.9955,1.1 -2.035,2 -2.31,2 -0.275,0 0.3145,-0.9 1.31,-2 z m -91.5,-14.3776 c 0,-0.2076 0.7875,-0.9951 1.75,-1.75 1.5861,-1.2438 1.6214,-1.2085 0.3776,0.3776 -1.3064,1.6657 -2.1276,2.1955 -2.1276,1.3724 z m -48,-128 c 0,-0.2076 0.7875,-0.9951 1.75,-1.75 1.5861,-1.2438 1.6214,-1.2085 0.3776,0.3776 -1.3064,1.6657 -2.1276,2.1955 -2.1276,1.3724 z M 526.87244,1124.25 c -1.24387,-1.5861 -1.2085,-1.6214 0.37756,-0.3776 0.9625,0.7549 1.75,1.5424 1.75,1.75 0,0.8231 -0.82119,0.2933 -2.12756,-1.3724 z M 1641.5,1111 c 0.9955,-1.1 2.035,-2 2.31,-2 0.275,0 -0.3145,0.9 -1.31,2 -0.9955,1.1 -2.035,2 -2.31,2 -0.275,0 0.3145,-0.9 1.31,-2 z M 497.40499,1094.75 495.5,1092.5 l 2.25,1.905 c 2.11444,1.7902 2.70524,2.595 1.90499,2.595 -0.18976,0 -1.20226,-1.0125 -2.25,-2.25 z M 791,961.5 c 1.29175,-1.375 2.57363,-2.5 2.84863,-2.5 0.275,0 -0.55688,1.125 -1.84863,2.5 -1.29175,1.375 -2.57363,2.5 -2.84863,2.5 -0.275,0 0.55688,-1.125 1.84863,-2.5 z m 15,-15 c 1.29175,-1.375 2.57363,-2.5 2.84863,-2.5 0.275,0 -0.55688,1.125 -1.84863,2.5 -1.29175,1.375 -2.57363,2.5 -2.84863,2.5 -0.275,0 0.55688,-1.125 1.84863,-2.5 z m -667.12756,-5.25 c -1.24387,-1.58606 -1.2085,-1.62143 0.37756,-0.37756 0.9625,0.75485 1.75,1.54235 1.75,1.75 0,0.82304 -0.82119,0.29331 -2.12756,-1.37244 z m 138,-27 c -1.24387,-1.58606 -1.2085,-1.62143 0.37756,-0.37756 0.9625,0.75485 1.75,1.54235 1.75,1.75 0,0.82304 -0.82119,0.29331 -2.12756,-1.37244 z m -177.999995,-13 c -1.243871,-1.58606 -1.208501,-1.62143 0.377555,-0.37756 1.66575,1.30637 2.19548,2.12756 1.37244,2.12756 -0.20765,0 -0.995151,-0.7875 -1.749995,-1.75 z m 910.564655,-16.5 -2.9371,-3.25 3.25,2.93709 c 3.0295,2.73778 3.7097,3.56291 2.9371,3.56291 -0.1721,0 -1.6346,-1.4625 -3.25,-3.25 z m -763.56466,-1.5 c -1.24387,-1.58606 -1.2085,-1.62143 0.37756,-0.37756 1.66575,1.30637 2.19548,2.12756 1.37244,2.12756 -0.20765,0 -0.99515,-0.7875 -1.75,-1.75 z M 1286,799.62244 c 0,-0.20765 0.7875,-0.99515 1.75,-1.75 1.5861,-1.24387 1.6214,-1.2085 0.3776,0.37756 -1.3064,1.66575 -2.1276,2.19548 -2.1276,1.37244 z M 561.40499,709.75 559.5,707.5 l 2.25,1.90499 c 1.2375,1.04774 2.25,2.06024 2.25,2.25 0,0.80025 -0.80479,0.20945 -2.59501,-1.90499 z m 2,-58 -1.90499,-2.25 2.25,1.90499 c 2.11444,1.79022 2.70524,2.59501 1.90499,2.59501 -0.18976,0 -1.20226,-1.0125 -2.25,-2.25 z M 1272,612.62244 c 0,-0.20765 0.7875,-0.99515 1.75,-1.75 1.5861,-1.24387 1.6214,-1.2085 0.3776,0.37756 -1.3064,1.66575 -2.1276,2.19548 -2.1276,1.37244 z m 32,-32 c 0,-0.20765 0.7875,-0.99515 1.75,-1.75 1.5861,-1.24387 1.6214,-1.2085 0.3776,0.37756 -1.3064,1.66575 -2.1276,2.19548 -2.1276,1.37244 z m -120,-46 c 0,-0.20765 0.7875,-0.99515 1.75,-1.75 1.5861,-1.24387 1.6214,-1.2085 0.3776,0.37756 -1.3064,1.66575 -2.1276,2.19548 -2.1276,1.37244 z m 30,-30 c 0,-0.20765 0.7875,-0.99515 1.75,-1.75 1.5861,-1.24387 1.6214,-1.2085 0.3776,0.37756 -1.3064,1.66575 -2.1276,2.19548 -2.1276,1.37244 z M 277.5,491 c 0.99549,-1.1 2.03498,-2 2.30998,-2 0.275,0 -0.31449,0.9 -1.30998,2 -0.99549,1.1 -2.03498,2 -2.30998,2 -0.275,0 0.31449,-0.9 1.30998,-2 z M 304,464.5 c 1.29175,-1.375 2.57363,-2.5 2.84863,-2.5 0.275,0 -0.55688,1.125 -1.84863,2.5 -1.29175,1.375 -2.57363,2.5 -2.84863,2.5 -0.275,0 0.55688,-1.125 1.84863,-2.5 z M 149.5,404 c 0.99549,-1.1 2.03498,-2 2.30998,-2 0.275,0 -0.31449,0.9 -1.30998,2 -0.99549,1.1 -2.03498,2 -2.30998,2 -0.275,0 0.31449,-0.9 1.30998,-2 z m 39,-39 c 0.99549,-1.1 2.03498,-2 2.30998,-2 0.275,0 -0.31449,0.9 -1.30998,2 -0.99549,1.1 -2.03498,2 -2.30998,2 -0.275,0 0.31449,-0.9 1.30998,-2 z M 201,353.62244 c 0,-0.20765 0.7875,-0.99515 1.75,-1.75 1.58606,-1.24387 1.62143,-1.2085 0.37756,0.37756 C 201.82119,353.91575 201,354.44548 201,353.62244 Z M 1279.9462,203.25 1276.5,199.5 l 3.75,3.44617 c 3.4904,3.20761 4.2098,4.05383 3.4462,4.05383 -0.1671,0 -1.8546,-1.6875 -3.75,-3.75 z m 90.4588,-94.5 -1.905,-2.25 2.25,1.90499 c 2.1144,1.79022 2.7052,2.59501 1.905,2.59501 -0.1898,0 -1.2023,-1.0125 -2.25,-2.25 z"
       style="fill:#e9c6d8" />
    <path
       id="path827"
       d="m 219.75,1710.3377 c 0.6875,-0.2774 1.8125,-0.2774 2.5,0 0.6875,0.2774 0.125,0.5044 -1.25,0.5044 -1.375,0 -1.9375,-0.227 -1.25,-0.5044 z m 40.0625,-0.021 c 0.72187,-0.2889 1.58438,-0.2534 1.91667,0.079 0.33229,0.3323 -0.25834,0.5687 -1.3125,0.5253 -1.16495,-0.048 -1.4019,-0.285 -0.60417,-0.6042 z m -185.733553,-139.9 c 0.04798,-1.165 0.284941,-1.4019 0.604167,-0.6042 0.288871,0.7219 0.253344,1.5844 -0.07895,1.9167 -0.332292,0.3323 -0.568641,-0.2584 -0.52522,-1.3125 z m 715.697483,-68.1502 c 2.35204,-0.2112 5.95204,-0.2083 8,0.01 2.04796,0.2149 0.12357,0.3877 -4.27643,0.3841 -4.4,0 -6.07561,-0.1795 -3.72357,-0.3907 z m 213.48727,-30.9841 c 1.5201,-0.2298 3.7701,-0.2237 5,0.014 1.23,0.2373 -0.014,0.4254 -2.7637,0.4179 -2.75,-0.01 -3.7563,-0.2017 -2.2363,-0.4316 z m 265.4863,-32.9447 c 0.6875,-0.2774 1.8125,-0.2774 2.5,0 0.6875,0.2774 0.125,0.5044 -1.25,0.5044 -1.375,0 -1.9375,-0.227 -1.25,-0.5044 z M 942.15789,1377 c 0,-1.375 0.22698,-1.9375 0.50439,-1.25 0.27741,0.6875 0.27741,1.8125 0,2.5 -0.27741,0.6875 -0.50439,0.125 -0.50439,-1.25 z m -342.07894,-8.5833 c 0.048,-1.165 0.28494,-1.4019 0.60416,-0.6042 0.28887,0.7219 0.25335,1.5844 -0.0789,1.9167 -0.33229,0.3323 -0.56864,-0.2584 -0.52522,-1.3125 z m 987.19005,-3.1097 c 0.973,-0.2535 2.323,-0.2369 3,0.037 0.6771,0.2739 -0.119,0.4813 -1.769,0.461 -1.65,-0.02 -2.2039,-0.2445 -1.231,-0.4981 z m -986.19005,-8.8903 c 0.048,-1.165 0.28494,-1.4019 0.60416,-0.6042 0.28887,0.7219 0.25335,1.5844 -0.0789,1.9167 -0.33229,0.3323 -0.56864,-0.2584 -0.52522,-1.3125 z M 942.15789,1336 c 0,-1.375 0.22698,-1.9375 0.50439,-1.25 0.27741,0.6875 0.27741,1.8125 0,2.5 -0.27741,0.6875 -0.50439,0.125 -0.50439,-1.25 z m -339.82168,-8 c 0,-4.125 0.17651,-5.8125 0.39226,-3.75 0.21574,2.0625 0.21574,5.4375 0,7.5 -0.21575,2.0625 -0.39226,0.375 -0.39226,-3.75 z m 340.74274,-6.5833 c 0.048,-1.165 0.28494,-1.4019 0.60416,-0.6042 0.28887,0.7219 0.25335,1.5844 -0.0789,1.9167 -0.33229,0.3323 -0.56864,-0.2584 -0.52522,-1.3125 z M 513.37407,1303.5 c 0.002,-6.05 0.16696,-8.3961 0.36601,-5.2135 0.19905,3.1826 0.1972,8.1326 -0.004,11 -0.20131,2.8674 -0.36417,0.2635 -0.36191,-5.7865 z m 158.70488,8.9167 c 0.048,-1.165 0.28494,-1.4019 0.60416,-0.6042 0.28887,0.7219 0.25335,1.5844 -0.0789,1.9167 -0.33229,0.3323 -0.56864,-0.2584 -0.52522,-1.3125 z m -71,-12 c 0.048,-1.165 0.28494,-1.4019 0.60416,-0.6042 0.28887,0.7219 0.25335,1.5844 -0.0789,1.9167 -0.33229,0.3323 -0.56864,-0.2584 -0.52522,-1.3125 z m 70.116,-2.9167 c 0.0204,-1.65 0.2445,-2.2039 0.49804,-1.231 0.25354,0.973 0.23687,2.323 -0.0371,3 -0.27393,0.6771 -0.48137,-0.119 -0.46099,-1.769 z m 116.884,-0.083 c 0.048,-1.165 0.28494,-1.4019 0.60416,-0.6042 0.28887,0.7219 0.25335,1.5844 -0.0789,1.9167 -0.33229,0.3323 -0.56864,-0.2584 -0.52522,-1.3125 z m 257.99995,-5 c 0.048,-1.165 0.285,-1.4019 0.6042,-0.6042 0.2889,0.7219 0.2534,1.5844 -0.079,1.9167 -0.3323,0.3323 -0.5687,-0.2584 -0.5253,-1.3125 z M 787.38176,1270.5 c 0.002,-6.6 0.16382,-9.1699 0.35965,-5.7108 0.19583,3.459 0.19422,8.859 -0.004,12 -0.19781,3.1409 -0.35803,0.3108 -0.35606,-6.2892 z m -116.18681,2 c 0.0204,-1.65 0.2445,-2.2039 0.49804,-1.231 0.25354,0.973 0.23687,2.323 -0.0371,3 -0.27393,0.6771 -0.48137,-0.119 -0.46099,-1.769 z m 0.884,-14.0833 c 0.048,-1.165 0.28494,-1.4019 0.60416,-0.6042 0.28887,0.7219 0.25335,1.5844 -0.0789,1.9167 -0.33229,0.3323 -0.56864,-0.2584 -0.52522,-1.3125 z M 2234.3281,1248.5 c 0,-3.85 0.1852,-5.3025 0.4017,-3.2277 0.2165,2.0748 0.2128,5.2248 -0.01,7 -0.2209,1.7752 -0.398,0.078 -0.3936,-3.7723 z m -1446.24915,-6.0833 c 0.048,-1.165 0.28494,-1.4019 0.60416,-0.6042 0.28887,0.7219 0.25335,1.5844 -0.0789,1.9167 -0.33229,0.3323 -0.56864,-0.2584 -0.52522,-1.3125 z M 1705.1579,1179 c 0,-1.375 0.227,-1.9375 0.5044,-1.25 0.2774,0.6875 0.2774,1.8125 0,2.5 -0.2774,0.6875 -0.5044,0.125 -0.5044,-1.25 z m 277.6546,-118.6831 c 0.7219,-0.2889 1.5844,-0.2534 1.9167,0.079 0.3323,0.3323 -0.2584,0.5687 -1.3125,0.5253 -1.165,-0.048 -1.4019,-0.285 -0.6042,-0.6042 z m -72,-1 c 0.7219,-0.2889 1.5844,-0.2534 1.9167,0.079 0.3323,0.3323 -0.2584,0.5687 -1.3125,0.5253 -1.165,-0.048 -1.4019,-0.285 -0.6042,-0.6042 z m 56.9375,0.021 c 0.6875,-0.2774 1.8125,-0.2774 2.5,0 0.6875,0.2774 0.125,0.5044 -1.25,0.5044 -1.375,0 -1.9375,-0.227 -1.25,-0.5044 z m -908.5,-61.02703 c 0.9625,-0.25152 2.5375,-0.25152 3.5,0 0.9625,0.25153 0.175,0.45733 -1.75,0.45733 -1.925,0 -2.7125,-0.2058 -1.75,-0.45733 z m 871.5625,-13.99378 c 0.7219,-0.28887 1.5844,-0.25335 1.9167,0.0789 0.3323,0.33229 -0.2584,0.56864 -1.3125,0.52522 -1.165,-0.048 -1.4019,-0.28494 -0.6042,-0.60416 z m 18.9375,-1.02262 c 1.2375,-0.23836 3.2625,-0.23836 4.5,0 1.2375,0.23835 0.225,0.43337 -2.25,0.43337 -2.475,0 -3.4875,-0.19502 -2.25,-0.43337 z m 29.0117,-0.002 c 1.2439,-0.23919 3.0439,-0.23011 4,0.0202 0.956,0.25029 -0.062,0.446 -2.2617,0.4349 -2.2,-0.0111 -2.9823,-0.21589 -1.7383,-0.45508 z m -945.6828,-2.87607 c 0.048,-1.16495 0.285,-1.4019 0.6042,-0.60417 0.2889,0.72187 0.2534,1.58438 -0.079,1.91667 -0.3323,0.33229 -0.5687,-0.25834 -0.5253,-1.3125 z M 972.15789,976 c 0,-1.375 0.22698,-1.9375 0.50439,-1.25 0.27741,0.6875 0.27741,1.8125 0,2.5 -0.27741,0.6875 -0.50439,0.125 -0.50439,-1.25 z m -0.0789,-6.58333 c 0.048,-1.16495 0.28494,-1.4019 0.60416,-0.60417 0.28887,0.72187 0.25335,1.58438 -0.0789,1.91667 -0.33229,0.33229 -0.56864,-0.25834 -0.52522,-1.3125 z m 424.99991,-22 c 0.048,-1.16495 0.285,-1.4019 0.6042,-0.60417 0.2889,0.72187 0.2534,1.58438 -0.079,1.91667 -0.3323,0.33229 -0.5687,-0.25834 -0.5253,-1.3125 z m 0,-29 c 0.048,-1.16495 0.285,-1.4019 0.6042,-0.60417 0.2889,0.72187 0.2534,1.58438 -0.079,1.91667 -0.3323,0.33229 -0.5687,-0.25834 -0.5253,-1.3125 z m 308,-38 c 0.048,-1.16495 0.285,-1.4019 0.6042,-0.60417 0.2889,0.72187 0.2534,1.58438 -0.079,1.91667 -0.3323,0.33229 -0.5687,-0.25834 -0.5253,-1.3125 z M 951.8125,866.31689 c 0.72187,-0.28887 1.58438,-0.25335 1.91667,0.0789 0.33229,0.33229 -0.25834,0.56864 -1.3125,0.52522 -1.16495,-0.048 -1.4019,-0.28494 -0.60417,-0.60416 z m 13,0 c 0.72187,-0.28887 1.58438,-0.25335 1.91667,0.0789 0.33229,0.33229 -0.25834,0.56864 -1.3125,0.52522 -1.16495,-0.048 -1.4019,-0.28494 -0.60417,-0.60416 z m 740.2664,-16.90022 c 0.048,-1.16495 0.285,-1.4019 0.6042,-0.60417 0.2889,0.72187 0.2534,1.58438 -0.079,1.91667 -0.3323,0.33229 -0.5687,-0.25834 -0.5253,-1.3125 z M 764.25,786.31067 c 0.9625,-0.25152 2.5375,-0.25152 3.5,0 0.9625,0.25153 0.175,0.45733 -1.75,0.45733 -1.925,0 -2.7125,-0.2058 -1.75,-0.45733 z m 53,0 c 0.9625,-0.25152 2.5375,-0.25152 3.5,0 0.9625,0.25153 0.175,0.45733 -1.75,0.45733 -1.925,0 -2.7125,-0.2058 -1.75,-0.45733 z m -69.4375,-0.99378 c 0.72187,-0.28887 1.58438,-0.25335 1.91667,0.0789 0.33229,0.33229 -0.25834,0.56864 -1.3125,0.52522 -1.16495,-0.048 -1.4019,-0.28494 -0.60417,-0.60416 z m 90,0 c 0.72187,-0.28887 1.58438,-0.25335 1.91667,0.0789 0.33229,0.33229 -0.25834,0.56864 -1.3125,0.52522 -1.16495,-0.048 -1.4019,-0.28494 -0.60417,-0.60416 z m 13,-1 c 0.72187,-0.28887 1.58438,-0.25335 1.91667,0.0789 0.33229,0.33229 -0.25834,0.56864 -1.3125,0.52522 -1.16495,-0.048 -1.4019,-0.28494 -0.60417,-0.60416 z m 507.4375,-3.00622 c 0.9625,-0.25152 2.5375,-0.25152 3.5,0 0.9625,0.25153 0.175,0.45733 -1.75,0.45733 -1.925,0 -2.7125,-0.2058 -1.75,-0.45733 z m 22.5,0.0271 c 0.6875,-0.27741 1.8125,-0.27741 2.5,0 0.6875,0.27741 0.125,0.50439 -1.25,0.50439 -1.375,0 -1.9375,-0.22698 -1.25,-0.50439 z M 172.07895,732.41667 c 0.048,-1.16495 0.28494,-1.4019 0.60416,-0.60417 0.28887,0.72187 0.25335,1.58438 -0.0789,1.91667 -0.3323,0.33229 -0.56864,-0.25834 -0.52522,-1.3125 z M 1666.25,713.31067 c 0.9625,-0.25152 2.5375,-0.25152 3.5,0 0.9625,0.25153 0.175,0.45733 -1.75,0.45733 -1.925,0 -2.7125,-0.2058 -1.75,-0.45733 z m 23.5625,0.006 c 0.7219,-0.28887 1.5844,-0.25335 1.9167,0.0789 0.3323,0.33229 -0.2584,0.56864 -1.3125,0.52522 -1.165,-0.048 -1.4019,-0.28494 -0.6042,-0.60416 z M 720.75,709.33772 c 0.6875,-0.27741 1.8125,-0.27741 2.5,0 0.6875,0.27741 0.125,0.50439 -1.25,0.50439 -1.375,0 -1.9375,-0.22698 -1.25,-0.50439 z m 40.51903,-0.0307 c 0.97297,-0.25354 2.32297,-0.23687 3,0.0371 0.67703,0.27393 -0.11903,0.48137 -1.76903,0.46099 -1.65,-0.0204 -2.20394,-0.2445 -1.23097,-0.49804 z m 15.54347,-0.99012 c 0.72187,-0.28887 1.58438,-0.25335 1.91667,0.0789 0.33229,0.33229 -0.25834,0.56864 -1.3125,0.52522 -1.16495,-0.048 -1.4019,-0.28494 -0.60417,-0.60416 z m -604.73355,-3.90022 c 0.048,-1.16495 0.28494,-1.4019 0.60416,-0.60417 0.28887,0.72187 0.25335,1.58438 -0.0789,1.91667 -0.3323,0.33229 -0.56864,-0.25834 -0.52522,-1.3125 z m -172.00000263,-20 c 0.04798392,-1.16495 0.2849403,-1.4019 0.60416667,-0.60417 0.28887061,0.72187 0.25334429,1.58438 -0.0789474,1.91667 -0.33229167,0.33229 -0.56864035,-0.25834 -0.52521927,-1.3125 z M 536.8125,629.31689 c 0.72187,-0.28887 1.58438,-0.25335 1.91667,0.0789 0.33229,0.33229 -0.25834,0.56864 -1.3125,0.52522 -1.16495,-0.048 -1.4019,-0.28494 -0.60417,-0.60416 z m 899.2664,-318.90022 c 0.048,-1.16495 0.285,-1.4019 0.6042,-0.60417 0.2889,0.72187 0.2534,1.58438 -0.079,1.91667 -0.3323,0.33229 -0.5687,-0.25834 -0.5253,-1.3125 z M 1314.3494,295 c 0,-4.675 0.1723,-6.5875 0.3828,-4.25 0.2105,2.3375 0.2105,6.1625 0,8.5 -0.2105,2.3375 -0.3828,0.425 -0.3828,-4.25 z m 122.8455,0.5 c 0.02,-1.65 0.2445,-2.20394 0.4981,-1.23097 0.2535,0.97297 0.2369,2.32297 -0.037,3 -0.2739,0.67703 -0.4813,-0.11903 -0.461,-1.76903 z m 0,-29 c 0.02,-1.65 0.2445,-2.20394 0.4981,-1.23097 0.2535,0.97297 0.2369,2.32297 -0.037,3 -0.2739,0.67703 -0.4813,-0.11903 -0.461,-1.76903 z M 1001.8125,140.31689 c 0.7219,-0.28887 1.5844,-0.25335 1.9167,0.0789 0.3323,0.33229 -0.2584,0.56864 -1.3125,0.52522 -1.165,-0.048 -1.4019,-0.28494 -0.6042,-0.60416 z m 109,0 c 0.7219,-0.28887 1.5844,-0.25335 1.9167,0.0789 0.3323,0.33229 -0.2584,0.56864 -1.3125,0.52522 -1.165,-0.048 -1.4019,-0.28494 -0.6042,-0.60416 z m -96.0625,-0.97917 c 0.6875,-0.27741 1.8125,-0.27741 2.5,0 0.6875,0.27741 0.125,0.50439 -1.25,0.50439 -1.375,0 -1.9375,-0.22698 -1.25,-0.50439 z m 83,0 c 0.6875,-0.27741 1.8125,-0.27741 2.5,0 0.6875,0.27741 0.125,0.50439 -1.25,0.50439 -1.375,0 -1.9375,-0.22698 -1.25,-0.50439 z m -61.9883,-1.04498 c 1.2439,-0.23919 3.0439,-0.23011 4,0.0202 0.956,0.25029 -0.062,0.446 -2.2617,0.4349 -2.2,-0.0111 -2.9823,-0.21589 -1.7383,-0.45508 z m 42,0 c 1.2439,-0.23919 3.0439,-0.23011 4,0.0202 0.956,0.25029 -0.062,0.446 -2.2617,0.4349 -2.2,-0.0111 -2.9823,-0.21589 -1.7383,-0.45508 z M 967.8125,2.316886 c 0.72187,-0.2888706 1.58438,-0.2533443 1.91667,0.078947 0.33229,0.3322917 -0.25834,0.5686404 -1.3125,0.5252193 -1.16495,-0.047984 -1.4019,-0.2849403 -0.60417,-0.6041663 z m 129,0 c 0.7219,-0.2888706 1.5844,-0.2533443 1.9167,0.078947 0.3323,0.3322917 -0.2584,0.5686404 -1.3125,0.5252193 -1.165,-0.047984 -1.4019,-0.2849403 -0.6042,-0.6041663 z M 981.75,1.3377193 c 0.6875,-0.2774123 1.8125,-0.2774123 2.5,0 0.6875,0.2774123 0.125,0.504386 -1.25,0.504386 -1.375,0 -1.9375,-0.2269737 -1.25,-0.504386 z m 102.0625,-0.020833 c 0.7219,-0.2888706 1.5844,-0.2533443 1.9167,0.078947 0.3323,0.3322917 -0.2584,0.5686404 -1.3125,0.5252193 -1.165,-0.047984 -1.4019,-0.2849403 -0.6042,-0.6041663 z M 1001.25,0.31067449 c 0.9625,-0.25152755 2.5375,-0.25152755 3.5,0 0.9625,0.25152754 0.175,0.45732281 -1.75,0.45732281 -1.925,0 -2.7125,-0.20579527 -1.75,-0.45732281 z m 62,0 c 0.9625,-0.25152755 2.5375,-0.25152755 3.5,0 0.9625,0.25152754 0.175,0.45732281 -1.75,0.45732281 -1.925,0 -2.7125,-0.20579527 -1.75,-0.45732281 z"
       style="fill:#e4b5cd" />
    <path
       id="path825"
       d="m 123.87244,1680.25 c -1.24387,-1.5861 -1.2085,-1.6214 0.37756,-0.3776 1.66575,1.3064 2.19548,2.1276 1.37244,2.1276 -0.20765,0 -0.99515,-0.7875 -1.75,-1.75 z M 484.5,1609 c 0.99549,-1.1 2.03498,-2 2.30998,-2 0.275,0 -0.31449,0.9 -1.30998,2 -0.99549,1.1 -2.03498,2 -2.30998,2 -0.275,0 0.31449,-0.9 1.30998,-2 z m 14,-14 c 0.99549,-1.1 2.03498,-2 2.30998,-2 0.275,0 -0.31449,0.9 -1.30998,2 -0.99549,1.1 -2.03498,2 -2.30998,2 -0.275,0 0.31449,-0.9 1.30998,-2 z M 285.95821,1374.75 c 4.14396,-4.4152 5.04179,-5.2091 5.04179,-4.4582 0,0.1605 -2.1375,2.298 -4.75,4.75 L 281.5,1379.5 Z M 149.5,1375 c 0.99549,-1.1 2.03498,-2 2.30998,-2 0.275,0 -0.31449,0.9 -1.30998,2 -0.99549,1.1 -2.03498,2 -2.30998,2 -0.275,0 0.31449,-0.9 1.30998,-2 z m 20,-20 c 0.99549,-1.1 2.03498,-2 2.30998,-2 0.275,0 -0.31449,0.9 -1.30998,2 -0.99549,1.1 -2.03498,2 -2.30998,2 -0.275,0 0.31449,-0.9 1.30998,-2 z m 1129.5,-5.3776 c 0,-0.2076 0.7875,-0.9951 1.75,-1.75 1.5861,-1.2438 1.6214,-1.2085 0.3776,0.3776 -1.3064,1.6657 -2.1276,2.1955 -2.1276,1.3724 z M 1752,1282.5 c 1.2917,-1.375 2.5736,-2.5 2.8486,-2.5 0.275,0 -0.5569,1.125 -1.8486,2.5 -1.2917,1.375 -2.5736,2.5 -2.8486,2.5 -0.275,0 0.5569,-1.125 1.8486,-2.5 z m 431.4371,-144.75 -2.9371,-3.25 3.25,2.9371 c 1.7875,1.6154 3.25,3.0779 3.25,3.25 0,0.7726 -0.8251,0.092 -3.5629,-2.9371 z M 1622,1130.6871 c 0,-0.1721 1.4625,-1.6346 3.25,-3.25 l 3.25,-2.9371 -2.9371,3.25 c -2.7378,3.0295 -3.5629,3.7097 -3.5629,2.9371 z M 523.40499,1120.75 521.5,1118.5 l 2.25,1.905 c 2.11444,1.7902 2.70524,2.595 1.90499,2.595 -0.18976,0 -1.20226,-1.0125 -2.25,-2.25 z M 1636,1116.5 c 1.8658,-1.925 3.6173,-3.5 3.8923,-3.5 0.275,0 -1.0265,1.575 -2.8923,3.5 -1.8658,1.925 -3.6173,3.5 -3.8923,3.5 -0.275,0 1.0265,-1.575 2.8923,-3.5 z M 501.40499,1098.75 499.5,1096.5 l 2.25,1.905 c 1.2375,1.0477 2.25,2.0602 2.25,2.25 0,0.8002 -0.80479,0.2094 -2.59501,-1.905 z M 798.5,954 c 2.70865,-2.75 5.14982,-5 5.42482,-5 0.275,0 -1.71617,2.25 -4.42482,5 -2.70865,2.75 -5.14982,5 -5.42482,5 -0.275,0 1.71617,-2.25 4.42482,-5 z M 134.87244,937.25 c -1.24387,-1.58606 -1.2085,-1.62143 0.37756,-0.37756 0.9625,0.75485 1.75,1.54235 1.75,1.75 0,0.82304 -0.82119,0.29331 -2.12756,-1.37244 z m 145,-20 c -1.24387,-1.58606 -1.2085,-1.62143 0.37756,-0.37756 1.66575,1.30637 2.19548,2.12756 1.37244,2.12756 -0.20765,0 -0.99515,-0.7875 -1.75,-1.75 z m -178,-13 c -1.24387,-1.58606 -1.2085,-1.62143 0.37756,-0.37756 1.66575,1.30637 2.19548,2.12756 1.37244,2.12756 -0.20765,0 -0.99515,-0.7875 -1.75,-1.75 z m 1317.99996,-110 c -1.2438,-1.58606 -1.2085,-1.62143 0.3776,-0.37756 0.9625,0.75485 1.75,1.54235 1.75,1.75 0,0.82304 -0.8212,0.29331 -2.1276,-1.37244 z M 1276,608.62244 c 0,-0.20765 0.7875,-0.99515 1.75,-1.75 1.5861,-1.24387 1.6214,-1.2085 0.3776,0.37756 -1.3064,1.66575 -2.1276,2.19548 -2.1276,1.37244 z M 1301.5,583 c 0.9955,-1.1 2.035,-2 2.31,-2 0.275,0 -0.3145,0.9 -1.31,2 -0.9955,1.1 -2.035,2 -2.31,2 -0.275,0 0.3145,-0.9 1.31,-2 z M 273,495.62244 c 0,-0.20765 0.7875,-0.99515 1.75,-1.75 1.58606,-1.24387 1.62143,-1.2085 0.37756,0.37756 C 273.82119,495.91575 273,496.44548 273,495.62244 Z m 34,-34 c 0,-0.20765 0.7875,-0.99515 1.75,-1.75 1.58606,-1.24387 1.62143,-1.2085 0.37756,0.37756 C 307.82119,461.91575 307,462.44548 307,461.62244 Z M 154,399.5 c 1.29175,-1.375 2.57363,-2.5 2.84863,-2.5 0.275,0 -0.55688,1.125 -1.84863,2.5 -1.29175,1.375 -2.57363,2.5 -2.84863,2.5 -0.275,0 0.55688,-1.125 1.84863,-2.5 z m 30,-30 c 1.29175,-1.375 2.57363,-2.5 2.84863,-2.5 0.275,0 -0.55688,1.125 -1.84863,2.5 -1.29175,1.375 -2.57363,2.5 -2.84863,2.5 -0.275,0 0.55688,-1.125 1.84863,-2.5 z"
       style="fill:#dfa7c4" />
    <path
       id="path823"
       d="m 224.26903,1710.307 c 0.97297,-0.2535 2.32297,-0.2369 3,0.037 0.67703,0.2739 -0.11903,0.4813 -1.76903,0.461 -1.65,-0.02 -2.20394,-0.2445 -1.23097,-0.4981 z m 30.48097,0.031 c 0.6875,-0.2774 1.8125,-0.2774 2.5,0 0.6875,0.2774 0.125,0.5044 -1.25,0.5044 -1.375,0 -1.9375,-0.227 -1.25,-0.5044 z M 74.078947,1567.4167 c 0.04798,-1.165 0.284941,-1.4019 0.604167,-0.6042 0.288871,0.7219 0.253344,1.5844 -0.07895,1.9167 -0.332292,0.3323 -0.568641,-0.2584 -0.52522,-1.3125 z m 0,-28 c 0.04798,-1.165 0.284941,-1.4019 0.604167,-0.6042 0.288871,0.7219 0.253344,1.5844 -0.07895,1.9167 -0.332292,0.3323 -0.568641,-0.2584 -0.52522,-1.3125 z M 214.32814,1523.5 c 0.004,-3.85 0.18518,-5.3025 0.40166,-3.2277 0.21647,2.0748 0.21284,5.2248 -0.008,7 -0.22091,1.7752 -0.39803,0.078 -0.39359,-3.7723 z M 1242.75,1438.3377 c 0.6875,-0.2774 1.8125,-0.2774 2.5,0 0.6875,0.2774 0.125,0.5044 -1.25,0.5044 -1.375,0 -1.9375,-0.227 -1.25,-0.5044 z m 22,0 c 0.6875,-0.2774 1.8125,-0.2774 2.5,0 0.6875,0.2774 0.125,0.5044 -1.25,0.5044 -1.375,0 -1.9375,-0.227 -1.25,-0.5044 z m 898.0625,-62.0208 c 0.7219,-0.2889 1.5844,-0.2534 1.9167,0.079 0.3323,0.3323 -0.2584,0.5687 -1.3125,0.5253 -1.165,-0.048 -1.4019,-0.285 -0.6042,-0.6042 z M 942.232,1372 c 0,-1.925 0.2058,-2.7125 0.45733,-1.75 0.25152,0.9625 0.25152,2.5375 0,3.5 -0.25153,0.9625 -0.45733,0.175 -0.45733,-1.75 z m -341.07411,-20 c 0,-1.375 0.22698,-1.9375 0.50439,-1.25 0.27741,0.6875 0.27741,1.8125 0,2.5 -0.27741,0.6875 -0.50439,0.125 -0.50439,-1.25 z m 341.03706,-10.5 c 0.0204,-1.65 0.2445,-2.2039 0.49804,-1.231 0.25354,0.973 0.23687,2.323 -0.0371,3 -0.27393,0.6771 -0.48137,-0.119 -0.46099,-1.769 z m -430.116,-11.0833 c 0.048,-1.165 0.28494,-1.4019 0.60416,-0.6042 0.28887,0.7219 0.25335,1.5844 -0.0789,1.9167 -0.33229,0.3323 -0.56864,-0.2584 -0.52522,-1.3125 z m 431,-6 c 0.048,-1.165 0.28494,-1.4019 0.60416,-0.6042 0.28887,0.7219 0.25335,1.5844 -0.0789,1.9167 -0.33229,0.3323 -0.56864,-0.2584 -0.52522,-1.3125 z m -429.884,-7.9167 c 0.0204,-1.65 0.2445,-2.2039 0.49804,-1.231 0.25354,0.973 0.23687,2.323 -0.0371,3 -0.27393,0.6771 -0.48137,-0.119 -0.46099,-1.769 z m 532.13315,-7 c 0,-3.85 0.1852,-5.3025 0.4017,-3.2277 0.2165,2.0748 0.2128,5.2248 -0.01,7 -0.2209,1.7752 -0.398,0.078 -0.3936,-3.7723 z m 488.8298,2.5 c 0,-1.375 0.227,-1.9375 0.5044,-1.25 0.2774,0.6875 0.2774,1.8125 0,2.5 -0.2774,0.6875 -0.5044,0.125 -0.5044,-1.25 z m -933.00001,-8 c 0,-1.375 0.22698,-1.9375 0.50439,-1.25 0.27741,0.6875 0.27741,1.8125 0,2.5 -0.27741,0.6875 -0.50439,0.125 -0.50439,-1.25 z m 933.00001,-5 c 0,-1.375 0.227,-1.9375 0.5044,-1.25 0.2774,0.6875 0.2774,1.8125 0,2.5 -0.2774,0.6875 -0.5044,0.125 -0.5044,-1.25 z m -862.78794,-14 c 0,-5.775 0.16528,-8.1375 0.36728,-5.25 0.202,2.8875 0.202,7.6125 0,10.5 -0.202,2.8875 -0.36728,0.525 -0.36728,-5.25 z m -158.17501,4.5 c 0.0204,-1.65 0.2445,-2.2039 0.49804,-1.231 0.25354,0.973 0.23687,2.323 -0.0371,3 -0.27393,0.6771 -0.48137,-0.119 -0.46099,-1.769 z m 86.884,0.9167 c 0.048,-1.165 0.28494,-1.4019 0.60416,-0.6042 0.28887,0.7219 0.25335,1.5844 -0.0789,1.9167 -0.33229,0.3323 -0.56864,-0.2584 -0.52522,-1.3125 z m 187.116,-5.9167 c 0.0204,-1.65 0.2445,-2.2039 0.49804,-1.231 0.25354,0.973 0.23687,2.323 -0.0371,3 -0.27393,0.6771 -0.48137,-0.119 -0.46099,-1.769 z m 821.96295,-1.5 c 0,-1.375 0.227,-1.9375 0.5044,-1.25 0.2774,0.6875 0.2774,1.8125 0,2.5 -0.2774,0.6875 -0.5044,0.125 -0.5044,-1.25 z M 787.232,1256 c 0,-1.925 0.2058,-2.7125 0.45733,-1.75 0.25152,0.9625 0.25152,2.5375 0,3.5 -0.25153,0.9625 -0.45733,0.175 -0.45733,-1.75 z m 1446.8469,0.4167 c 0.048,-1.165 0.285,-1.4019 0.6042,-0.6042 0.2889,0.7219 0.2534,1.5844 -0.079,1.9167 -0.3323,0.3323 -0.5687,-0.2584 -0.5253,-1.3125 z M 2281.1579,1242 c 0,-1.375 0.227,-1.9375 0.5044,-1.25 0.2774,0.6875 0.2774,1.8125 0,2.5 -0.2774,0.6875 -0.5044,0.125 -0.5044,-1.25 z m -47.079,-1.5833 c 0.048,-1.165 0.285,-1.4019 0.6042,-0.6042 0.2889,0.7219 0.2534,1.5844 -0.079,1.9167 -0.3323,0.3323 -0.5687,-0.2584 -0.5253,-1.3125 z m -1445.99995,-1 c 0.048,-1.165 0.28494,-1.4019 0.60416,-0.6042 0.28887,0.7219 0.25335,1.5844 -0.0789,1.9167 -0.33229,0.3323 -0.56864,-0.2584 -0.52522,-1.3125 z m 1492.99995,-21 c 0.048,-1.165 0.285,-1.4019 0.6042,-0.6042 0.2889,0.7219 0.2534,1.5844 -0.079,1.9167 -0.3323,0.3323 -0.5687,-0.2584 -0.5253,-1.3125 z m -480,-31 c 0.048,-1.165 0.285,-1.4019 0.6042,-0.6042 0.2889,0.7219 0.2534,1.5844 -0.079,1.9167 -0.3323,0.3323 -0.5687,-0.2584 -0.5253,-1.3125 z m 0,-22 c 0.048,-1.165 0.285,-1.4019 0.6042,-0.6042 0.2889,0.7219 0.2534,1.5844 -0.079,1.9167 -0.3323,0.3323 -0.5687,-0.2584 -0.5253,-1.3125 z m 105.7336,-106.0998 c 0.7219,-0.2889 1.5844,-0.2534 1.9167,0.079 0.3323,0.3323 -0.2584,0.5687 -1.3125,0.5253 -1.165,-0.048 -1.4019,-0.285 -0.6042,-0.6042 z m 65,0 c 0.7219,-0.2889 1.5844,-0.2534 1.9167,0.079 0.3323,0.3323 -0.2584,0.5687 -1.3125,0.5253 -1.165,-0.048 -1.4019,-0.285 -0.6042,-0.6042 z m -39.6063,-1.0575 c 3.6885,-0.1918 9.9885,-0.1931 14,0 4.0116,0.1903 0.9938,0.3473 -6.7062,0.3488 -7.7,0 -10.9822,-0.1541 -7.2938,-0.346 z M 1106.2522,1033.5 c 0.011,-2.2 0.2159,-2.9823 0.4551,-1.7383 0.2392,1.2439 0.2301,3.0439 -0.02,4 -0.2503,0.956 -0.446,-0.062 -0.4349,-2.2617 z M 1933.75,984.33772 c 0.6875,-0.27741 1.8125,-0.27741 2.5,0 0.6875,0.27741 0.125,0.50439 -1.25,0.50439 -1.375,0 -1.9375,-0.22698 -1.25,-0.50439 z m 62.0625,-0.0208 c 0.7219,-0.28887 1.5844,-0.25335 1.9167,0.0789 0.3323,0.33229 -0.2584,0.56864 -1.3125,0.52522 -1.165,-0.048 -1.4019,-0.28494 -0.6042,-0.60416 z m -35.0625,-1.05413 c 2.8875,-0.202 7.6125,-0.202 10.5,0 2.8875,0.202 0.525,0.36728 -5.25,0.36728 -5.775,0 -8.1375,-0.16528 -5.25,-0.36728 z M 1033.1579,977 c 0,-1.375 0.227,-1.9375 0.5044,-1.25 0.2774,0.6875 0.2774,1.8125 0,2.5 -0.2774,0.6875 -0.5044,0.125 -0.5044,-1.25 z m 363.921,-26.58333 c 0.048,-1.16495 0.285,-1.4019 0.6042,-0.60417 0.2889,0.72187 0.2534,1.58438 -0.079,1.91667 -0.3323,0.33229 -0.5687,-0.25834 -0.5253,-1.3125 z m -364,-2 c 0.048,-1.16495 0.285,-1.4019 0.6042,-0.60417 0.2889,0.72187 0.2534,1.58438 -0.079,1.91667 -0.3323,0.33229 -0.5687,-0.25834 -0.5253,-1.3125 z m 364,-33 c 0.048,-1.16495 0.285,-1.4019 0.6042,-0.60417 0.2889,0.72187 0.2534,1.58438 -0.079,1.91667 -0.3323,0.33229 -0.5687,-0.25834 -0.5253,-1.3125 z M 957.26375,866.28242 c 1.52006,-0.22986 3.77006,-0.22371 5,0.0136 1.22994,0.23736 -0.0137,0.42542 -2.76375,0.41792 -2.75,-0.008 -3.75631,-0.20172 -2.23625,-0.43157 z M 770.76166,786.29274 c 1.24391,-0.23919 3.04391,-0.23011 4,0.0202 0.95609,0.25029 -0.0617,0.446 -2.26166,0.4349 -2.2,-0.0111 -2.98225,-0.21589 -1.73834,-0.45508 z m 38.98834,0.002 c 1.2375,-0.23836 3.2625,-0.23836 4.5,0 1.2375,0.23835 0.225,0.43337 -2.25,0.43337 -2.475,0 -3.4875,-0.19502 -2.25,-0.43337 z m -58.9375,-0.97738 c 0.72187,-0.28887 1.58438,-0.25335 1.91667,0.0789 0.33229,0.33229 -0.25834,0.56864 -1.3125,0.52522 -1.16495,-0.048 -1.4019,-0.28494 -0.60417,-0.60416 z m 83,0 c 0.72187,-0.28887 1.58438,-0.25335 1.91667,0.0789 0.33229,0.33229 -0.25834,0.56864 -1.3125,0.52522 -1.16495,-0.048 -1.4019,-0.28494 -0.60417,-0.60416 z m 14,-1 c 0.72187,-0.28887 1.58438,-0.25335 1.91667,0.0789 0.33229,0.33229 -0.25834,0.56864 -1.3125,0.52522 -1.16495,-0.048 -1.4019,-0.28494 -0.60417,-0.60416 z m 519.4677,-3.05316 c 2.6291,-0.20668 6.6791,-0.20418 9,0.006 2.3209,0.20972 0.1698,0.37882 -4.7802,0.37577 -4.95,-0.003 -6.8489,-0.17464 -4.2198,-0.38131 z M 172.07895,735.41667 c 0.048,-1.16495 0.28494,-1.4019 0.60416,-0.60417 0.28887,0.72187 0.25335,1.58438 -0.0789,1.91667 -0.3323,0.33229 -0.56864,-0.25834 -0.52522,-1.3125 z M 1653.8125,714.31689 c 0.7219,-0.28887 1.5844,-0.25335 1.9167,0.0789 0.3323,0.33229 -0.2584,0.56864 -1.3125,0.52522 -1.165,-0.048 -1.4019,-0.28494 -0.6042,-0.60416 z m 21.4677,-1.05316 c 2.6291,-0.20668 6.6791,-0.20418 9,0.006 2.3209,0.20972 0.1698,0.37882 -4.7802,0.37577 -4.95,-0.003 -6.8489,-0.17464 -4.2198,-0.38131 z M 0.07894737,710.41667 c 0.04798392,-1.16495 0.2849403,-1.4019 0.60416667,-0.60417 0.28887061,0.72187 0.25334429,1.58438 -0.0789474,1.91667 -0.33229167,0.33229 -0.56864035,-0.25834 -0.52521927,-1.3125 z M 716.75,709.33772 c 0.6875,-0.27741 1.8125,-0.27741 2.5,0 0.6875,0.27741 0.125,0.50439 -1.25,0.50439 -1.375,0 -1.9375,-0.22698 -1.25,-0.50439 z m 49.0625,-0.0208 c 0.72187,-0.28887 1.58438,-0.25335 1.91667,0.0789 0.33229,0.33229 -0.25834,0.56864 -1.3125,0.52522 -1.16495,-0.048 -1.4019,-0.28494 -0.60417,-0.60416 z M 172.07895,701.4167 c 0.048,-1.16495 0.28494,-1.4019 0.60416,-0.60417 0.28887,0.72187 0.25335,1.58438 -0.0789,1.91667 -0.3323,0.33229 -0.56864,-0.25834 -0.52522,-1.3125 z m -172.00000263,-14 c 0.04798392,-1.16495 0.2849403,-1.4019 0.60416667,-0.60417 0.28887061,0.72187 0.25334429,1.58438 -0.0789474,1.91667 -0.33229167,0.33229 -0.56864035,-0.25834 -0.52521927,-1.3125 z m 1313.99995263,-382 c 0.048,-1.16495 0.285,-1.4019 0.6042,-0.60417 0.2889,0.72187 0.2534,1.58438 -0.079,1.91667 -0.3323,0.33229 -0.5687,-0.25834 -0.5253,-1.3125 z M 1437.3854,281 c 0,-6.875 0.1597,-9.6875 0.355,-6.25 0.1953,3.4375 0.1953,9.0625 0,12.5 -0.1953,3.4375 -0.355,0.625 -0.355,-6.25 z m -123.3065,3.41667 c 0.048,-1.16495 0.285,-1.4019 0.6042,-0.60417 0.2889,0.72187 0.2534,1.58438 -0.079,1.91667 -0.3323,0.33229 -0.5687,-0.25834 -0.5253,-1.3125 z M 998.8125,140.31689 c 0.72187,-0.28887 1.5844,-0.25335 1.9167,0.0789 0.3323,0.33229 -0.2584,0.56864 -1.31253,0.52522 -1.16495,-0.048 -1.4019,-0.28494 -0.60417,-0.60416 z m 13,-1 c 0.7219,-0.28887 1.5844,-0.25335 1.9167,0.0789 0.3323,0.33229 -0.2584,0.56864 -1.3125,0.52522 -1.165,-0.048 -1.4019,-0.28494 -0.6042,-0.60416 z m 90,0 c 0.7219,-0.28887 1.5844,-0.25335 1.9167,0.0789 0.3323,0.33229 -0.2584,0.56864 -1.3125,0.52522 -1.165,-0.048 -1.4019,-0.28494 -0.6042,-0.60416 z m -72.5435,-1.00988 c 0.973,-0.25354 2.323,-0.23687 3,0.0371 0.6771,0.27393 -0.119,0.48137 -1.769,0.46099 -1.65,-0.0204 -2.2039,-0.2445 -1.231,-0.49804 z m 55,0 c 0.973,-0.25354 2.323,-0.23687 3,0.0371 0.6771,0.27393 -0.119,0.48137 -1.769,0.46099 -1.65,-0.0204 -2.2039,-0.2445 -1.231,-0.49804 z M 958.8125,3.316886 c 0.72187,-0.2888706 1.58438,-0.2533443 1.91667,0.078947 0.33229,0.3322917 -0.25834,0.5686404 -1.3125,0.5252193 -1.16495,-0.047984 -1.4019,-0.2849403 -0.60417,-0.6041663 z m 12,-1 c 0.72187,-0.2888706 1.58438,-0.2533443 1.91667,0.078947 0.33229,0.3322917 -0.25834,0.5686404 -1.3125,0.5252193 -1.16495,-0.047984 -1.4019,-0.2849403 -0.60417,-0.6041663 z M 985.75,1.3377193 c 0.6875,-0.2774123 1.8125,-0.2774123 2.5,0 0.6875,0.2774123 0.125,0.504386 -1.25,0.504386 -1.375,0 -1.9375,-0.2269737 -1.25,-0.504386 z m 94.0625,-0.020833 c 0.7219,-0.2888706 1.5844,-0.2533443 1.9167,0.078947 0.3323,0.3322917 -0.2584,0.5686404 -1.3125,0.5252193 -1.165,-0.047984 -1.4019,-0.2849403 -0.6042,-0.6041663 z M 1007.75,0.29426699 c 1.2375,-0.23835289 3.2625,-0.23835289 4.5,0 1.2375,0.2383529 0.225,0.4333689 -2.25,0.4333689 -2.475,0 -3.4875,-0.195016 -2.25,-0.4333689 z m 49.0117,-0.001528 c 1.2439,-0.23919321 3.0439,-0.2301119 4,0.0201807 0.956,0.2502926 -0.062,0.44599614 -2.2617,0.43489676 -2.2,-0.0110994 -2.9823,-0.21588425 -1.7383,-0.45507746 z"
       style="fill:#d997b9" />
    <path
       id="path821"
       d="m 120.40499,1676.75 -1.90499,-2.25 2.25,1.905 c 2.11444,1.7902 2.70524,2.595 1.90499,2.595 -0.18976,0 -1.20226,-1.0125 -2.25,-2.25 z m 370.55322,-74 c 4.14396,-4.4152 5.04179,-5.2091 5.04179,-4.4582 0,0.1605 -2.1375,2.298 -4.75,4.75 l -4.75,4.4582 z m -262.08577,-33.5 c -1.24387,-1.5861 -1.2085,-1.6214 0.37756,-0.3776 1.66575,1.3064 2.19548,2.1276 1.37244,2.1276 -0.20765,0 -0.99515,-0.7875 -1.75,-1.75 z M 425,1508.5 c 1.86578,-1.925 3.61733,-3.5 3.89233,-3.5 0.275,0 -1.02655,1.575 -2.89233,3.5 -1.86578,1.925 -3.61733,3.5 -3.89233,3.5 -0.275,0 1.02655,-1.575 2.89233,-3.5 z m 632,-65 c 1.8658,-1.925 3.6173,-3.5 3.8923,-3.5 0.275,0 -1.0265,1.575 -2.8923,3.5 -1.8658,1.925 -3.6173,3.5 -3.8923,3.5 -0.275,0 1.0265,-1.575 2.8923,-3.5 z m 150.405,-18.75 -1.905,-2.25 2.25,1.905 c 2.1144,1.7902 2.7052,2.595 1.905,2.595 -0.1898,0 -1.2023,-1.0125 -2.25,-2.25 z M 278,1382.6224 c 0,-0.2076 0.7875,-0.9951 1.75,-1.75 1.58606,-1.2438 1.62143,-1.2085 0.37756,0.3776 -1.30637,1.6657 -2.12756,2.1955 -2.12756,1.3724 z M 159.5,1365 c 3.8205,-3.85 7.17136,-7 7.44636,-7 0.275,0 -2.62586,3.15 -6.44636,7 -3.8205,3.85 -7.17136,7 -7.44636,7 -0.275,0 2.62586,-3.15 6.44636,-7 z m 132.5,3.6224 c 0,-0.2076 0.7875,-0.9951 1.75,-1.75 1.58606,-1.2438 1.62143,-1.2085 0.37756,0.3776 -1.30637,1.6657 -2.12756,2.1955 -2.12756,1.3724 z m 513.87244,-8.3724 c -1.24387,-1.5861 -1.2085,-1.6214 0.37756,-0.3776 1.66575,1.3064 2.19548,2.1276 1.37244,2.1276 -0.20765,0 -0.99515,-0.7875 -1.75,-1.75 z M 1296,1352.6224 c 0,-0.2076 0.7875,-0.9951 1.75,-1.75 1.5861,-1.2438 1.6214,-1.2085 0.3776,0.3776 -1.3064,1.6657 -2.1276,2.1955 -2.1276,1.3724 z m 11,-12 c 0,-0.2076 0.7875,-0.9951 1.75,-1.75 1.5861,-1.2438 1.6214,-1.2085 0.3776,0.3776 -1.3064,1.6657 -2.1276,2.1955 -2.1276,1.3724 z m 930.9582,-4.8724 c 2.452,-2.6125 4.5895,-4.75 4.75,-4.75 0.7509,0 -0.043,0.8978 -4.4582,5.0418 l -4.75,4.4582 z M 1317,1329.6224 c 0,-0.2076 0.7875,-0.9951 1.75,-1.75 1.5861,-1.2438 1.6214,-1.2085 0.3776,0.3776 -1.3064,1.6657 -2.1276,2.1955 -2.1276,1.3724 z M 1684.5,1145 c 3.8205,-3.85 7.1714,-7 7.4464,-7 0.275,0 -2.6259,3.15 -6.4464,7 -3.8205,3.85 -7.1714,7 -7.4464,7 -0.275,0 2.6259,-3.15 6.4464,-7 z m 503.905,-2.25 -1.905,-2.25 2.25,1.905 c 2.1144,1.7902 2.7052,2.595 1.905,2.595 -0.1898,0 -1.2023,-1.0125 -2.25,-2.25 z M 1613,1140.6224 c 0,-0.2076 0.7875,-0.9951 1.75,-1.75 1.5861,-1.2438 1.6214,-1.2085 0.3776,0.3776 -1.3064,1.6657 -2.1276,2.1955 -2.1276,1.3724 z m 565.405,-7.8724 -1.905,-2.25 2.25,1.905 c 2.1144,1.7902 2.7052,2.595 1.905,2.595 -0.1898,0 -1.2023,-1.0125 -2.25,-2.25 z M 1629,1123.6224 c 0,-0.2076 0.7875,-0.9951 1.75,-1.75 1.5861,-1.2438 1.6214,-1.2085 0.3776,0.3776 -1.3064,1.6657 -2.1276,2.1955 -2.1276,1.3724 z M 512.97792,1110.25 504.5,1101.5 l 8.75,8.4779 c 8.12674,7.8741 9.20553,9.0221 8.47792,9.0221 -0.14964,0 -4.08714,-3.9375 -8.75,-8.75 z M 1647,1106.6224 c 0,-0.2076 0.7875,-0.9951 1.75,-1.75 1.5861,-1.2438 1.6214,-1.2085 0.3776,0.3776 -1.3064,1.6657 -2.1276,2.1955 -2.1276,1.3724 z M 490.87244,1089.25 c -1.24387,-1.5861 -1.2085,-1.6214 0.37756,-0.3776 0.9625,0.7549 1.75,1.5424 1.75,1.75 0,0.8231 -0.82119,0.2933 -2.12756,-1.3724 z m 1721.59626,-14.5 -5.9687,-6.25 6.25,5.9687 c 3.4375,3.2828 6.25,6.0953 6.25,6.25 0,0.7389 -0.9869,-0.163 -6.5313,-5.9687 z M 891,993.68709 c 0,-0.1721 1.4625,-1.6346 3.25,-3.25 l 3.25,-2.93709 -2.93709,3.25 C 891.82513,993.77946 891,994.45965 891,993.68709 Z M 144.87244,946.25 c -1.24387,-1.58606 -1.2085,-1.62143 0.37756,-0.37756 0.9625,0.75485 1.75,1.54235 1.75,1.75 0,0.82304 -0.82119,0.29331 -2.12756,-1.37244 z M 812,941.62244 c 0,-0.20765 0.7875,-0.99515 1.75,-1.75 1.58606,-1.24387 1.62143,-1.2085 0.37756,0.37756 C 812.82119,941.91575 812,942.44548 812,941.62244 Z M 129.92431,932.25 127.5,929.5 l 2.75,2.42431 c 2.57029,2.26589 3.20859,3.07569 2.42431,3.07569 -0.17912,0 -1.41662,-1.2375 -2.75,-2.75 z m 152.94813,-12 c -1.24387,-1.58606 -1.2085,-1.62143 0.37756,-0.37756 0.9625,0.75485 1.75,1.54235 1.75,1.75 0,0.82304 -0.82119,0.29331 -2.12756,-1.37244 z m -175.94813,-11 -2.42431,-2.75 2.75,2.42431 c 2.57029,2.26589 3.20859,3.07569 2.42431,3.07569 -0.17912,0 -1.41662,-1.2375 -2.75,-2.75 z m 154.05594,-10 -9.48025,-9.75 9.75,9.48025 C 270.3057,907.78541 271.45489,909 270.73025,909 c -0.14836,0 -4.53586,-4.3875 -9.75,-9.75 z m -20.10781,-21 c -1.24387,-1.58606 -1.2085,-1.62143 0.37756,-0.37756 0.9625,0.75485 1.75,1.54235 1.75,1.75 0,0.82304 -0.82119,0.29331 -2.12756,-1.37244 z m 329,-161 c -1.24387,-1.58606 -1.2085,-1.62143 0.37756,-0.37756 0.9625,0.75485 1.75,1.54235 1.75,1.75 0,0.82304 -0.82119,0.29331 -2.12756,-1.37244 z m -15,-15 c -1.24387,-1.58606 -1.2085,-1.62143 0.37756,-0.37756 0.9625,0.75485 1.75,1.54235 1.75,1.75 0,0.82304 -0.82119,0.29331 -2.12756,-1.37244 z m 2,-57 c -1.24387,-1.58606 -1.2085,-1.62143 0.37756,-0.37756 0.9625,0.75485 1.75,1.54235 1.75,1.75 0,0.82304 -0.82119,0.29331 -2.12756,-1.37244 z M 1266,617.62244 c 0,-0.20765 0.7875,-0.99515 1.75,-1.75 1.5861,-1.24387 1.6214,-1.2085 0.3776,0.37756 -1.3064,1.66575 -2.1276,2.19548 -2.1276,1.37244 z M 1289,595.5 c 5.2033,-5.225 9.6855,-9.5 9.9605,-9.5 0.275,0 -3.7572,4.275 -8.9605,9.5 -5.2033,5.225 -9.6855,9.5 -9.9605,9.5 -0.275,0 3.7572,-4.275 8.9605,-9.5 z m 20,-20.87756 c 0,-0.20765 0.7875,-0.99515 1.75,-1.75 1.5861,-1.24387 1.6214,-1.2085 0.3776,0.37756 -1.3064,1.66575 -2.1276,2.19548 -2.1276,1.37244 z M 1201,518.5 c 5.2033,-5.225 9.6855,-9.5 9.9605,-9.5 0.275,0 -3.7572,4.275 -8.9605,9.5 -5.2033,5.225 -9.6855,9.5 -9.9605,9.5 -0.275,0 3.7572,-4.275 8.9605,-9.5 z M 270,498.62244 c 0,-0.20765 0.7875,-0.99515 1.75,-1.75 1.58606,-1.24387 1.62143,-1.2085 0.37756,0.37756 C 270.82119,498.91575 270,499.44548 270,498.62244 Z m 41,-41 c 0,-0.20765 0.7875,-0.99515 1.75,-1.75 1.58606,-1.24387 1.62143,-1.2085 0.37756,0.37756 C 311.82119,457.91575 311,458.44548 311,457.62244 Z m -169,-45 c 0,-0.20765 0.7875,-0.99515 1.75,-1.75 1.58606,-1.24387 1.62143,-1.2085 0.37756,0.37756 C 142.82119,412.91575 142,413.44548 142,412.62244 Z M 168.5,385 c 6.58281,-6.6 12.19374,-12 12.46874,-12 0.275,0 -4.88593,5.4 -11.46874,12 -6.58281,6.6 -12.19374,12 -12.46874,12 -0.275,0 4.88593,-5.4 11.46874,-12 z M 195,359.62244 c 0,-0.20765 0.7875,-0.99515 1.75,-1.75 1.58606,-1.24387 1.62143,-1.2085 0.37756,0.37756 C 195.82119,359.91575 195,360.44548 195,359.62244 Z"
       style="fill:#d48cb3" />
    <path
       id="path819"
       d="m 217.5,1709.9629 c -22.65596,-1.8631 -48.10892,-6.5177 -63.5,-11.6122 -11.33984,-3.7536 -21.10906,-10.3412 -33.05764,-22.2915 -23.603517,-23.607 -37.876045,-53.2638 -44.565428,-92.6021 -2.1006,-12.3531 -2.388299,-43.7909 -0.52581,-57.4571 3.914221,-28.721 14.044794,-61.1768 26.993278,-86.4796 5.88307,-11.4962 18.32995,-30.1273 29.07655,-43.5234 10.65819,-13.2858 45.70376,-48.3768 62.07905,-62.1596 59.38412,-49.9823 131.39635,-96.2367 227,-145.8051 14.025,-7.2717 25.88114,-13.5824 26.34698,-14.0237 1.50692,-1.4279 -27.11705,-24.1817 -59.34698,-47.1764 -9.625,-6.867 -36.625,-25.6981 -60,-41.847 -49.62585,-34.2845 -70.39433,-49.0266 -96.5,-68.4986 C 116.12022,930.42576 48.317691,854.08124 17.165146,775.1491 3.5623326,740.68325 -1.497566,712.35576 0.92569989,684.23371 7.0128904,613.59173 45.288242,531.03692 108.36571,452.5 140.28224,412.76115 185.88765,366.44621 229.5,329.4811 280.56288,286.20104 338.79429,245.05205 404.57745,205.76333 504.75809,145.93085 630.90596,87.808268 743,49.835274 c 182.80141,-61.925837 376.9843,-66.017273 516,-10.872127 88.3304,35.039171 147.1414,92.389943 167.6169,163.455213 4.112,14.27153 7.7844,33.72208 9.4315,49.95272 1.5629,15.40108 0.6969,58.21868 -1.4689,72.62892 -13.0504,86.83046 -54.1739,169.77342 -121.7201,245.5 -12.1753,13.64979 -38.9361,40.28633 -52.4777,52.23406 -40.8877,36.07514 -91.3319,69.0768 -140.0052,91.59446 -56.6751,26.21952 -135.44127,49.83699 -205.3765,61.58069 -45.21453,7.59253 -79.22642,10.45308 -123.5,10.3869 -81.31501,-0.12156 -134.03487,-11.90145 -182.19623,-40.7105 -41.16425,-24.62354 -69.32693,-54.98228 -79.64371,-85.85415 -4.91446,-14.70601 -4.50807,-22.15723 1.48342,-27.19873 6.50904,-5.477 11.7505,-2.8075 27.05823,13.78091 31.51812,34.155 87.77322,57.28762 152.60731,62.75356 17.74562,1.49608 63.7025,0.64413 80.58414,-1.49386 81.60937,-10.33551 149.46458,-28.64688 217.19384,-58.61182 147.0423,-65.05482 262.1804,-178.74691 296.7709,-293.04371 15.8459,-52.35947 11.5611,-103.13565 -11.5812,-137.2419 C 1270.9741,185.07034 1219.5649,158.28012 1154.5,146.09638 1101.1347,136.10344 1032.5879,135.35197 966,144.02987 839.19261,160.55572 709.05949,206.07674 564.5,284.47597 441.73677,351.05439 354.12791,413.29048 286.98246,481.6205 234.51182,535.01682 203.12808,582.59699 185.48399,635.5 c -9.98416,29.93593 -12.9974,49.25503 -12.94567,83 0.0358,23.33161 0.2199,25.85198 2.75914,37.76658 13.27094,62.26964 50.44106,115.23852 126.70254,180.5561 19.31461,16.54287 45.05948,37.07291 88,70.17492 65.76871,50.6998 89.47189,70.5831 120.1105,100.7542 l 20.61049,20.296 67.88951,-37.312 C 635.94972,1070.2142 686.975,1042.2297 712,1028.5481 l 45.5,-24.8757 5.49095,-7.5862 c 24.93871,-34.45483 67.13892,-73.45704 105.08533,-97.12179 24.25379,-15.12554 51.55847,-26.63053 72.42372,-30.51617 12.49265,-2.32644 33.15005,-1.59182 43,1.52918 17.209,5.45275 29.638,15.85076 37.6798,31.52258 9.2953,18.11482 12.2473,33.26934 12.1746,62.5 -0.039,15.86028 -0.5473,23.75361 -2.2438,34.87565 -1.9951,13.08075 -2.1871,18.09315 -0.5271,13.76745 0.3467,-0.9037 1.0691,-1.6431 1.6052,-1.6431 0.5361,0 2.8863,-1.5664 5.2227,-3.4809 6.2369,-5.1107 13.0298,-7.77755 21.0886,-8.27936 18.3903,-1.14515 39.7545,9.62626 45.4771,22.92856 4.0944,9.5179 3.053,15.9561 -10.8912,67.3317 -32.8592,121.0648 -45.4205,177.0385 -47.5758,212 -0.6763,10.9701 0.7974,30.3376 2.5589,33.629 1.0908,2.0382 1.1933,2.0099 4.6191,-1.2723 1.9269,-1.8462 5.4918,-6.7317 7.9221,-10.8567 6.3235,-10.7332 35.4425,-68.7705 46.879,-93.4352 19.0158,-41.0103 92.5262,-205.4287 125.2016,-280.03446 33.9052,-77.41362 34.787,-79.75748 45.1712,-120.06918 3.2641,-12.67136 6.6298,-24.70253 7.4794,-26.73593 3.774,-9.03244 25.6647,-16.52879 57.5146,-19.69556 15.1643,-1.50776 43.5616,-1.30027 52.306,0.38218 15.7779,3.03571 26.0294,9.28556 29.3066,17.86675 l 1.62,4.24188 -6.9987,20.98976 c -18.7459,56.22053 -22.8509,77.56114 -21.7992,113.32573 0.6408,21.79043 5.1734,55.52527 9.2607,68.92553 1.4179,4.6487 4.6013,13.1891 7.0742,18.9786 5.7592,13.4838 20.1575,42.2661 21.1303,42.2398 0.4093,-0.011 7.3412,-11.1486 15.4043,-24.75 66.1171,-111.53078 116.2077,-209.1296 123.2975,-240.23877 8.3006,-36.42167 17.7238,-68.40952 21.6067,-73.34586 4.5423,-5.77458 21.6198,-11.75894 43.4356,-15.22088 15.0915,-2.39486 53.8171,-3.08231 64,-1.13612 16.2371,3.10331 26.4695,9.17981 29.9014,17.75691 l 1.6316,4.07787 -9.0302,27.58756 c -10.4492,31.92252 -16.2778,54.60895 -18.5727,72.28939 -2.3538,18.13485 -1.5379,47.58038 1.9951,72 3.2623,22.54856 4.54,28.26167 9.1162,40.76377 4.4859,12.25518 38.4651,81.23623 40.0161,81.23623 0.6327,0 5.4838,-2.025 10.7803,-4.5001 48.9665,-22.8822 104.2779,-36.99238 163.0459,-41.5938 21.7594,-1.70372 69.8503,-0.63261 89.1344,1.98525 56.0838,7.61351 100.9332,22.92855 142.4819,48.65425 31.7473,19.6569 63.2994,50.0132 82.5843,79.4544 31.7985,48.545 43.5928,106.2662 31.3872,153.6094 -6.8749,26.6664 -19.9559,48.5629 -41.1849,68.9402 -13.0706,12.5461 -25.9668,21.7336 -41.2866,29.4133 -13.2852,6.6597 -21.072,9.0371 -29.5993,9.0371 -7.0858,0 -9.8161,-1.942 -10.5589,-7.5102 -0.7438,-5.5756 1.5855,-8.1565 15.5363,-17.2141 26.9845,-17.5199 43.05,-34.6663 54.2861,-57.9385 7.6145,-15.7711 10.1384,-26.7272 10.2137,-44.3372 0.093,-21.7584 -4.014,-39.0574 -14.4822,-61 -30.3289,-63.5735 -99.0643,-107.159 -193.1926,-122.5046 -83.4585,-13.6061 -164.1302,-7.6059 -230.9531,17.1779 -7.0125,2.6009 -12.7461,5.2009 -12.7414,5.7778 0,0.5769 1.8413,6.2239 4.0813,12.5489 9.6945,27.3738 14.331,52.0884 14.2577,76 -0.1194,38.9516 -15.1219,70.9322 -49.2811,105.052 -25.5018,25.4725 -57.1893,47.2334 -88.0665,60.4784 -14.8679,6.3777 -43.1685,16.5984 -53,19.1408 -12.8149,3.3138 -25.4775,4.0188 -34.3996,1.9151 -21.1878,-4.9959 -34.7975,-18.3805 -40.2519,-39.5863 -2.6458,-10.2864 -2.1888,-29.4262 1.0842,-45.4099 7.7884,-38.0339 24.3982,-72.2641 53.7577,-110.7862 17.8025,-23.3582 44.9797,-52.0275 67.0596,-70.7413 4.8125,-4.0788 8.75,-7.7865 8.75,-8.2393 0,-0.4528 -6.0197,-13.3108 -13.3771,-28.5733 -7.3574,-15.2625 -15.695,-33.5598 -18.528,-40.6608 -8.1548,-20.43997 -20.5271,-65.61672 -26.5893,-97.0892 -1.4832,-7.7 -2.903,-14.66266 -3.1552,-15.47257 -0.2521,-0.80992 -5.4256,8.19008 -11.4966,20 -35.085,68.25143 -67.9257,124.64997 -105.5667,181.29377 l -20.4814,30.8213 4.9879,12.6787 c 20.4225,51.9122 25.6915,93.051 17.0501,133.1221 -2.8478,13.2059 -7.0517,24.6582 -13.9698,38.0567 -20.9318,40.5394 -60.2759,71.6366 -120.7076,95.4061 -35.2329,13.858 -65.5407,19.918 -99.6663,19.9277 -24.9331,0.01 -36.5003,-3.1511 -46.3298,-12.6497 -11.4108,-11.0268 -13.6573,-24.6161 -7.0075,-42.3894 4.8246,-12.8948 23.5121,-36.9215 87.3408,-112.2947 31.0979,-36.7224 47.5929,-57.1541 55.4483,-68.6816 1.9515,-2.8637 7.6966,-10.8296 12.7668,-17.702 l 9.2186,-12.4952 -14.546,-29.8106 c -15.9781,-32.7458 -23.5078,-49.3674 -28.2269,-62.3106 -6.7447,-18.499 -18.1439,-61.69 -23.6212,-89.5 -3.6009,-18.28281 -3.3917,-17.84262 -5.7022,-12 -30.6461,77.4962 -74.563,176.9636 -105.0733,237.9806 -33.5714,67.1386 -89.366,170.7007 -102.4539,190.1678 -17.9302,26.6697 -40.8832,49.5399 -58.8137,58.6016 -20.436,10.328 -43.55447,6.7772 -59.43908,-9.1292 -22.55008,-22.5811 -31.07679,-71.7172 -24.48902,-141.1208 0.80919,-8.525 1.93982,-18.1342 2.51251,-21.3538 0.57269,-3.2196 0.85936,-6.0358 0.63705,-6.2581 -0.22232,-0.2223 -4.14256,8.7119 -8.71166,19.8539 -20.05005,48.8928 -50.79213,113.7971 -65.76459,138.8457 -20.02059,33.4939 -38.20251,49.4083 -62.28039,54.5129 -9.42802,1.9988 -33.4579,1.433 -42.46482,-0.9998 -25.09749,-6.7791 -43.33163,-26.1708 -63.09505,-67.1008 -20.37276,-42.1919 -31.93969,-90.5808 -33.11527,-138.5337 -1.20836,-49.2904 9.01951,-117.534 25.07934,-167.3372 2.4172,-7.496 4.16556,-13.6291 3.88524,-13.6291 C 698.30152,1113 573,1185.4223 573,1187.1289 c 0,0.5105 1.41427,3.7278 3.14282,7.1496 10.42744,20.6421 19.2517,53.9447 23.50865,88.7215 2.22885,18.2084 2.52423,67.1468 0.51907,86 -8.37191,78.7155 -34.42754,144.0153 -80.60115,202 -12.29173,15.4359 -43.31449,46.5985 -58.06939,58.3311 -56.24669,44.7255 -117.17443,71.0039 -183.5,79.1444 -15.70506,1.9275 -46.06948,2.674 -60.5,1.4874 z m 76.57378,-128.5751 c 32.45008,-5.5501 68.99991,-22.3898 100.92622,-46.5001 53.54296,-40.4348 94.83589,-101.6566 110.37953,-163.6511 9.19221,-36.6624 10.90326,-75.4548 5.01667,-113.7366 -1.36841,-8.8991 -7.20497,-36.5591 -7.86658,-37.2805 -0.14149,-0.1542 -14.60603,8.3402 -32.14343,18.8765 -72.33563,43.4588 -129.5718,84.7932 -173.88619,125.5759 -50.84608,46.7938 -81.88902,107.0179 -81.86906,158.8281 0.0127,32.897 11.51416,50.9076 36.7311,57.5186 9.29369,2.4364 29.5988,2.612 42.71174,0.3692 z M 1303.4193,1365.1846 c 20.7823,-9.7253 55.3875,-39.2477 71.2786,-60.8093 14.8309,-20.1232 24.1019,-46.2583 23.1274,-65.196 l -0.3253,-6.3207 -18.9733,24.3207 c -21.8982,28.07 -39.1712,48.317 -70.9106,83.1195 -12.4388,13.6394 -22.6161,25.3769 -22.6161,26.0834 0,0.7064 0.3375,1.6279 0.75,2.0476 1.5562,1.5835 11.0938,-0.1682 17.6693,-3.2452 z m -480.19662,-3.1109 c 15.80885,-10.0256 37.86565,-53.218 70.25409,-137.5737 5.91284,-15.4 13.79824,-35.65 17.52311,-45 27.11121,-68.0533 53.56709,-151.3708 59.98471,-188.90984 4.59767,-26.8935 1.26641,-34.58472 -14.98118,-34.58861 -16.76351,-0.004 -40.53427,13.60186 -62.72818,35.90424 -19.87189,19.96901 -41.66009,53.50981 -62.74798,96.59421 -25.56233,52.2261 -38.40355,99.355 -42.50534,156 -4.6089,63.6479 8.37246,120.5 27.51444,120.5 1.68965,0 5.1485,-1.3168 7.68633,-2.9263 z M 1623.5,1289.2638 c 31.0436,-12.9097 54.8602,-33.2101 68.3556,-58.2638 13.439,-24.9489 17.6455,-59.6376 10.641,-87.75 -1.5417,-6.1875 -3.1926,-11.25 -3.6687,-11.25 -1.7222,0 -26.5421,25.7594 -35.1688,36.5 -10.4512,13.0121 -21.6914,29.6808 -27.985,41.5 -9.8436,18.4863 -22.6362,51.3738 -25.2776,64.9843 -1.5182,7.8227 -1.1897,11.9543 1.2573,15.8154 1.6343,2.5787 2.0956,2.5189 11.8462,-1.5359 z"
       style="fill:#cc72a1" />
  </g>
</svg>
