<?xml version="1.0" encoding="UTF-8" standalone="no"?>
<svg
   xmlns:dc="http://purl.org/dc/elements/1.1/"
   xmlns:cc="http://creativecommons.org/ns#"
   xmlns:rdf="http://www.w3.org/1999/02/22-rdf-syntax-ns#"
   xmlns:svg="http://www.w3.org/2000/svg"
   xmlns="http://www.w3.org/2000/svg"
   viewBox="0 0 169.96677 201.85458"
   height="201.85458"
   width="169.96677"
   id="svg819"
   version="1.1">
  <metadata
     id="metadata825">
    <rdf:RDF>
      <cc:Work
         rdf:about="">
        <dc:format>image/svg+xml</dc:format>
        <dc:type
           rdf:resource="http://purl.org/dc/dcmitype/StillImage" />
        <dc:title></dc:title>
      </cc:Work>
    </rdf:RDF>
  </metadata>
  <defs
     id="defs823" />
  <g
     transform="translate(-922.02063,-514.62725)"
     id="g1372">
    <path
       id="path1376"
       d="m 1037.0501,716.16542 c -0.3935,-0.39756 -0.3617,-3.60671 0.036,-3.60671 0.1767,0 0.3213,0.87643 0.3213,1.94762 0,1.0712 -0.016,1.94762 -0.036,1.94762 -0.02,0 -0.1642,-0.12984 -0.3213,-0.28853 z m 5.4743,-14.85962 c 0,-7.2603 0.059,-10.23042 0.1303,-6.60027 0.072,3.63015 0.072,9.57039 0,13.20054 -0.072,3.63014 -0.1303,0.66002 -0.1303,-6.60027 z m -4.0461,0.4328 c 0,-9.66596 -0.025,-9.9545 -0.8569,-9.9545 -0.7338,0 -0.8465,-0.26428 -0.7849,-1.83942 0.071,-1.82335 0.074,-1.82563 0.2375,-0.26074 0.1169,1.11536 0.4101,1.64331 0.9991,1.7989 0.7955,0.21015 0.8336,0.67711 0.8336,10.21524 0,5.49726 -0.096,9.99503 -0.2142,9.99503 -0.1178,0 -0.2142,-4.47953 -0.2142,-9.95451 z m -42.30027,5.32653 c 0.41686,-0.10973 0.99525,-0.10252 1.28532,0.0161 0.29007,0.11856 -0.051,0.20834 -0.75792,0.19952 -0.70693,-0.009 -0.94426,-0.10582 -0.5274,-0.21556 z m 14.77297,0.0133 c 0.2946,-0.12007 0.7766,-0.12007 1.0711,0 0.2946,0.12006 0.054,0.2183 -0.5355,0.2183 -0.5891,0 -0.8301,-0.0982 -0.5356,-0.2183 z m 42.2095,-0.0133 c 0.4168,-0.10973 0.9952,-0.10252 1.2853,0.0161 0.2901,0.11856 -0.051,0.20834 -0.7579,0.19952 -0.7069,-0.009 -0.9443,-0.10582 -0.5274,-0.21556 z m -91.04389,-0.44654 c 0.77006,-0.0963 1.92684,-0.0943 2.57064,0.004 0.64379,0.0988 0.0138,0.17757 -1.4001,0.17514 -1.41385,-0.003 -1.94059,-0.0832 -1.17054,-0.17955 z m 36.62484,-1.63395 c 0.005,-0.95217 0.0925,-1.29074 0.19497,-0.75237 0.10248,0.53837 0.0986,1.31742 -0.009,1.73122 -0.10724,0.4138 -0.19109,-0.0267 -0.18633,-0.97885 z m 27.48095,0.90216 c -0.128,-0.33695 -0.1509,-1.16469 -0.051,-1.83942 0.1554,-1.04782 0.1913,-0.99365 0.2462,0.37136 0.062,1.55335 0.1152,1.60278 1.885,1.76381 l 1.8209,0.16568 -1.8343,0.0756 c -1.2407,0.0512 -1.9096,-0.12264 -2.067,-0.53704 z m -43.90212,-1.01037 -1.03867,-1.19021 1.1782,1.04925 c 1.10122,0.98069 1.37469,1.33118 1.03867,1.33118 -0.0767,0 -0.60693,-0.5356 -1.1782,-1.19022 z m 9.88653,0.10821 c 0.55344,-0.59511 1.10265,-1.08202 1.22047,-1.08202 0.11782,0 -0.23859,0.48691 -0.79203,1.08202 -0.55343,0.5951 -1.10264,1.08201 -1.22046,1.08201 -0.11782,0 0.23859,-0.48691 0.79202,-1.08201 z m 26.80499,-0.34327 c 0.1609,-0.42684 0.4005,-0.66705 0.5324,-0.5338 0.1319,0.13326 3e-4,0.48249 -0.2925,0.77608 -0.4232,0.42426 -0.4724,0.37455 -0.2399,-0.24228 z m -10.5567,-2.79457 -1.0387,-1.19021 1.1782,1.04925 c 1.1012,0.98069 1.3747,1.33118 1.0387,1.33118 -0.077,0 -0.6069,-0.5356 -1.1782,-1.19022 z m -11.36014,-6.38386 c -4.3e-4,-4.04672 0.0639,-5.76046 0.1431,-3.80829 0.0792,1.95216 0.0796,5.26311 8.6e-4,7.35767 -0.0787,2.09456 -0.14351,0.49734 -0.144,-3.54938 z m 59.84004,6.456 c 0.021,-0.5042 0.1221,-0.60675 0.2588,-0.26149 0.1238,0.31243 0.1086,0.68573 -0.034,0.82954 -0.1423,0.14382 -0.2436,-0.11181 -0.225,-0.56805 z m 3.8898,-0.18034 c 0,-0.5951 0.097,-0.83856 0.2161,-0.541 0.1188,0.29755 0.1188,0.78445 0,1.08201 -0.1189,0.29755 -0.2161,0.0541 -0.2161,-0.54101 z m -80.09486,-4.83895 c -0.0876,-4.86467 -0.12736,-5.06242 -1.05498,-5.24291 l -0.96399,-0.18757 0.97743,-0.0589 c 0.53759,-0.0324 1.07467,0.19703 1.19351,0.50989 0.11884,0.31284 0.15374,2.69868 0.0776,5.30185 l -0.13853,4.73303 z m 12.33375,-0.30422 c 0,-4.34638 -0.0662,-4.72786 -0.85688,-4.93674 -0.68709,-0.18151 -0.84261,-0.55599 -0.78486,-1.88989 l 0.072,-1.66354 0.16544,1.57868 c 0.11689,1.11536 0.41011,1.64331 0.99908,1.7989 0.76269,0.20148 0.83363,0.62884 0.83363,5.02159 0,2.64075 -0.0964,4.80137 -0.21422,4.80137 -0.11782,0 -0.21422,-2.11967 -0.21422,-4.71037 z m 54.09641,4.3998 c 0.6512,-0.0995 1.6152,-0.0968 2.1422,0.006 0.5269,0.10273 -0.01,0.18413 -1.1841,0.18088 -1.1782,-0.003 -1.6094,-0.0873 -0.9581,-0.18679 z m -43.6855,-3.15187 c 0,-1.30923 0.08,-1.84483 0.1785,-1.19021 0.098,0.65462 0.098,1.72581 0,2.38042 -0.098,0.65462 -0.1785,0.11903 -0.1785,-1.19021 z m 3.8373,1.73122 c 0.1434,-0.53222 1.3031,-0.67077 6.4362,-0.76885 l 6.2613,-0.11963 0.1738,-2.04439 0.1739,-2.04438 -0.044,2.16402 -0.044,2.16402 -6.1947,0.12064 c -4.2697,0.0831 -6.3102,0.28488 -6.5663,0.64921 -0.2677,0.38076 -0.3227,0.34702 -0.1967,-0.12064 z m 50.1307,-5.50423 c 0.6513,-0.0995 1.6153,-0.0968 2.1422,0.006 0.527,0.10273 -0.01,0.18412 -1.1841,0.18088 -1.1782,-0.003 -1.6093,-0.0873 -0.9581,-0.18679 z m -48.7409,-0.98784 c 0.4265,-0.47608 0.8719,-0.86561 0.9897,-0.86561 0.1178,0 -0.1347,0.38953 -0.5612,0.86561 -0.4265,0.47609 -0.8719,0.86561 -0.9897,0.86561 -0.1178,0 0.1347,-0.38952 0.5612,-0.86561 z m 47.1559,-0.30593 c -0.2325,-0.61684 -0.1833,-0.66655 0.2399,-0.24229 0.2928,0.29359 0.4244,0.64282 0.2925,0.77608 -0.1319,0.13325 -0.3715,-0.10695 -0.5324,-0.53379 z m -43.5945,-1.28813 c 0.3093,-0.12503 0.6788,-0.10966 0.8212,0.0341 0.1424,0.14382 -0.1107,0.24611 -0.5623,0.22732 -0.4991,-0.0208 -0.6006,-0.12332 -0.2589,-0.26148 z m 5.3952,-1.54377 -0.8162,-0.97381 0.964,0.82449 c 0.9059,0.77481 1.159,1.12313 0.8161,1.12313 -0.081,0 -0.5151,-0.43821 -0.9639,-0.97381 z m 41.3304,-0.2164 c -0.5329,-0.68646 -0.5177,-0.70176 0.1618,-0.16341 0.7137,0.5654 0.9406,0.92082 0.588,0.92082 -0.089,0 -0.4264,-0.34084 -0.7498,-0.75741 z m -47.6092,-1.71206 c 0.5302,-0.10316 1.3978,-0.10316 1.928,0 0.5302,0.10316 0.096,0.18756 -0.964,0.18756 -1.0604,0 -1.4942,-0.0844 -0.964,-0.18756 z m 41.9871,0.0188 c 0.2945,-0.12007 0.7765,-0.12007 1.071,0 0.2946,0.12006 0.054,0.2183 -0.5355,0.2183 -0.5891,0 -0.8301,-0.0982 -0.5355,-0.2183 z m -13.531,-3.96063 c -0.072,-1.85802 -0.065,-1.8662 1.3204,-1.73122 1.3064,0.12724 1.3956,0.24258 1.4435,1.86684 l 0.051,1.73122 -0.184,-1.62302 c -0.1552,-1.36864 -0.3439,-1.62304 -1.2035,-1.62304 -0.8624,0 -1.0452,0.24987 -1.1874,1.62302 l -0.1681,1.62302 -0.072,-1.86684 z m -87.04522,-4.84165 -2.35642,-0.29172 2.22402,-0.0705 c 1.22321,-0.0388 2.34318,0.12422 2.48882,0.36226 0.14563,0.23804 0.20521,0.40106 0.13239,0.36226 -0.0728,-0.0388 -1.19278,-0.20182 -2.48881,-0.36226 z m 19.60878,-0.31367 c 0.77005,-0.0963 1.92684,-0.0943 2.57064,0.004 0.64379,0.0987 0.0138,0.17756 -1.40011,0.17514 -1.41385,-0.003 -1.94059,-0.0832 -1.17053,-0.17956 z m 31.01884,-21.21835 c -1.6281,-2.797 -3.3756,-5.86451 -3.88336,-6.81668 -0.50779,-0.95217 -1.27657,-2.3155 -1.70842,-3.02963 -0.43184,-0.71412 -1.17694,-1.98008 -1.65576,-2.81323 -0.47882,-0.83314 -1.85573,-3.22788 -3.05978,-5.32164 -1.20405,-2.09375 -2.18919,-3.92974 -2.18919,-4.07996 0,-0.15024 -0.66178,-1.26121 -1.47062,-2.46885 -0.80884,-1.20763 -2.05846,-3.26688 -2.77693,-4.57612 -2.82885,-5.15487 -3.49731,-6.33934 -4.51869,-8.00688 -0.58321,-0.95217 -2.01633,-3.48408 -3.18471,-5.62646 -1.16837,-2.14238 -2.2912,-4.09 -2.49516,-4.32804 -0.44147,-0.51523 -4.97984,-8.43138 -5.20263,-9.07479 -0.0851,-0.2458 -0.58706,-1.12858 -1.11546,-1.96173 -1.27138,-2.00464 -5.64666,-9.61727 -5.85193,-10.18187 -0.0887,-0.24408 -1.47535,-2.6786 -3.08138,-5.41006 -1.60602,-2.73145 -3.0889,-5.25842 -3.2953,-5.61549 -3.56958,-6.17552 -4.76902,-8.26896 -5.50131,-9.60167 -0.48196,-0.87714 -1.393,-2.42166 -2.02453,-3.43227 -0.63154,-1.01061 -1.41989,-2.43533 -1.7519,-3.16606 -0.332,-0.73072 -1.20573,-2.30239 -1.94162,-3.4926 -2.75064,-4.44885 -8.91432,-15.36697 -8.91432,-15.79052 0,-0.24181 -0.17032,-0.43965 -0.37847,-0.43965 -0.20816,0 -0.49388,-0.34083 -0.63493,-0.75741 -0.14105,-0.41657 -0.83751,-1.73122 -1.5477,-2.92143 -0.71018,-1.19021 -1.4224,-2.44256 -1.58272,-2.78299 -0.16032,-0.34043 -0.93232,-1.60194 -1.71557,-2.80335 -0.78325,-1.20142 -1.42409,-2.36827 -1.42409,-2.593 0,-0.22472 -0.26888,-0.71607 -0.59751,-1.09188 -0.32863,-0.3758 -1.25272,-1.94924 -2.05355,-3.49651 -0.80082,-1.54728 -1.94381,-3.59228 -2.53997,-4.54445 -0.59617,-0.95217 -1.21611,-2.02336 -1.37765,-2.38042 -0.16154,-0.35707 -0.68666,-1.30555 -1.16692,-2.10775 -0.48026,-0.80219 -0.816,-1.51469 -0.74608,-1.58332 0.0699,-0.0686 14.70422,-0.26037 32.52068,-0.42608 l 32.39357,-0.30128 2.55297,4.48144 c 1.40413,2.46479 5.78262,10.09995 9.72999,16.96702 3.94735,6.86707 7.11075,12.55249 7.02985,12.63425 -0.081,0.0818 -4.4803,-7.43074 -9.77637,-16.69446 l -9.62921,-16.84314 -15.53093,-0.011 c -8.54202,-0.006 -15.53094,0.0683 -15.53094,0.16525 0,0.0969 1.37898,2.58013 3.06439,5.51826 1.68542,2.93812 4.06376,7.0949 5.28521,9.23728 1.22145,2.14238 5.85574,10.22501 10.29841,17.96139 4.44268,7.73638 9.64304,16.79281 11.55636,20.12541 1.91332,3.33259 4.99325,8.68855 6.84429,11.90212 3.45221,5.99336 10.70019,18.68269 12.54599,21.96483 0.569,1.01168 1.1939,1.83942 1.3888,1.83942 0.1949,0 1.2642,-1.60679 2.3764,-3.57064 1.1121,-1.96385 3.703,-6.49207 5.7575,-10.0627 2.0545,-3.57064 5.5707,-9.70564 7.8139,-13.63335 6.8127,-11.92881 16.4827,-28.78408 21.1058,-36.78838 7.8959,-13.67083 13.9316,-24.27363 13.9316,-24.47349 0,-0.108 -6.989,-0.19131 -15.531,-0.18514 l -15.5309,0.0112 -9.6332,16.83889 c -5.2982,9.26138 -9.6981,16.77323 -9.7775,16.69299 -0.079,-0.0802 4.2456,-7.79161 9.6112,-17.13637 l 9.7557,-16.99048 24.0145,0.28584 c 13.208,0.15721 27.9084,0.28602 32.6675,0.28626 l 8.653,4.2e-4 -3.0249,5.06694 c -1.6637,2.78682 -3.4269,5.90302 -3.9184,6.92487 -0.4914,1.02186 -1.0479,1.85793 -1.2366,1.85793 -0.1887,0 -0.3431,0.19977 -0.3431,0.44394 0,0.37785 -5.3615,9.90963 -8.4651,15.0496 -0.5322,0.88123 -1.5459,2.67343 -2.2527,3.98266 -0.7068,1.30924 -1.4749,2.67257 -1.7068,3.02963 -0.2319,0.35707 -1.4176,2.40207 -2.6349,4.54445 -4.971,8.74913 -6.4575,11.33448 -7.4652,12.98414 -0.5817,0.95217 -1.1824,2.02336 -1.3349,2.38042 -0.1525,0.35706 -0.7918,1.42826 -1.4206,2.38043 -0.6289,0.95216 -1.4147,2.36419 -1.7463,3.13783 -0.3315,0.77364 -0.7485,1.40661 -0.9266,1.40661 -0.1781,0 -0.3239,0.19249 -0.3239,0.42774 0,0.23526 -1.1568,2.39577 -2.5706,4.80112 -1.4139,2.40535 -2.5707,4.55001 -2.5707,4.76591 0,0.2159 -0.1739,0.39254 -0.3865,0.39254 -0.2126,0 -0.5973,0.5356 -0.8549,1.19021 -0.5934,1.50791 -2.1246,4.23931 -7.159,12.77073 -2.2134,3.75081 -4.0243,7.01308 -4.0243,7.24947 0,0.2364 -0.1446,0.43026 -0.3213,0.43081 -0.1768,4.3e-4 -0.8851,1.16912 -1.5742,2.59683 -0.6891,1.4277 -1.3887,2.59583 -1.5547,2.59583 -0.166,0 -0.5568,0.63298 -0.8684,1.40661 -0.3116,0.77364 -1.4436,2.86625 -2.5155,4.65025 -2.3571,3.92306 -2.4375,4.06444 -4.2413,7.46619 -0.7895,1.48892 -1.9079,3.34009 -2.4853,4.11373 -0.5774,0.77364 -0.8954,1.4096 -0.7067,1.41324 0.1887,0.003 0.1393,0.14972 -0.1099,0.32461 -0.2491,0.17488 -1.2893,1.87607 -2.3115,3.78041 -1.0222,1.90434 -1.9751,3.55982 -2.1176,3.67884 -0.1425,0.11902 -0.7081,1.09283 -1.2569,2.16402 -0.868,1.69435 -2.9815,5.38525 -6.3843,11.14932 -0.5255,0.89013 -1.0913,1.91055 -1.2574,2.26762 -0.7828,1.68296 -2.8277,4.76085 -3.163,4.76085 -0.2065,0 -1.7074,-2.28846 -3.3354,-5.08545 z"
       style="fill:#67b080;stroke-width:0.43061647" />
    <path
       id="path1374"
       d="m 1037.4786,716.16542 c -0.6232,-0.62954 -0.2587,-3.00482 0.5712,-3.72268 0.811,-0.70146 0.8569,-1.27675 0.8569,-10.74042 0,-9.63527 -0.031,-10.0075 -0.8569,-10.22562 -0.6438,-0.1701 -0.8568,-0.59035 -0.8568,-1.6907 v -1.46434 h 2.5706 2.5706 v 13.20054 c 0,12.62347 -0.037,13.23838 -0.8568,14.06615 -0.8296,0.83799 -3.3767,1.20557 -3.9988,0.57707 z m -52.35713,-9.69355 c -0.71578,-0.21028 -1.87256,-0.98373 -2.57064,-1.71878 -1.25328,-1.31966 -1.27192,-1.41088 -1.48344,-7.26092 -0.20752,-5.73906 -0.24439,-5.9288 -1.17821,-6.06278 -0.78575,-0.11273 -0.96399,-0.41283 -0.96399,-1.62301 v -1.48472 h 2.78485 2.78486 v 6.51174 c 0,6.33663 0.0283,6.54031 1.05163,7.57408 1.51945,1.53494 4.78696,1.50627 6.62741,-0.0581 l 1.31819,-1.12049 V 696.466 c 0,-4.39891 -0.0655,-4.7802 -0.85688,-4.98926 -0.64388,-0.1701 -0.85688,-0.59035 -0.85688,-1.6907 v -1.46434 h 2.57064 2.57064 v 7.13761 c 0,6.66888 0.0563,7.17311 0.85688,7.67819 0.61358,0.38709 0.85688,1.00931 0.85688,2.1914 v 1.65082 l -2.03509,-0.13191 c -1.80909,-0.11727 -2.11186,-0.28714 -2.72637,-1.52969 l -0.69129,-1.39778 -0.80825,0.9165 c -1.63283,1.85152 -4.3944,2.47424 -7.25094,1.63507 z m 22.32663,-0.49223 c -2.4902,-1.47304 -3.6486,-4.05388 -3.6519,-8.13628 0,-3.96495 0.9257,-6.29015 3.2189,-8.05713 1.3953,-1.07515 2.0699,-1.2682 4.8666,-1.39274 2.8358,-0.12628 3.4314,-0.0168 4.7068,0.86561 2.4856,1.71968 3.2076,3.08569 3.3942,6.42223 l 0.1681,3.00395 -6.3672,0.12005 -6.3672,0.12004 0.1083,1.08201 c 0.06,0.59511 0.6892,1.61761 1.3992,2.27223 1.0647,0.98162 1.685,1.19021 3.5398,1.19021 1.4134,0 2.8297,-0.31448 3.8123,-0.84649 l 1.5634,-0.84648 0.6796,1.04766 c 0.3737,0.57621 0.6795,1.26023 0.6795,1.52003 0,0.896 -4.0066,2.29176 -7.0693,2.46271 -2.5412,0.14185 -3.2558,0.0155 -4.6811,-0.82761 z m 9.1798,-10.92537 c 0,-0.58184 -0.4515,-1.58811 -1.0033,-2.23616 -0.8101,-0.95136 -1.3674,-1.17828 -2.8938,-1.17828 -1.0398,0 -2.3339,0.23965 -2.8756,0.53256 -0.9092,0.49155 -2.6477,2.86192 -2.6514,3.61515 -9e-4,0.17853 2.1192,0.3246 4.7112,0.3246 4.7128,0 4.7129,-2e-5 4.7129,-1.05787 z m 32.7756,11.22604 c -2.0847,-0.74683 -3.2133,-2.05483 -3.2133,-3.72404 0,-1.1935 0.088,-1.25047 1.928,-1.25047 1.3944,0 1.9279,0.17286 1.9279,0.62466 0,1.85125 4.6138,2.67648 6.4709,1.1574 0.8678,-0.70986 0.9324,-0.95588 0.5017,-1.91069 -0.3703,-0.82101 -1.3221,-1.40376 -3.7941,-2.32307 -5.3556,-1.99164 -7.0018,-4.21233 -5.4704,-7.37913 0.9556,-1.97595 3.0175,-3.10435 5.7195,-3.1301 4.1673,-0.0397 6.855,1.67102 6.855,4.36321 0,1.17092 -0.1018,1.24004 -1.8264,1.24004 -1.4789,0 -1.9068,-0.18412 -2.2493,-0.9677 -0.8972,-2.0528 -4.6739,-2.12728 -5.1771,-0.1021 -0.384,1.5457 0.3374,2.18523 4.0015,3.54756 4.2452,1.57835 5.6797,2.91327 5.6797,5.28519 0,0.98406 -0.3006,2.25274 -0.6681,2.81929 -1.4274,2.20074 -6.9175,3.09984 -10.6855,1.74995 z m -92.54065,-11.35838 c -2.30592,-6.36763 -4.28258,-11.82097 -4.39258,-12.11852 -0.11001,-0.29756 -0.56497,-0.54101 -1.01105,-0.54101 -0.64355,0 -0.81104,-0.3175 -0.81104,-1.53743 v -1.53744 l 2.24891,0.13082 2.24892,0.13082 3.85635,10.90449 c 2.12099,5.99747 3.97772,11.02159 4.12607,11.16471 0.14835,0.14313 1.04912,-1.95838 2.00171,-4.67003 0.9526,-2.71165 2.75461,-7.78446 4.00446,-11.27292 l 2.27247,-6.34265 h 2.25952 2.25952 v 1.48471 c 0,1.18484 -0.18495,1.51265 -0.91572,1.62302 -0.78261,0.1182 -1.54293,1.88418 -5.23043,12.14863 l -4.3147,12.01032 h -2.20492 -2.20491 z m 69.61915,9.6299 c 0,-1.47875 0.041,-1.51481 1.7137,-1.51481 1.673,0 1.7138,0.0361 1.7138,1.51481 0,1.47875 -0.041,1.51482 -1.7138,1.51482 -1.6729,0 -1.7137,-0.0361 -1.7137,-1.51482 z m 13.71,-20.34181 c 0,-1.32727 0.1326,-1.51482 1.0711,-1.51482 0.9385,0 1.0711,0.18755 1.0711,1.51482 0,1.32727 -0.1326,1.51482 -1.0711,1.51482 -0.9385,0 -1.0711,-0.18755 -1.0711,-1.51482 z m -34.8079,-82.12465 c -1.8458,-3.28214 -9.09378,-15.97147 -12.54599,-21.96483 -1.85104,-3.21357 -4.93097,-8.56953 -6.84429,-11.90212 -1.91332,-3.3326 -7.11368,-12.38903 -11.55636,-20.12541 -4.44267,-7.73638 -9.07696,-15.81901 -10.29841,-17.96139 -1.22145,-2.14238 -3.59979,-6.29916 -5.28521,-9.23728 -1.68541,-2.93813 -3.06439,-5.42135 -3.06439,-5.51826 0,-0.0969 6.98892,-0.17128 15.53094,-0.16525 l 15.53093,0.011 9.63989,16.86708 c 5.94429,10.40085 9.88629,16.86624 10.28259,16.8649 0.3943,-10e-4 4.3666,-6.51719 10.2825,-16.86682 l 9.6399,-16.86463 15.5309,-0.0112 c 8.542,-0.006 15.531,0.0771 15.531,0.18514 0,0.19986 -6.0357,10.80266 -13.9316,24.47349 -4.6231,8.0043 -14.2931,24.85957 -21.1058,36.78838 -2.2432,3.92771 -5.7594,10.06271 -7.8139,13.63335 -2.0545,3.57063 -4.6454,8.09885 -5.7575,10.0627 -1.1122,1.96385 -2.1815,3.57064 -2.3764,3.57064 -0.1949,0 -0.8198,-0.82774 -1.3888,-1.83942 z"
       style="fill:#38495c;stroke-width:0.43061647" />
  </g>
</svg>
