<?xml version="1.0" encoding="UTF-8" standalone="no"?>
<!-- Created with Inkscape (http://www.inkscape.org/) -->

<svg
   xmlns:dc="http://purl.org/dc/elements/1.1/"
   xmlns:cc="http://creativecommons.org/ns#"
   xmlns:rdf="http://www.w3.org/1999/02/22-rdf-syntax-ns#"
   xmlns:svg="http://www.w3.org/2000/svg"
   xmlns="http://www.w3.org/2000/svg"
   xmlns:sodipodi="http://sodipodi.sourceforge.net/DTD/sodipodi-0.dtd"
   xmlns:inkscape="http://www.inkscape.org/namespaces/inkscape"
   version="1.1"
   id="svg2"
   width="414.3132"
   height="160.80197"
   viewBox="0 0 414.3132 160.80197"
   sodipodi:docname="webgl.svg"
   inkscape:version="0.92.3 (2405546, 2018-03-11)">
  <metadata
     id="metadata8">
    <rdf:RDF>
      <cc:Work
         rdf:about="">
        <dc:format>image/svg+xml</dc:format>
        <dc:type
           rdf:resource="http://purl.org/dc/dcmitype/StillImage" />
        <dc:title></dc:title>
      </cc:Work>
    </rdf:RDF>
  </metadata>
  <defs
     id="defs6" />
  <sodipodi:namedview
     pagecolor="#ffffff"
     bordercolor="#666666"
     borderopacity="1"
     objecttolerance="10"
     gridtolerance="10"
     guidetolerance="10"
     inkscape:pageopacity="0"
     inkscape:pageshadow="2"
     inkscape:window-width="1366"
     inkscape:window-height="705"
     id="namedview4"
     showgrid="false"
     fit-margin-top="0"
     fit-margin-left="0"
     fit-margin-right="0"
     fit-margin-bottom="0"
     inkscape:zoom="1.2033333"
     inkscape:cx="190.69565"
     inkscape:cy="98.466058"
     inkscape:window-x="-8"
     inkscape:window-y="-8"
     inkscape:window-maximized="1"
     inkscape:current-layer="svg2" />
  <g
     id="g817"
     transform="translate(-785.85938,-340.08787)">
    <path
       style="fill:#b25a5e;stroke-width:0.33300653"
       d="m 926.70659,500.76347 c 0.90753,-0.0664 2.30555,-0.0656 3.1067,0.002 0.80116,0.0674 0.0586,0.1217 -1.65006,0.12072 -1.70869,-9.7e-4 -2.36418,-0.0561 -1.45664,-0.1225 z m 15.35964,9.6e-4 c 0.8119,-0.0679 2.05458,-0.0669 2.76152,0.002 0.70693,0.069 0.0426,0.12456 -1.47618,0.12339 -1.51884,-10e-4 -2.09724,-0.0576 -1.28534,-0.12551 z m -22.79164,-0.3124 c 0.42718,-0.0766 1.12619,-0.0766 1.55336,0 0.42717,0.0766 0.0777,0.13922 -0.77668,0.13922 -0.85434,0 -1.20385,-0.0627 -0.77668,-0.13922 z m 30.72188,0 c 0.42717,-0.0766 1.12618,-0.0766 1.55335,0 0.42717,0.0766 0.0777,0.13922 -0.77668,0.13922 -0.85434,0 -1.20384,-0.0627 -0.77667,-0.13922 z m -35.38193,-0.31599 c 0.33224,-0.0808 0.87591,-0.0808 1.20816,0 0.33224,0.0808 0.0604,0.14692 -0.60408,0.14692 -0.66449,0 -0.93633,-0.0661 -0.60408,-0.14692 z m 40.5638,-0.006 c 0.42938,-0.0768 1.05072,-0.0739 1.38076,0.006 0.33003,0.0804 -0.0213,0.14328 -0.78071,0.13972 -0.75941,-0.004 -1.02944,-0.0694 -0.60005,-0.1462 z m -44.35432,-0.31667 c 0.33586,-0.0815 0.80186,-0.0761 1.03557,0.0119 0.2337,0.088 -0.0411,0.15464 -0.61065,0.1481 -0.56957,-0.007 -0.76078,-0.0786 -0.42492,-0.16 z m 48.32654,0 c 0.33586,-0.0815 0.80187,-0.0761 1.03557,0.0119 0.2337,0.088 -0.0411,0.15464 -0.61065,0.1481 -0.56956,-0.007 -0.76078,-0.0786 -0.42492,-0.16 z m -51.77844,-0.32125 c 0.33586,-0.0815 0.80187,-0.0761 1.03557,0.0119 0.23371,0.088 -0.0411,0.15464 -0.61065,0.14809 -0.56956,-0.007 -0.76078,-0.0785 -0.42492,-0.15999 z m 55.23034,0 c 0.33586,-0.0815 0.80186,-0.0761 1.03557,0.0119 0.2337,0.088 -0.0411,0.15464 -0.61065,0.14809 -0.56957,-0.007 -0.76078,-0.0785 -0.42492,-0.15999 z m -58.17102,-0.3114 c 0.23732,-0.0891 0.62566,-0.0891 0.86298,0 0.23731,0.0891 0.0431,0.16204 -0.43149,0.16204 -0.47464,0 -0.66881,-0.0729 -0.43149,-0.16204 z m 61.09856,0 c 0.23732,-0.0891 0.62566,-0.0891 0.86297,0 0.23732,0.0891 0.0431,0.16204 -0.43148,0.16204 -0.47464,0 -0.66881,-0.0729 -0.43149,-0.16204 z m -63.86007,-0.32125 c 0.23731,-0.0891 0.62565,-0.0891 0.86297,0 0.23732,0.0891 0.0431,0.16204 -0.43149,0.16204 -0.47463,0 -0.6688,-0.0729 -0.43148,-0.16204 z m 66.64316,-0.007 c 0.24918,-0.0928 0.54691,-0.0814 0.66162,0.0253 0.1147,0.10675 -0.0892,0.18268 -0.45307,0.16873 -0.40212,-0.0154 -0.48392,-0.0915 -0.20855,-0.19409 z m -69.03792,-0.32126 c 0.24918,-0.0928 0.54691,-0.0814 0.66162,0.0253 0.1147,0.10675 -0.0892,0.18268 -0.45306,0.16873 -0.40213,-0.0154 -0.48393,-0.0915 -0.20856,-0.19409 z m 71.45425,0 c 0.24918,-0.0928 0.54691,-0.0814 0.66161,0.0253 0.11471,0.10675 -0.0892,0.18268 -0.45306,0.16873 -0.40213,-0.0154 -0.48392,-0.0915 -0.20855,-0.19409 z m -73.87057,-0.32125 c 0.24918,-0.0928 0.54691,-0.0814 0.66161,0.0254 0.1147,0.10675 -0.0892,0.18268 -0.45306,0.16873 -0.40213,-0.0154 -0.48392,-0.0915 -0.20855,-0.19409 z m 76.2869,0 c 0.24918,-0.0928 0.54691,-0.0814 0.66161,0.0254 0.1147,0.10675 -0.0892,0.18268 -0.45306,0.16873 -0.40213,-0.0154 -0.48392,-0.0915 -0.20855,-0.19409 z m -78.35804,-0.32125 c 0.24918,-0.0928 0.54691,-0.0814 0.66161,0.0253 0.11471,0.10675 -0.0892,0.18268 -0.45306,0.16873 -0.40213,-0.0154 -0.48392,-0.0915 -0.20855,-0.19409 z m 80.42917,0 c 0.24918,-0.0928 0.54691,-0.0814 0.66162,0.0253 0.1147,0.10675 -0.0892,0.18268 -0.45306,0.16873 -0.40213,-0.0154 -0.48393,-0.0915 -0.20856,-0.19409 z m -82.50031,-0.32126 c 0.24918,-0.0928 0.54691,-0.0814 0.66161,0.0254 0.11471,0.10675 -0.0892,0.18268 -0.45306,0.16873 -0.40213,-0.0154 -0.48392,-0.0915 -0.20855,-0.19409 z m 84.57145,0 c 0.24918,-0.0928 0.54691,-0.0814 0.66161,0.0254 0.11471,0.10675 -0.0892,0.18268 -0.45306,0.16873 -0.40213,-0.0154 -0.48392,-0.0915 -0.20855,-0.19409 z m -86.64259,-0.32125 c 0.24918,-0.0928 0.54691,-0.0814 0.66162,0.0253 0.1147,0.10675 -0.0892,0.18267 -0.45306,0.16873 -0.40213,-0.0154 -0.48393,-0.0915 -0.20856,-0.19409 z m -1.72595,-0.32125 c 0.24919,-0.0928 0.54692,-0.0814 0.66162,0.0253 0.1147,0.10675 -0.0892,0.18268 -0.45306,0.16873 -0.40213,-0.0154 -0.48392,-0.0915 -0.20856,-0.19409 z m 92.16563,0 c 0.24918,-0.0928 0.54691,-0.0814 0.66161,0.0253 0.1147,0.10675 -0.0892,0.18268 -0.45306,0.16873 -0.40213,-0.0154 -0.48392,-0.0915 -0.20855,-0.19409 z m 1.72594,-0.32126 c 0.24919,-0.0928 0.54692,-0.0814 0.66162,0.0254 0.1147,0.10675 -0.0892,0.18268 -0.45306,0.16873 -0.40213,-0.0154 -0.48392,-0.0915 -0.20856,-0.19409 z m -97.34346,-0.32125 c 0.24918,-0.0928 0.54691,-0.0814 0.66161,0.0254 0.11471,0.10675 -0.0892,0.18267 -0.45306,0.16873 -0.40213,-0.0154 -0.48392,-0.0915 -0.20855,-0.19409 z m 99.06941,0 c 0.24918,-0.0928 0.54691,-0.0814 0.66162,0.0254 0.1147,0.10675 -0.0892,0.18267 -0.45307,0.16873 -0.40212,-0.0154 -0.48392,-0.0915 -0.20855,-0.19409 z m 3.10671,-0.64251 c 0.24918,-0.0928 0.54691,-0.0814 0.66161,0.0254 0.11471,0.10675 -0.0892,0.18268 -0.45306,0.16873 -0.40213,-0.0154 -0.48392,-0.0915 -0.20855,-0.19409 z m -27.29155,-12.22604 c 1.18659,-0.0627 3.12828,-0.0627 4.31487,0 1.18659,0.0627 0.21574,0.11406 -2.15744,0.11406 -2.37318,0 -3.34402,-0.0513 -2.15743,-0.11406 z m -11.38508,-0.31622 c 0.62043,-0.0715 1.55244,-0.07 2.07114,0.003 0.5187,0.0733 0.0111,0.1318 -1.12805,0.12999 -1.13912,-0.002 -1.56351,-0.0618 -0.94309,-0.13327 z m 25.53785,3.2e-4 c 0.61703,-0.0713 1.62671,-0.0713 2.24373,0 0.61703,0.0713 0.11219,0.12957 -1.12186,0.12957 -1.23406,0 -1.7389,-0.0583 -1.12187,-0.12957 z m -31.06706,-0.31558 c 0.42717,-0.0766 1.12618,-0.0766 1.55335,0 0.42717,0.0766 0.0777,0.13923 -0.77668,0.13923 -0.85434,0 -1.20385,-0.0627 -0.77667,-0.13923 z m 37.28047,0 c 0.42717,-0.0766 1.12618,-0.0766 1.55336,0 0.42717,0.0766 0.0777,0.13923 -0.77668,0.13923 -0.85435,0 -1.20385,-0.0627 -0.77668,-0.13923 z m -41.24359,-0.31716 c 0.33586,-0.0815 0.80187,-0.0761 1.03557,0.0119 0.23371,0.088 -0.0411,0.15464 -0.61065,0.1481 -0.56956,-0.007 -0.76077,-0.0786 -0.42492,-0.16 z m 46.25541,0 c 0.33586,-0.0815 0.80186,-0.0761 1.03557,0.0119 0.2337,0.088 -0.0411,0.15464 -0.61065,0.1481 -0.56956,-0.007 -0.76078,-0.0786 -0.42492,-0.16 z M 935.67767,482.144 c 0.33586,-0.0814 0.80186,-0.0761 1.03557,0.0119 0.2337,0.088 -0.0411,0.15464 -0.61065,0.14809 -0.56957,-0.007 -0.76078,-0.0785 -0.42492,-0.15999 z m 53.84958,0 c 0.33585,-0.0814 0.80186,-0.0761 1.03556,0.0119 0.23371,0.088 -0.0411,0.15464 -0.61065,0.14809 -0.56956,-0.007 -0.76077,-0.0785 -0.42491,-0.15999 z m -56.79026,-0.31128 c 0.23732,-0.0891 0.62565,-0.0891 0.86297,0 0.23732,0.0891 0.0431,0.16203 -0.43148,0.16203 -0.47464,0 -0.66881,-0.0729 -0.43149,-0.16203 z m 60.06299,0 c 0.23732,-0.0891 0.62565,-0.0891 0.86297,0 0.23732,0.0891 0.0431,0.16203 -0.43149,0.16203 -0.47463,0 -0.6688,-0.0729 -0.43148,-0.16203 z m -62.99053,-0.33112 c 0.33586,-0.0814 0.80186,-0.0761 1.03556,0.0119 0.23371,0.088 -0.0411,0.15464 -0.61065,0.14809 -0.56956,-0.007 -0.76077,-0.0785 -0.42491,-0.16 z m 65.75204,0.01 c 0.23732,-0.0891 0.62566,-0.0891 0.86298,0 0.23732,0.0891 0.0431,0.16204 -0.43149,0.16204 -0.47463,0 -0.6688,-0.0729 -0.43149,-0.16204 z m -68.34753,-0.32125 c 0.23731,-0.0891 0.62565,-0.0891 0.86297,0 0.23732,0.0891 0.0432,0.16203 -0.43149,0.16203 -0.47463,0 -0.6688,-0.0729 -0.43148,-0.16203 z m 71.10905,0 c 0.23732,-0.0891 0.62566,-0.0891 0.86298,0 0.23731,0.0891 0.0431,0.16203 -0.43149,0.16203 -0.47464,0 -0.66881,-0.0729 -0.43149,-0.16203 z m -73.15862,-0.32795 c 0.24918,-0.0928 0.54691,-0.0814 0.66162,0.0254 0.1147,0.10675 -0.0892,0.18268 -0.45306,0.16873 -0.40213,-0.0154 -0.48393,-0.0915 -0.20856,-0.19409 z m 75.57491,0.007 c 0.2374,-0.0891 0.6257,-0.0891 0.863,0 0.2373,0.0891 0.043,0.16204 -0.4315,0.16204 -0.4746,0 -0.6688,-0.0729 -0.4315,-0.16204 z m -77.99124,-0.32794 c 0.24919,-0.0928 0.54692,-0.0814 0.66162,0.0254 0.1147,0.10675 -0.0892,0.18267 -0.45306,0.16873 -0.40213,-0.0154 -0.48392,-0.0915 -0.20856,-0.19409 z m 80.42914,0 c 0.2492,-0.0928 0.547,-0.0814 0.6617,0.0254 0.1147,0.10675 -0.089,0.18267 -0.4531,0.16873 -0.4021,-0.0154 -0.4839,-0.0915 -0.2086,-0.19409 z m -82.50027,-0.32125 c 0.24918,-0.0928 0.54691,-0.0814 0.66161,0.0253 0.1147,0.10675 -0.0892,0.18268 -0.45306,0.16873 -0.40213,-0.0154 -0.48392,-0.0915 -0.20855,-0.19409 z m 84.57147,0 c 0.2492,-0.0928 0.5469,-0.0814 0.6616,0.0253 0.1147,0.10675 -0.089,0.18268 -0.4531,0.16873 -0.4021,-0.0154 -0.4839,-0.0915 -0.2085,-0.19409 z m -86.29742,-0.32126 c 0.24918,-0.0928 0.54691,-0.0814 0.66161,0.0254 0.11471,0.10675 -0.0892,0.18268 -0.45306,0.16873 -0.40213,-0.0154 -0.48392,-0.0915 -0.20855,-0.19409 z m 88.36852,0 c 0.2492,-0.0928 0.5469,-0.0814 0.6616,0.0254 0.1147,0.10675 -0.089,0.18268 -0.453,0.16873 -0.4022,-0.0154 -0.484,-0.0915 -0.2086,-0.19409 z m -90.43966,-0.32125 c 0.24918,-0.0928 0.54691,-0.0814 0.66162,0.0254 0.1147,0.10675 -0.0892,0.18267 -0.45307,0.16872 -0.40212,-0.0154 -0.48392,-0.0915 -0.20855,-0.19408 z m 92.51086,0 c 0.2491,-0.0928 0.5469,-0.0814 0.6616,0.0254 0.1147,0.10675 -0.089,0.18267 -0.4531,0.16872 -0.4021,-0.0154 -0.4839,-0.0915 -0.2085,-0.19408 z m -94.23681,-0.32125 c 0.24919,-0.0928 0.54692,-0.0814 0.66162,0.0253 0.1147,0.10675 -0.0892,0.18268 -0.45306,0.16873 -0.40213,-0.0154 -0.48392,-0.0915 -0.20856,-0.19409 z m 95.96271,0 c 0.2492,-0.0928 0.5469,-0.0814 0.6616,0.0253 0.1147,0.10675 -0.089,0.18268 -0.453,0.16873 -0.4022,-0.0154 -0.484,-0.0915 -0.2086,-0.19409 z m -97.68865,-0.32126 c 0.24918,-0.0928 0.54691,-0.0814 0.66161,0.0254 0.1147,0.10675 -0.0892,0.18268 -0.45306,0.16873 -0.40213,-0.0154 -0.48392,-0.0915 -0.20855,-0.19409 z m -1.72595,-0.32125 c 0.24918,-0.0928 0.54691,-0.0814 0.66161,0.0254 0.11471,0.10675 -0.0892,0.18267 -0.45306,0.16872 -0.40213,-0.0154 -0.48392,-0.0915 -0.20855,-0.19408 z m 102.8665,0 c 0.2492,-0.0928 0.5469,-0.0814 0.6616,0.0254 0.1147,0.10675 -0.089,0.18267 -0.4531,0.16872 -0.4021,-0.0154 -0.4839,-0.0915 -0.2085,-0.19408 z M 815.0696,468.31246 c -0.42937,-0.50952 -0.41716,-0.52089 0.13033,-0.12129 0.33225,0.2425 0.60408,0.49549 0.60408,0.56219 0,0.26441 -0.28346,0.0942 -0.73441,-0.4409 z m 240.6412,-0.52286 c 0,-0.0667 0.2718,-0.31969 0.6041,-0.56219 0.5475,-0.3996 0.5597,-0.38823 0.1303,0.12129 -0.451,0.53513 -0.7344,0.70531 -0.7344,0.4409 z m -183.12065,-1.16004 c -0.12094,-0.1821 0.0176,-0.23596 0.32481,-0.12625 0.59802,0.21356 0.70743,0.44383 0.2109,0.44383 -0.17865,0 -0.41972,-0.14291 -0.53571,-0.31758 z m 184.84655,-0.12497 c 0,-0.0667 0.2719,-0.3197 0.6041,-0.56219 0.5475,-0.3996 0.5597,-0.38824 0.1303,0.12129 -0.4509,0.53513 -0.7344,0.7053 -0.7344,0.4409 z m -245.98035,-0.92278 -0.65758,-0.72282 0.77667,0.61198 c 0.72989,0.57512 0.93382,0.83366 0.65758,0.83366 -0.0655,0 -0.415,-0.32527 -0.77667,-0.72282 z m 248.51655,-1.15046 c 0.3146,-0.32354 0.4552,-0.70813 0.3124,-0.85464 -0.1428,-0.1465 -0.055,-0.15656 0.1943,-0.0224 0.3616,0.19436 0.3331,0.36832 -0.1398,0.85464 -0.3265,0.33584 -0.6714,0.61062 -0.7663,0.61062 -0.095,0 0.085,-0.26472 0.3994,-0.58827 z m -251.43645,-1.25894 -1.18958,-1.2047 1.29446,1.10709 c 1.20486,1.03046 1.45318,1.30231 1.18958,1.30231 -0.0577,0 -0.64019,-0.54212 -1.29446,-1.2047 z m -5.52303,-5.14006 -1.18958,-1.2047 1.29446,1.1071 c 1.20485,1.03045 1.45317,1.3023 1.18958,1.3023 -0.0577,0 -0.64019,-0.54211 -1.29446,-1.2047 z m -2.60314,-2.73065 -0.65758,-0.72282 0.77668,0.61198 c 0.42717,0.33659 0.77667,0.66186 0.77667,0.72282 0,0.25709 -0.2778,0.0673 -0.89577,-0.61198 z m 156.66257,0.18012 c 0.33225,-0.0808 0.87592,-0.0808 1.20817,0 0.33224,0.0808 0.0604,0.14692 -0.60408,0.14692 -0.66449,0 -0.93633,-0.0661 -0.60409,-0.14692 z m 5.69966,-0.006 c 0.42938,-0.0768 1.05072,-0.0739 1.38076,0.006 0.33003,0.0804 -0.0213,0.14327 -0.78071,0.13971 -0.75941,-0.004 -1.02944,-0.0694 -0.60005,-0.1462 z m 48.32249,0.0145 c 0.2373,-0.0891 0.6257,-0.0891 0.863,0 0.2373,0.0891 0.043,0.16204 -0.4315,0.16204 -0.4746,0 -0.6688,-0.0729 -0.4315,-0.16204 z m 5.357,-0.01 c 0.3359,-0.0815 0.8019,-0.0761 1.0356,0.0119 0.2337,0.088 -0.041,0.15464 -0.6106,0.14809 -0.5696,-0.007 -0.7608,-0.0785 -0.425,-0.15999 z m -61.6013,-0.3181 c 0.24918,-0.0928 0.54691,-0.0814 0.66161,0.0254 0.1147,0.10675 -0.0892,0.18268 -0.45306,0.16873 -0.40213,-0.0154 -0.48392,-0.0915 -0.20855,-0.19409 z m 11.39125,0 c 0.24919,-0.0928 0.54691,-0.0814 0.66162,0.0254 0.1147,0.10675 -0.0892,0.18268 -0.45306,0.16873 -0.40213,-0.0154 -0.48392,-0.0915 -0.20856,-0.19409 z m 52.81405,0 c 0.2491,-0.0928 0.5469,-0.0814 0.6616,0.0254 0.1147,0.10675 -0.089,0.18268 -0.4531,0.16873 -0.4021,-0.0154 -0.4839,-0.0915 -0.2085,-0.19409 z m 60.3927,-0.0134 c 0.6205,-0.0715 1.5525,-0.07 2.0712,0.003 0.5187,0.0733 0.011,0.1318 -1.1281,0.13 -1.1391,-0.002 -1.5635,-0.0618 -0.9431,-0.13327 z m -4.3144,-0.31106 c 0.3358,-0.0815 0.8018,-0.0761 1.0355,0.0119 0.2337,0.088 -0.041,0.15464 -0.6106,0.14809 -0.5696,-0.007 -0.7608,-0.0785 -0.4249,-0.15999 z m 9.1625,0.003 c 0.2492,-0.0928 0.5469,-0.0814 0.6616,0.0254 0.1147,0.10675 -0.089,0.18268 -0.4531,0.16873 -0.4021,-0.0154 -0.4839,-0.0915 -0.2085,-0.19409 z m -233.32748,-0.66404 c -0.42937,-0.50953 -0.41716,-0.52089 0.13033,-0.12129 0.33225,0.2425 0.60408,0.49548 0.60408,0.56219 0,0.26441 -0.28346,0.0942 -0.73441,-0.4409 z m 221.93618,0.34274 c 0.2492,-0.0928 0.5469,-0.0814 0.6617,0.0253 0.1147,0.10675 -0.089,0.18268 -0.4531,0.16873 -0.4021,-0.0154 -0.4839,-0.0915 -0.2086,-0.19409 z m -81.92412,-33.1909 c 0,-18.28735 0.0417,-25.76854 0.0926,-16.62487 0.0509,9.14368 0.0509,24.10606 0,33.24973 -0.0509,9.14368 -0.0926,1.66249 -0.0926,-16.62486 z m 9.61512,30.84033 c 0,-1.32517 0.061,-1.86729 0.1354,-1.2047 0.075,0.66258 0.075,1.74681 0,2.4094 -0.074,0.66258 -0.1354,0.12047 -0.1354,-1.2047 z m -201.75081,1.36533 c -0.42937,-0.50953 -0.41716,-0.52089 0.13033,-0.1213 0.33225,0.2425 0.60408,0.49549 0.60408,0.5622 0,0.2644 -0.28346,0.0942 -0.73441,-0.4409 z m 313.13101,-17.74588 v -17.98682 l -15.1021,-0.0872 -15.102,-0.0872 15.2746,-0.0768 15.2747,-0.0768 v 18.15082 c 0,9.98295 -0.078,18.15082 -0.1726,18.15082 -0.095,0 -0.1726,-8.09407 -0.1726,-17.98682 z m 10.0105,-15.58417 v -33.57098 l 8.0256,0.074 8.0257,0.074 -7.8531,0.0927 -7.853,0.0927 v 33.2437 33.2437 h 25.1914 25.1913 l 0.1017,-6.18413 0.1017,-6.18413 0.078,6.34476 0.078,6.34476 h -25.544 -25.544 z m 61.7067,33.34378 c 0.4293,-0.0768 1.0507,-0.0739 1.3807,0.006 0.33,0.0804 -0.021,0.14328 -0.7807,0.13972 -0.7594,-0.004 -1.0295,-0.0694 -0.6,-0.1462 z m 5.6818,-4.19003 0.096,-4.41723 1.8143,-0.0279 1.8141,-0.0279 -1.7278,0.12502 -1.728,0.12502 v 4.13915 4.13915 l 1.1219,0.12957 c 1.0964,0.12663 1.0923,0.13073 -0.1823,0.18098 l -1.3042,0.0514 0.096,-4.41723 z m 4.4109,4.29307 c 0,-0.0683 0.466,-0.18782 1.0356,-0.26561 0.5695,-0.0778 1.0356,-0.0219 1.0356,0.12416 0,0.14609 -0.4661,0.26562 -1.0356,0.26562 -0.5696,0 -1.0356,-0.0559 -1.0356,-0.12417 z m 3.7321,-3.00806 c -0.062,-1.72272 0.01,-3.26955 0.1489,-3.43741 0.1437,-0.16785 0.2613,1.16021 0.2613,2.95124 v 3.25643 l 1.1219,0.12957 1.1218,0.12957 -1.2708,0.0514 -1.2707,0.0514 z m -348.60261,1.92752 -0.83685,-0.88344 0.94927,0.77882 c 0.88724,0.72792 1.10757,0.98807 0.83685,0.98807 -0.0618,0 -0.489,-0.39755 -0.94927,-0.88345 z m 252.73211,-0.58896 c 0.017,-0.37424 0.098,-0.45036 0.2086,-0.19409 0.1,0.2319 0.088,0.50899 -0.027,0.61574 -0.1147,0.10675 -0.1963,-0.083 -0.1813,-0.42165 z m -99.8131,-0.69605 -0.8369,-0.88345 0.9493,0.77882 c 0.5221,0.42836 0.9493,0.82591 0.9493,0.88345 0,0.25195 -0.2796,0.0469 -1.0617,-0.77882 z m 25.2249,0.76216 c 0,-0.0667 0.2719,-0.3197 0.6041,-0.5622 0.5475,-0.3996 0.5597,-0.38823 0.1304,0.12129 -0.451,0.53513 -0.7345,0.70531 -0.7345,0.44091 z m -82.01528,-1.24404 -0.65758,-0.72282 0.77667,0.61199 c 0.42718,0.33659 0.77668,0.66185 0.77668,0.72282 0,0.25708 -0.2778,0.0673 -0.89577,-0.61199 z m 150.01768,0.28028 c 0,-0.0667 0.2718,-0.3197 0.6041,-0.5622 0.5475,-0.3996 0.5597,-0.38823 0.1303,0.12129 -0.4509,0.53513 -0.7344,0.70531 -0.7344,0.44091 z m -250.10284,-1.88655 -1.71297,-1.68658 1.81224,1.59419 c 1.68397,1.48136 1.97055,1.77897 1.71297,1.77897 -0.0546,0 -0.87011,-0.75896 -1.81224,-1.68658 z m 256.34354,1.17793 c 0.016,-0.37424 0.098,-0.45036 0.2085,-0.19409 0.1,0.23191 0.087,0.50899 -0.027,0.61574 -0.1147,0.10675 -0.1963,-0.083 -0.1813,-0.42165 z m 93.1845,0.34803 c 0,-0.17669 0.1505,-0.5381 0.3346,-0.80314 0.184,-0.26503 0.3346,-0.33731 0.3346,-0.16062 0,0.17669 -0.1506,0.5381 -0.3346,0.80313 -0.1841,0.26504 -0.3346,0.33732 -0.3346,0.16063 z m -96.6637,-1.92752 c 0.4459,-0.44173 0.8884,-0.80314 0.9833,-0.80314 0.095,0 -0.1922,0.36141 -0.6381,0.80314 -0.4459,0.44172 -0.8884,0.80313 -0.9833,0.80313 -0.095,0 0.1922,-0.36141 0.6381,-0.80313 z m -155.19551,-0.24094 -0.65758,-0.72282 0.77668,0.61198 c 0.42717,0.33659 0.77667,0.66186 0.77667,0.72282 0,0.25708 -0.2778,0.0673 -0.89577,-0.61198 z m 158.32951,0.21417 c 0.016,-0.37425 0.098,-0.45037 0.2085,-0.19409 0.1,0.2319 0.087,0.50898 -0.027,0.61573 -0.1147,0.10675 -0.1963,-0.083 -0.1813,-0.42164 z m -87.425,-1.31707 c 0.2492,-0.0928 0.5469,-0.0814 0.6616,0.0254 0.1147,0.10674 -0.089,0.18267 -0.453,0.16872 -0.4021,-0.0154 -0.4839,-0.0915 -0.2086,-0.19408 z m 42.1779,-1.22619 c -0.8385,-0.7951 -1.4469,-1.44564 -1.3519,-1.44564 0.095,0 0.8586,0.65054 1.6971,1.44564 0.8384,0.7951 1.4468,1.44564 1.3519,1.44564 -0.095,0 -0.8586,-0.65054 -1.6971,-1.44564 z m 44.9019,0.93699 c 0.017,-0.37424 0.098,-0.45037 0.2085,-0.19409 0.1,0.2319 0.087,0.50899 -0.027,0.61574 -0.1147,0.10674 -0.1963,-0.083 -0.1813,-0.42165 z m -142.67687,-0.0254 c 0.23732,-0.0891 0.62565,-0.0891 0.86297,0 0.23732,0.0891 0.0431,0.16203 -0.43148,0.16203 -0.47464,0 -0.66881,-0.0729 -0.43149,-0.16203 z m 5.8898,-0.007 c 0.24918,-0.0928 0.54691,-0.0814 0.66161,0.0254 0.1147,0.10675 -0.0892,0.18268 -0.45306,0.16873 -0.40213,-0.0154 -0.48392,-0.0915 -0.20855,-0.19409 z m 52.46877,0 c 0.2492,-0.0928 0.547,-0.0814 0.6617,0.0254 0.1147,0.10675 -0.089,0.18268 -0.4531,0.16873 -0.4021,-0.0154 -0.4839,-0.0915 -0.2086,-0.19409 z m 83.2555,-0.2231 c 0,-0.0667 0.2718,-0.31969 0.604,-0.56219 0.5475,-0.3996 0.5597,-0.38824 0.1304,0.12129 -0.451,0.53513 -0.7344,0.70531 -0.7344,0.4409 z m 81.3784,-0.10542 c 0.4272,-0.0766 1.1262,-0.0766 1.5534,0 0.4271,0.0766 0.078,0.13922 -0.7767,0.13922 -0.8544,0 -1.2039,-0.0627 -0.7767,-0.13922 z m 5.1778,0 c 0.4272,-0.0766 1.1262,-0.0766 1.5534,0 0.4272,0.0766 0.078,0.13922 -0.7767,0.13922 -0.8543,0 -1.2038,-0.0627 -0.7767,-0.13922 z m -344.61826,-1.13861 -0.65758,-0.72282 0.77668,0.61198 c 0.72988,0.57511 0.93382,0.83366 0.65758,0.83366 -0.0655,0 -0.41501,-0.32527 -0.77668,-0.72282 z m 355.02836,-0.66194 c 0.1544,-0.14321 1.0403,-0.21318 1.9686,-0.1555 l 1.6878,0.10488 -1.9686,0.15549 c -1.0827,0.0855 -1.8423,0.0383 -1.6878,-0.10487 z m -245.0788,-0.7837 -0.83685,-0.88345 0.94927,0.77882 c 0.88724,0.72792 1.10757,0.98807 0.83685,0.98807 -0.0618,0 -0.489,-0.39755 -0.94927,-0.88344 z m 17.97598,0.76215 c 0,-0.0667 0.27184,-0.3197 0.60408,-0.56219 0.5475,-0.3996 0.55971,-0.38824 0.13033,0.12129 -0.45094,0.53513 -0.73441,0.7053 -0.73441,0.4409 z m 212.90922,-0.11689 c 1.194,-0.0629 3.058,-0.0624 4.1423,0.001 1.0842,0.0635 0.1073,0.11502 -2.171,0.11438 -2.2782,-6.4e-4 -3.1654,-0.0526 -1.9713,-0.11554 z M 839.92325,443.8972 c -0.42937,-0.50952 -0.41716,-0.52089 0.13033,-0.12129 0.575,0.41968 0.75786,0.68349 0.47376,0.68349 -0.0717,0 -0.34352,-0.25299 -0.60409,-0.5622 z m 131.21608,-0.52286 c 0,-0.0667 0.27184,-0.31969 0.60408,-0.56219 0.54749,-0.3996 0.5597,-0.38824 0.13033,0.12129 -0.45094,0.53513 -0.73441,0.70531 -0.73441,0.4409 z m 108.64847,-0.42668 c 0.4271,-0.0766 1.1261,-0.0766 1.5533,0 0.4272,0.0766 0.078,0.13923 -0.7767,0.13923 -0.8543,0 -1.2038,-0.0627 -0.7766,-0.13923 z m -3.0852,-0.31398 c 0.2492,-0.0928 0.5469,-0.0814 0.6616,0.0253 0.1147,0.10675 -0.089,0.18268 -0.453,0.16873 -0.4022,-0.0154 -0.4839,-0.0915 -0.2086,-0.19409 z m 7.5726,0.007 c 0.2373,-0.0891 0.6257,-0.0891 0.863,0 0.2373,0.0891 0.043,0.16204 -0.4315,0.16204 -0.4746,0 -0.6688,-0.0729 -0.4315,-0.16204 z m -100.68179,-2.86592 c 0.0166,-0.37424 0.0984,-0.45036 0.20855,-0.19409 0.0997,0.2319 0.0874,0.50899 -0.0272,0.61574 -0.1147,0.10675 -0.19629,-0.083 -0.1813,-0.42165 z m -10.0105,-0.64251 c 0.0166,-0.37424 0.0984,-0.45036 0.20855,-0.19409 0.0997,0.23191 0.0874,0.50899 -0.0272,0.61574 -0.1147,0.10675 -0.19628,-0.083 -0.1813,-0.42165 z m 94.02069,-0.85666 -1.3645,-1.36533 1.467,1.2699 c 1.3644,1.18099 1.6257,1.46075 1.3645,1.46075 -0.056,0 -0.7165,-0.61439 -1.467,-1.36532 z m -91.18435,-0.15874 c 1.48005,-0.0604 3.81008,-0.06 5.17784,9.6e-4 1.36777,0.0608 0.15682,0.1102 -2.69099,0.10975 -2.84782,-3.2e-4 -3.9669,-0.0502 -2.48685,-0.11057 z m -28.72556,-0.91211 c 0.0166,-0.37424 0.0984,-0.45036 0.20855,-0.19409 0.0997,0.23191 0.0874,0.50899 -0.0272,0.61574 -0.11471,0.10675 -0.19629,-0.083 -0.1813,-0.42165 z m 88.71371,0 c 0.017,-0.37424 0.098,-0.45036 0.2086,-0.19409 0.1,0.23191 0.087,0.50899 -0.027,0.61574 -0.1147,0.10675 -0.1963,-0.083 -0.1813,-0.42165 z M 869.99878,436.8913 c 0,-0.27546 0.15787,-0.41004 0.35082,-0.29906 0.19295,0.11099 0.26145,0.33636 0.15222,0.50085 -0.29591,0.44559 -0.50304,0.3625 -0.50304,-0.20179 z m 46.25541,0.2175 c 0,-0.17669 0.15533,-0.41059 0.34519,-0.51979 0.18985,-0.1092 0.34518,-0.054 0.34518,0.12271 0,0.17669 -0.15533,0.41059 -0.34518,0.51979 -0.18986,0.1092 -0.34519,0.054 -0.34519,-0.12271 z m 109.79751,-0.22531 c 0.017,-0.37424 0.098,-0.45037 0.2086,-0.19409 0.1,0.2319 0.087,0.50899 -0.027,0.61574 -0.1147,0.10674 -0.1962,-0.083 -0.1813,-0.42165 z m -89.05889,-0.32125 c 0.0166,-0.37425 0.0984,-0.45037 0.20855,-0.1941 0.0997,0.23191 0.0875,0.50899 -0.0272,0.61574 -0.1147,0.10675 -0.19629,-0.083 -0.1813,-0.42164 z m 63.86009,-0.64251 c 0.017,-0.37424 0.098,-0.45037 0.2085,-0.19409 0.1,0.2319 0.087,0.50899 -0.027,0.61573 -0.1147,0.10675 -0.1963,-0.083 -0.1813,-0.42164 z m 35.8997,-0.32125 c 0.017,-0.37425 0.098,-0.45037 0.2086,-0.1941 0.1,0.23191 0.087,0.50899 -0.027,0.61574 -0.1147,0.10675 -0.1963,-0.083 -0.1813,-0.42164 z m -10.3557,-0.32126 c 0.017,-0.37424 0.098,-0.45036 0.2086,-0.19409 0.1,0.2319 0.087,0.50899 -0.027,0.61574 -0.1147,0.10675 -0.1963,-0.083 -0.1813,-0.42165 z m -79.02041,-0.85667 -0.0552,-1.2047 18.72653,0.0775 18.72654,0.0775 -18.53229,0.0859 -18.53229,0.0859 -0.13901,1.04129 c -0.13639,1.0218 -0.14003,1.01874 -0.19424,-0.1634 z M 936.7495,431.1277 c 6.9e-4,-1.94358 0.0576,-2.69727 0.12634,-1.67485 0.0687,1.02241 0.0681,2.61262 -0.001,3.53378 -0.0695,0.92117 -0.12571,0.0847 -0.12493,-1.85893 z m 100.3883,2.24877 c 0.01,-0.53007 0.084,-0.70802 0.172,-0.39545 0.088,0.31257 0.082,0.74626 -0.013,0.96376 -0.095,0.2175 -0.1661,-0.0382 -0.1591,-0.56831 z m -36.5504,-1.60626 c 0,-1.06014 0.066,-1.4551 0.1432,-0.8777 0.077,0.57741 0.075,1.44479 0,1.92752 -0.079,0.48273 -0.1416,0.0103 -0.1397,-1.04982 z m 26.2215,0.48188 c 0,-0.79511 0.067,-1.12038 0.1496,-0.72282 0.082,0.39755 0.082,1.04808 0,1.44564 -0.082,0.39755 -0.1496,0.0723 -0.1496,-0.72282 z m -157.81844,0.45511 c 0.0166,-0.37425 0.0984,-0.45037 0.20855,-0.1941 0.0997,0.23191 0.0875,0.50899 -0.0272,0.61574 -0.11471,0.10675 -0.19629,-0.083 -0.1813,-0.42164 z m 228.51554,-2.2491 c 0.016,-0.37424 0.098,-0.45036 0.2085,-0.19409 0.1,0.2319 0.087,0.50899 -0.027,0.61574 -0.1147,0.10675 -0.1963,-0.083 -0.1813,-0.42165 z m -59.9833,-1.5795 c 0,-1.06013 0.066,-1.45509 0.1432,-0.87769 0.077,0.57741 0.075,1.44479 0,1.92752 -0.079,0.48273 -0.1416,0.0103 -0.1397,-1.04983 z m -53.17911,-0.32125 c 0.004,-0.70676 0.0745,-0.95806 0.15708,-0.55845 0.0826,0.39961 0.0794,0.97787 -0.007,1.28502 -0.0864,0.30714 -0.15395,-0.0198 -0.15012,-0.72657 z m -197.85344,0.29448 c 0.0166,-0.37424 0.0984,-0.45036 0.20855,-0.19409 0.0997,0.23191 0.0874,0.50899 -0.0272,0.61574 -0.1147,0.10675 -0.19629,-0.083 -0.1813,-0.42165 z m 259.58255,-0.32125 c 0.017,-0.37424 0.098,-0.45036 0.2086,-0.19409 0.1,0.2319 0.087,0.50899 -0.027,0.61574 -0.1147,0.10675 -0.1962,-0.083 -0.1813,-0.42165 z m -19.2544,-1.41887 c 0,-0.97179 0.065,-1.36934 0.1438,-0.88345 0.079,0.4859 0.079,1.281 0,1.7669 -0.079,0.48589 -0.1438,0.0883 -0.1438,-0.88345 z m 59.0103,1.36637 c 2.2308,-0.056 5.8811,-0.056 8.1119,0 2.2308,0.0559 0.4056,0.10174 -4.0559,0.10174 -4.4616,0 -6.2868,-0.0458 -4.056,-0.10174 z m -254.4638,-0.91126 c 0.0166,-0.37424 0.0984,-0.45036 0.20855,-0.19409 0.0997,0.2319 0.0874,0.50899 -0.0272,0.61574 -0.1147,0.10674 -0.19629,-0.083 -0.1813,-0.42165 z m 169.5281,-0.61574 c 0.01,-0.53006 0.084,-0.70802 0.1719,-0.39545 0.088,0.31257 0.082,0.74626 -0.013,0.96376 -0.095,0.2175 -0.1661,-0.0382 -0.1591,-0.56831 z m -214.74794,-0.0268 c 0.0166,-0.37424 0.0984,-0.45036 0.20855,-0.19409 0.0997,0.23191 0.0875,0.50899 -0.0272,0.61574 -0.1147,0.10675 -0.19629,-0.083 -0.1813,-0.42165 z m 259.60984,-0.13385 c 0,-0.44173 0.078,-0.62243 0.1741,-0.40157 0.096,0.22086 0.096,0.58227 0,0.80313 -0.096,0.22087 -0.1741,0.0402 -0.1741,-0.40156 z m 15.8515,0.13385 c 0.017,-0.37424 0.098,-0.45036 0.2085,-0.19409 0.1,0.23191 0.087,0.50899 -0.027,0.61574 -0.1147,0.10675 -0.1963,-0.083 -0.1813,-0.42165 z m -230.58669,-0.96376 c 0.0166,-0.37424 0.0984,-0.45036 0.20855,-0.19409 0.0997,0.2319 0.0874,0.50899 -0.0272,0.61574 -0.1147,0.10675 -0.19629,-0.083 -0.1813,-0.42165 z m 106.00045,-0.45511 c 0,-0.44172 0.0784,-0.62243 0.17411,-0.40156 0.0958,0.22086 0.0958,0.58227 0,0.80313 -0.0958,0.22086 -0.17411,0.0402 -0.17411,-0.40157 z m 46.94579,0 c 0,-0.44172 0.0784,-0.62243 0.17411,-0.40156 0.0958,0.22086 0.0958,0.58227 0,0.80313 -0.0958,0.22086 -0.17411,0.0402 -0.17411,-0.40157 z m -36.51382,-0.1462 c -0.10775,-0.26131 -0.11585,-0.66058 -0.018,-0.88727 0.0978,-0.22669 0.19017,-0.0869 0.20516,0.31065 l 0.0272,0.72282 h 13.09189 c 11.41076,0 13.1128,-0.0627 13.25467,-0.48817 0.11383,-0.34142 0.14599,-0.31728 0.10695,0.0803 -0.0522,0.5314 -0.91753,0.57398 -13.26392,0.65263 -11.39551,0.0726 -13.23499,0.0189 -13.404,-0.39097 z m 113.83627,-0.4963 c 0,-0.44173 0.078,-0.62243 0.1741,-0.40157 0.096,0.22086 0.096,0.58227 0,0.80313 -0.096,0.22086 -0.1741,0.0402 -0.1741,-0.40156 z m -60.0902,-0.1874 c 0.017,-0.37424 0.098,-0.45037 0.2085,-0.19409 0.1,0.2319 0.087,0.50899 -0.027,0.61573 -0.1147,0.10675 -0.1963,-0.083 -0.1813,-0.42164 z m -215.33853,-0.93699 c 0.004,-0.70676 0.0745,-0.95806 0.15709,-0.55845 0.0826,0.39961 0.0794,0.97787 -0.007,1.28502 -0.0864,0.30714 -0.15395,-0.0198 -0.15012,-0.72657 z m 251.26543,0.48188 c 0,-0.44172 0.078,-0.62243 0.1742,-0.40157 0.096,0.22086 0.096,0.58227 0,0.80314 -0.096,0.22086 -0.1742,0.0401 -0.1742,-0.40157 z m 8.3241,-0.64251 c 0,-0.7951 0.067,-1.12037 0.1496,-0.72282 0.082,0.39755 0.082,1.04809 0,1.44564 -0.082,0.39755 -0.1496,0.0723 -0.1496,-0.72282 z m -214.72185,-0.32125 c 0,-0.61841 0.071,-0.8714 0.15787,-0.56219 0.0868,0.3092 0.0868,0.81518 0,1.12438 -0.0868,0.30921 -0.15787,0.0562 -0.15787,-0.56219 z m 195.66965,0.45511 c 0.017,-0.37424 0.098,-0.45037 0.2086,-0.19409 0.1,0.2319 0.087,0.50899 -0.027,0.61573 -0.1147,0.10675 -0.1963,-0.083 -0.1813,-0.42164 z m -42.80349,-0.32125 c 0.0166,-0.37425 0.0984,-0.45037 0.20855,-0.1941 0.0997,0.23191 0.0874,0.50899 -0.0272,0.61574 -0.1147,0.10675 -0.19629,-0.083 -0.1813,-0.42164 z m 77.38229,-2.86451 c 0,-0.70676 0.074,-0.95806 0.1571,-0.55845 0.082,0.39961 0.079,0.97786 -0.01,1.28501 -0.086,0.30715 -0.154,-0.0198 -0.1501,-0.72656 z m -195.43713,-1.63304 c 0.0166,-0.37425 0.0984,-0.45037 0.20855,-0.19409 0.0997,0.2319 0.0874,0.50898 -0.0272,0.61573 -0.1147,0.10675 -0.19629,-0.083 -0.1813,-0.42164 z m -34.81132,-1.09762 c 0,-0.61841 0.071,-0.8714 0.15787,-0.56219 0.0868,0.3092 0.0868,0.81518 0,1.12438 -0.0868,0.30921 -0.15787,0.0562 -0.15787,-0.56219 z m -44.86768,-0.48188 c 0.004,-0.70676 0.0745,-0.95806 0.15709,-0.55845 0.0826,0.39961 0.0794,0.97787 -0.007,1.28502 -0.0864,0.30714 -0.15395,-0.0198 -0.15012,-0.72657 z m 259.58253,0 c 0,-0.70676 0.075,-0.95806 0.1571,-0.55845 0.083,0.39961 0.079,0.97787 -0.01,1.28502 -0.086,0.30714 -0.154,-0.0198 -0.1502,-0.72657 z m -93.97858,-0.64251 c 0.64405,-0.61841 1.24867,-1.12438 1.3436,-1.12438 0.0949,0 -0.35436,0.50597 -0.99841,1.12438 -0.64404,0.61842 -1.24866,1.12439 -1.34359,1.12439 -0.0949,0 0.35436,-0.50597 0.9984,-1.12439 z m 54.02218,-0.80313 c 0.7415,-0.70676 1.4259,-1.28501 1.5209,-1.28501 0.095,0 -0.4342,0.57825 -1.1757,1.28501 -0.7416,0.70676 -1.426,1.28501 -1.5209,1.28501 -0.095,0 0.4341,-0.57825 1.1757,-1.28501 z m 17.0683,0.0803 -1.1896,-1.2047 1.2945,1.1071 c 1.2048,1.03045 1.4532,1.3023 1.1896,1.3023 -0.058,0 -0.6402,-0.54211 -1.2945,-1.2047 z m 38.7343,0.24094 c 0,-0.44172 0.078,-0.62242 0.1741,-0.40156 0.096,0.22086 0.096,0.58227 0,0.80313 -0.096,0.22086 -0.1741,0.0402 -0.1741,-0.40157 z M 831.01961,415.0379 c 0.0166,-0.37425 0.0984,-0.45037 0.20855,-0.1941 0.0997,0.23191 0.0874,0.50899 -0.0272,0.61574 -0.1147,0.10675 -0.19629,-0.083 -0.1813,-0.42164 z m 33.48339,-0.32126 c 0.0166,-0.37424 0.0984,-0.45036 0.20855,-0.19409 0.0997,0.2319 0.0874,0.50899 -0.0272,0.61574 -0.1147,0.10675 -0.19628,-0.083 -0.1813,-0.42165 z m -78.35804,-0.6425 c 0.0166,-0.37425 0.0984,-0.45037 0.20855,-0.1941 0.0997,0.23191 0.0875,0.50899 -0.0272,0.61574 -0.1147,0.10675 -0.19629,-0.083 -0.1813,-0.42164 z m 259.58254,0 c 0.017,-0.37425 0.098,-0.45037 0.2086,-0.1941 0.1,0.23191 0.087,0.50899 -0.027,0.61574 -0.1147,0.10675 -0.1962,-0.083 -0.1813,-0.42164 z m 15.8788,-0.32126 c 0.017,-0.37424 0.098,-0.45036 0.2085,-0.19409 0.1,0.2319 0.087,0.50899 -0.027,0.61574 -0.1147,0.10675 -0.1963,-0.083 -0.1813,-0.42165 z m -139.11145,-0.6425 c 0.0166,-0.37425 0.0984,-0.45037 0.20855,-0.1941 0.0997,0.23191 0.0874,0.50899 -0.0272,0.61574 -0.11471,0.10675 -0.19629,-0.083 -0.18131,-0.42164 z m 19.30337,0.0661 c 0,-0.0667 0.27183,-0.3197 0.60408,-0.56219 0.54749,-0.3996 0.5597,-0.38824 0.13033,0.12129 -0.45095,0.53513 -0.73441,0.7053 -0.73441,0.4409 z m 16.50437,-0.0982 c 0.24918,-0.0928 0.54691,-0.0814 0.66162,0.0254 0.1147,0.10675 -0.0892,0.18268 -0.45306,0.16873 -0.40213,-0.0154 -0.48393,-0.0915 -0.20856,-0.19409 z m 4.83266,0 c 0.24918,-0.0928 0.54691,-0.0814 0.66161,0.0254 0.1147,0.10675 -0.0892,0.18268 -0.45306,0.16873 -0.40213,-0.0154 -0.48392,-0.0915 -0.20855,-0.19409 z m 47.95975,0.007 c 0.2373,-0.0891 0.6257,-0.0891 0.863,0 0.2373,0.0891 0.043,0.16204 -0.4315,0.16204 -0.4746,0 -0.6688,-0.0729 -0.4315,-0.16204 z m 4.8543,-0.007 c 0.2491,-0.0928 0.5469,-0.0814 0.6616,0.0254 0.1147,0.10675 -0.089,0.18268 -0.4531,0.16873 -0.4021,-0.0154 -0.4839,-0.0915 -0.2085,-0.19409 z m 30.1234,-0.9317 c 0.017,-0.37425 0.098,-0.45037 0.2086,-0.1941 0.1,0.23191 0.087,0.50899 -0.027,0.61574 -0.1147,0.10675 -0.1962,-0.083 -0.1813,-0.42164 z m -101.85816,-1.5795 c 0.64405,-0.61841 1.24867,-1.12439 1.34359,-1.12439 0.0949,0 -0.35435,0.50598 -0.9984,1.12439 -0.64405,0.61841 -1.24866,1.12439 -1.34359,1.12439 -0.0949,0 0.35435,-0.50598 0.9984,-1.12439 z m 32.26225,-0.88345 -1.71297,-1.68658 1.81225,1.59419 c 1.68397,1.48135 1.97055,1.77897 1.71297,1.77897 -0.0546,0 -0.87011,-0.75896 -1.81225,-1.68658 z m 69.94111,0.85668 c 0.017,-0.37425 0.098,-0.45037 0.2086,-0.19409 0.1,0.2319 0.087,0.50898 -0.027,0.61573 -0.1147,0.10675 -0.1963,-0.083 -0.1813,-0.42164 z m -44.5567,-0.89766 c 0,-0.0667 0.2718,-0.31969 0.6041,-0.56219 0.5475,-0.3996 0.5597,-0.38824 0.1303,0.12129 -0.4509,0.53513 -0.7344,0.70531 -0.7344,0.4409 z m -78.33078,-0.70861 c 0.0166,-0.37424 0.0984,-0.45036 0.20855,-0.19409 0.0997,0.2319 0.0874,0.50898 -0.0272,0.61574 -0.1147,0.10675 -0.19628,-0.083 -0.1813,-0.42165 z m 104.86638,-0.3748 c -0.4294,-0.50952 -0.4172,-0.52089 0.1303,-0.12129 0.575,0.41968 0.7579,0.68349 0.4738,0.68349 -0.072,0 -0.3436,-0.25299 -0.6041,-0.5622 z m 67.3554,0 c -3e-4,-0.13251 2.2909,-0.20359 5.0916,-0.15795 9.4225,0.15355 10.3184,0.26919 2.5894,0.33425 -4.2242,0.0356 -7.6807,-0.0438 -7.681,-0.1763 z m 14.871,-1.55272 c 0.016,-0.37424 0.098,-0.45036 0.2085,-0.19409 0.1,0.2319 0.088,0.50898 -0.027,0.61574 -0.1147,0.10675 -0.1963,-0.083 -0.1813,-0.42165 z m -186.05721,-2.24877 c 0.0166,-0.37425 0.0984,-0.45037 0.20855,-0.19409 0.0997,0.2319 0.0874,0.50898 -0.0272,0.61573 -0.1147,0.10675 -0.19629,-0.083 -0.1813,-0.42164 z m 96.21591,0.2892 c 0.2492,-0.0928 0.5469,-0.0814 0.6616,0.0253 0.1147,0.10675 -0.089,0.18268 -0.453,0.16873 -0.4022,-0.0154 -0.484,-0.0915 -0.2086,-0.19409 z m -64.20526,-0.32126 c 0.24919,-0.0928 0.54692,-0.0814 0.66162,0.0254 0.1147,0.10675 -0.0892,0.18268 -0.45306,0.16873 -0.40213,-0.0154 -0.48392,-0.0915 -0.20856,-0.19409 z m 9.32012,0 c 0.24919,-0.0928 0.54692,-0.0814 0.66162,0.0254 0.1147,0.10675 -0.0892,0.18268 -0.45306,0.16873 -0.40213,-0.0154 -0.48392,-0.0915 -0.20856,-0.19409 z m 45.56504,0 c 0.2492,-0.0928 0.5469,-0.0814 0.6616,0.0254 0.1147,0.10675 -0.089,0.18268 -0.4531,0.16873 -0.4021,-0.0154 -0.4839,-0.0915 -0.2085,-0.19409 z m 7.5942,0 c 0.2491,-0.0928 0.5469,-0.0814 0.6616,0.0254 0.1147,0.10675 -0.089,0.18268 -0.4531,0.16873 -0.4021,-0.0154 -0.4839,-0.0915 -0.2085,-0.19409 z m -58.69472,-0.33744 c 0.8119,-0.0679 2.05458,-0.0669 2.76152,0.002 0.70693,0.069 0.0426,0.12455 -1.47618,0.12339 -1.51884,-0.001 -2.09724,-0.0576 -1.28534,-0.12551 z m 54.19182,0.003 c 0.6204,-0.0715 1.5524,-0.07 2.0711,0.003 0.5187,0.0733 0.011,0.1318 -1.128,0.13 -1.1391,-0.002 -1.5635,-0.0618 -0.9431,-0.13328 z m 53.0667,-2.33728 c 0.7416,-0.70675 1.426,-1.28501 1.5209,-1.28501 0.095,0 -0.4341,0.57826 -1.1757,1.28501 -0.7415,0.70676 -1.4259,1.28502 -1.5209,1.28502 -0.095,0 0.4342,-0.57826 1.1757,-1.28502 z m 24.1305,-0.72282 -0.6576,-0.72282 0.7767,0.61199 c 0.4272,0.33659 0.7767,0.66186 0.7767,0.72282 0,0.25708 -0.2778,0.0673 -0.8958,-0.61199 z m -230.6992,-0.42833 c 0.0166,-0.37425 0.0984,-0.45037 0.20855,-0.1941 0.0997,0.23191 0.0875,0.50899 -0.0272,0.61574 -0.11471,0.10675 -0.19629,-0.083 -0.1813,-0.42164 z m 64.55046,-0.32126 c 0.0166,-0.37424 0.0984,-0.45036 0.20855,-0.19409 0.0997,0.2319 0.0874,0.50898 -0.0272,0.61574 -0.1147,0.10675 -0.19629,-0.083 -0.1813,-0.42165 z m -32.47508,-2.68492 c 0,-0.16626 0.15356,-0.39062 0.34124,-0.49857 0.19567,-0.11255 0.25354,0.0164 0.13566,0.3023 -0.22948,0.55654 -0.4769,0.65837 -0.4769,0.19627 z m 183.57612,-0.23841 c 0.2492,-0.0928 0.5469,-0.0814 0.6616,0.0253 0.1147,0.10675 -0.089,0.18268 -0.453,0.16873 -0.4022,-0.0154 -0.4839,-0.0915 -0.2086,-0.19409 z m -237.0805,-0.2231 c 0,-0.0667 0.27183,-0.31969 0.60408,-0.56219 0.54749,-0.3996 0.5597,-0.38824 0.13033,0.12129 -0.45095,0.53513 -0.73441,0.70531 -0.73441,0.4409 z m 240.3382,-0.10016 c 0.3323,-0.0808 0.876,-0.0808 1.2082,0 0.3323,0.0808 0.06,0.14692 -0.6041,0.14692 -0.6645,0 -0.9363,-0.0661 -0.6041,-0.14692 z m -219.94477,-0.60845 c 0.0166,-0.37424 0.0984,-0.45036 0.20855,-0.19409 0.0997,0.2319 0.0875,0.50898 -0.0272,0.61574 -0.11471,0.10675 -0.19629,-0.083 -0.1813,-0.42165 z m 192.93377,0.38736 c 0,-0.0667 0.2718,-0.3197 0.604,-0.56219 0.5475,-0.3996 0.5597,-0.38824 0.1304,0.12129 -0.451,0.53513 -0.7344,0.7053 -0.7344,0.4409 z m -126.31217,-0.70861 c 0.0166,-0.37425 0.0984,-0.45037 0.20855,-0.19409 0.0997,0.2319 0.0874,0.50898 -0.0272,0.61573 -0.1147,0.10675 -0.19629,-0.083 -0.1813,-0.42164 z m 179.08207,-0.3748 c -0.4293,-0.50953 -0.4171,-0.52089 0.1304,-0.12129 0.575,0.41967 0.7578,0.68348 0.4737,0.68348 -0.072,0 -0.3435,-0.25298 -0.6041,-0.56219 z m -264.19856,-0.72282 c 0.34363,-0.35338 0.70245,-0.64251 0.79738,-0.64251 0.0949,0 -0.10856,0.28913 -0.45219,0.64251 -0.34363,0.35338 -0.70246,0.64251 -0.79738,0.64251 -0.0949,0 0.10856,-0.28913 0.45219,-0.64251 z m 214.36276,-1.28501 c 0.7415,-0.70676 1.4259,-1.28502 1.5208,-1.28502 0.095,0 -0.4341,0.57826 -1.1756,1.28502 -0.7416,0.70675 -1.426,1.28501 -1.5209,1.28501 -0.095,0 0.4341,-0.57826 1.1757,-1.28501 z m 47.1066,-0.88345 -1.8868,-1.84721 1.9849,1.75592 c 1.8439,1.63131 2.1429,1.9385 1.8867,1.9385 -0.054,0 -0.9471,-0.83125 -1.9848,-1.84721 z m -258.46046,-0.8876 c 0.70563,-0.68681 1.33891,-1.18368 1.4073,-1.10417 0.0684,0.0795 -0.50895,0.64144 -1.28296,1.24873 l -1.40729,1.10418 z m 14.45043,0.29864 c 0.0166,-0.37425 0.0983,-0.45037 0.20855,-0.1941 0.0997,0.23191 0.0874,0.50899 -0.0272,0.61574 -0.11471,0.10675 -0.19629,-0.083 -0.1813,-0.42164 z m 68.69272,-0.32126 c 0.0166,-0.37424 0.0984,-0.45036 0.20855,-0.19409 0.0997,0.2319 0.0875,0.50899 -0.0272,0.61574 -0.1147,0.10675 -0.19629,-0.083 -0.1813,-0.42165 z m 130.79961,-0.25515 c 0,-0.0667 0.2718,-0.31969 0.6041,-0.56219 0.5475,-0.3996 0.5597,-0.38823 0.1303,0.12129 -0.4509,0.53513 -0.7344,0.70531 -0.7344,0.4409 z m -258.54701,-5.78256 c 0,-0.0667 0.27184,-0.31969 0.60409,-0.56219 0.54749,-0.3996 0.55969,-0.38824 0.13032,0.12129 -0.45094,0.53513 -0.73441,0.70531 -0.73441,0.4409 z m 274.36101,-0.74066 c 0.2492,-0.0928 0.5469,-0.0814 0.6616,0.0253 0.1147,0.10675 -0.089,0.18268 -0.4531,0.16873 -0.4021,-0.0154 -0.4839,-0.0915 -0.2085,-0.19409 z m 11.7364,0 c 0.2492,-0.0928 0.547,-0.0814 0.6617,0.0253 0.1147,0.10675 -0.089,0.18268 -0.4531,0.16873 -0.4021,-0.0154 -0.4839,-0.0915 -0.2086,-0.19409 z m -8.6513,-0.32852 c 0.4272,-0.0766 1.1262,-0.0766 1.5534,0 0.4272,0.0766 0.078,0.13922 -0.7767,0.13922 -0.8543,0 -1.2038,-0.0627 -0.7767,-0.13922 z m 5.1819,-6.5e-4 c 0.4294,-0.0768 1.0507,-0.0739 1.3808,0.006 0.33,0.0804 -0.021,0.14328 -0.7807,0.13972 -0.7595,-0.004 -1.0295,-0.0694 -0.6001,-0.1462 z m -280.90206,-0.83692 c 0,-0.0553 0.50484,-0.52512 1.12187,-1.04407 l 1.12186,-0.94355 -1.01385,1.04407 c -0.94505,0.97322 -1.22988,1.19174 -1.22988,0.94355 z m 260.43136,-5.70341 c -0.3715,-0.55944 0.052,-0.67792 0.525,-0.14702 0.2723,0.30532 0.2985,0.48965 0.07,0.48965 -0.2019,0 -0.4695,-0.15419 -0.5946,-0.34263 z m -253.18238,-1.10302 c 0.64405,-0.61841 1.24867,-1.12438 1.3436,-1.12438 0.0949,0 -0.35436,0.50597 -0.99841,1.12438 -0.64405,0.61842 -1.24866,1.12439 -1.34359,1.12439 -0.0949,0 0.35435,-0.50597 0.9984,-1.12439 z m 250.74748,-1.2047 -0.6576,-0.72282 0.7767,0.61199 c 0.4271,0.33659 0.7766,0.66186 0.7766,0.72282 0,0.25708 -0.2778,0.0673 -0.8957,-0.61199 z M 811.31655,375.5899 c 0,-0.0667 0.27184,-0.3197 0.60408,-0.56219 0.54749,-0.3996 0.5597,-0.38824 0.13033,0.12129 -0.45095,0.53513 -0.73441,0.7053 -0.73441,0.4409 z m 246.07615,-1.08341 c -0.4294,-0.50953 -0.4172,-0.52089 0.1303,-0.12129 0.575,0.41967 0.7579,0.68348 0.4738,0.68348 -0.072,0 -0.3435,-0.25298 -0.6041,-0.56219 z m -185.32278,0.11468 c 0,-0.0694 0.24107,-0.21234 0.53571,-0.31757 0.30719,-0.1097 0.44575,-0.0558 0.32482,0.12626 -0.20272,0.30525 -0.86053,0.4515 -0.86053,0.19131 z m -58.68223,-0.63754 c 0,-0.0667 0.27183,-0.31969 0.60408,-0.56219 0.54749,-0.3996 0.5597,-0.38824 0.13033,0.12129 -0.45095,0.53513 -0.73441,0.70531 -0.73441,0.4409 z m 3.1067,-2.24877 c 0,-0.0667 0.27184,-0.3197 0.60409,-0.56219 0.54749,-0.3996 0.55969,-0.38824 0.13032,0.12129 -0.45094,0.53512 -0.73441,0.7053 -0.73441,0.4409 z m 95.20761,-9.41451 c 0.24918,-0.0928 0.54691,-0.0814 0.66161,0.0254 0.11471,0.10675 -0.0892,0.18268 -0.45306,0.16873 -0.40213,-0.0154 -0.48392,-0.0915 -0.20855,-0.19409 z m 102.8665,0 c 0.2492,-0.0928 0.5469,-0.0814 0.6616,0.0254 0.1147,0.10675 -0.089,0.18268 -0.4531,0.16873 -0.4021,-0.0154 -0.4839,-0.0915 -0.2085,-0.19409 z m -101.14055,-0.32126 c 0.24918,-0.0928 0.54691,-0.0814 0.66161,0.0254 0.1147,0.10675 -0.0892,0.18268 -0.45306,0.16873 -0.40213,-0.0154 -0.48392,-0.0915 -0.20855,-0.19409 z m 99.41455,0 c 0.2492,-0.0928 0.547,-0.0814 0.6617,0.0254 0.1147,0.10675 -0.089,0.18268 -0.4531,0.16873 -0.4021,-0.0154 -0.4839,-0.0915 -0.2086,-0.19409 z m -97.68861,-0.32125 c 0.24919,-0.0928 0.54692,-0.0814 0.66162,0.0254 0.1147,0.10675 -0.0892,0.18268 -0.45306,0.16873 -0.40213,-0.0154 -0.48392,-0.0915 -0.20856,-0.19409 z m 95.96271,0 c 0.2492,-0.0928 0.5469,-0.0814 0.6616,0.0254 0.1147,0.10675 -0.089,0.18268 -0.453,0.16873 -0.4022,-0.0154 -0.484,-0.0915 -0.2086,-0.19409 z m -94.23676,-0.32125 c 0.24918,-0.0928 0.54691,-0.0814 0.66162,0.0254 0.1147,0.10675 -0.0892,0.18268 -0.45307,0.16873 -0.40212,-0.0154 -0.48392,-0.0915 -0.20855,-0.19409 z m 92.51086,0 c 0.2491,-0.0928 0.5469,-0.0814 0.6616,0.0254 0.1147,0.10675 -0.089,0.18268 -0.4531,0.16873 -0.4021,-0.0154 -0.4839,-0.0915 -0.2085,-0.19409 z m -90.43972,-0.32126 c 0.24918,-0.0928 0.54691,-0.0814 0.66161,0.0254 0.11471,0.10675 -0.0892,0.18267 -0.45306,0.16873 -0.40213,-0.0154 -0.48392,-0.0915 -0.20855,-0.1941 z m 88.36852,0 c 0.2492,-0.0928 0.5469,-0.0814 0.6616,0.0254 0.1147,0.10675 -0.089,0.18267 -0.453,0.16873 -0.4022,-0.0154 -0.484,-0.0915 -0.2086,-0.1941 z m -86.64257,-0.32125 c 0.24918,-0.0928 0.54691,-0.0814 0.66161,0.0254 0.1147,0.10675 -0.0892,0.18268 -0.45306,0.16873 -0.40213,-0.0154 -0.48392,-0.0915 -0.20855,-0.19409 z m 84.57147,0 c 0.2492,-0.0928 0.5469,-0.0814 0.6616,0.0254 0.1147,0.10675 -0.089,0.18268 -0.4531,0.16873 -0.4021,-0.0154 -0.4839,-0.0915 -0.2085,-0.19409 z m -82.50034,-0.32125 c 0.24919,-0.0928 0.54692,-0.0814 0.66162,0.0254 0.1147,0.10675 -0.0892,0.18268 -0.45306,0.16873 -0.40213,-0.0154 -0.48392,-0.0915 -0.20856,-0.19409 z m 80.42914,0 c 0.2492,-0.0928 0.547,-0.0814 0.6617,0.0254 0.1147,0.10675 -0.089,0.18268 -0.4531,0.16873 -0.4021,-0.0154 -0.4839,-0.0915 -0.2086,-0.19409 z m -78.01281,-0.32126 c 0.24918,-0.0928 0.54691,-0.0814 0.66162,0.0254 0.1147,0.10675 -0.0892,0.18267 -0.45306,0.16873 -0.40213,-0.0154 -0.48393,-0.0915 -0.20856,-0.1941 z m 75.59651,0 c 0.2492,-0.0928 0.5469,-0.0814 0.6616,0.0254 0.1147,0.10675 -0.089,0.18267 -0.453,0.16873 -0.4022,-0.0154 -0.484,-0.0915 -0.2086,-0.1941 z m -73.54694,-0.31456 c 0.23731,-0.0891 0.62565,-0.0891 0.86297,0 0.23732,0.0891 0.0432,0.16204 -0.43149,0.16204 -0.47463,0 -0.6688,-0.0729 -0.43148,-0.16204 z m 71.10905,0 c 0.23732,-0.0891 0.62566,-0.0891 0.86298,0 0.23731,0.0891 0.0431,0.16204 -0.43149,0.16204 -0.47464,0 -0.66881,-0.0729 -0.43149,-0.16204 z m -68.69273,-0.32125 c 0.23732,-0.0891 0.62566,-0.0891 0.86298,0 0.23731,0.0891 0.0432,0.16204 -0.43149,0.16204 -0.47464,0 -0.66881,-0.0729 -0.43149,-0.16204 z m 65.93121,0 c 0.23732,-0.0891 0.62566,-0.0891 0.86298,0 0.23732,0.0891 0.0431,0.16204 -0.43149,0.16204 -0.47463,0 -0.6688,-0.0729 -0.43149,-0.16204 z m -62.8245,-0.32125 c 0.23732,-0.0891 0.62565,-0.0891 0.86297,0 0.23732,0.0891 0.0431,0.16203 -0.43148,0.16203 -0.47464,0 -0.66881,-0.0729 -0.43149,-0.16203 z m 60.06299,0 c 0.23732,-0.0891 0.62565,-0.0891 0.86297,0 0.23732,0.0891 0.0431,0.16203 -0.43149,0.16203 -0.47463,0 -0.6688,-0.0729 -0.43148,-0.16203 z m -57.12231,-0.33112 c 0.33586,-0.0815 0.80186,-0.0761 1.03557,0.0119 0.2337,0.088 -0.0411,0.15464 -0.61065,0.14809 -0.56957,-0.007 -0.76078,-0.0785 -0.42492,-0.15999 z m 53.49782,10e-4 c 0.33224,-0.0808 0.87592,-0.0808 1.20816,0 0.33225,0.0808 0.0604,0.14691 -0.60408,0.14691 -0.66449,0 -0.93633,-0.0661 -0.60408,-0.14691 z m -50.05249,-0.3211 c 0.33224,-0.0808 0.87591,-0.0808 1.20816,0 0.33224,0.0808 0.0604,0.14692 -0.60408,0.14692 -0.66449,0 -0.93633,-0.0661 -0.60408,-0.14692 z m 46.60716,-10e-4 c 0.33586,-0.0815 0.80186,-0.0761 1.03557,0.0119 0.2337,0.088 -0.0411,0.15464 -0.61065,0.14809 -0.56956,-0.007 -0.76078,-0.0786 -0.42492,-0.16 z m -42.28827,-0.32583 c 0.42939,-0.0769 1.05073,-0.0739 1.38076,0.006 0.33003,0.0804 -0.0213,0.14328 -0.7807,0.13971 -0.75942,-0.004 -1.02944,-0.0694 -0.60006,-0.14619 z m 37.27645,4.8e-4 c 0.42717,-0.0766 1.12618,-0.0766 1.55336,0 0.42717,0.0766 0.0777,0.13922 -0.77668,0.13922 -0.85435,0 -1.20385,-0.0626 -0.77668,-0.13922 z m -31.75126,-0.32736 c 0.62043,-0.0715 1.55244,-0.07 2.07114,0.003 0.5187,0.0733 0.0111,0.1318 -1.12805,0.13 -1.13912,-0.002 -1.56351,-0.0618 -0.94309,-0.13328 z m 25.53785,4.2e-4 c 0.61703,-0.0713 1.62671,-0.0713 2.24373,0 0.61703,0.0713 0.11219,0.12957 -1.12186,0.12957 -1.23406,0 -1.7389,-0.0583 -1.12187,-0.12957 z m -14.68566,-0.32677 c 1.27321,-0.0616 3.44791,-0.062 4.83265,-9e-4 1.38475,0.0611 0.34304,0.11157 -2.31492,0.11207 -2.65796,5.1e-4 -3.79094,-0.0495 -2.51773,-0.11115 z m -77.80358,-12.18915 c 0.24919,-0.0928 0.54691,-0.0814 0.66162,0.0254 0.1147,0.10675 -0.0892,0.18268 -0.45306,0.16873 -0.40213,-0.0154 -0.48393,-0.0915 -0.20856,-0.19409 z m 100.79536,-0.96376 c 0.24919,-0.0928 0.54692,-0.0814 0.66162,0.0254 0.1147,0.10675 -0.0892,0.18268 -0.45306,0.16873 -0.40213,-0.0154 -0.48392,-0.0915 -0.20856,-0.19409 z m -93.89157,-0.32126 c 0.24919,-0.0928 0.54692,-0.0814 0.66162,0.0254 0.1147,0.10675 -0.0892,0.18268 -0.45306,0.16873 -0.40213,-0.0154 -0.48392,-0.0915 -0.20856,-0.19409 z m 92.16563,0 c 0.24918,-0.0928 0.54691,-0.0814 0.66161,0.0254 0.1147,0.10675 -0.0892,0.18268 -0.45306,0.16873 -0.40213,-0.0154 -0.48392,-0.0915 -0.20855,-0.19409 z m -90.43968,-0.32125 c 0.24918,-0.0928 0.54691,-0.0814 0.66162,0.0254 0.1147,0.10675 -0.0892,0.18268 -0.45306,0.16873 -0.40213,-0.0154 -0.48393,-0.0915 -0.20856,-0.19409 z m 88.71373,0 c 0.24918,-0.0928 0.54691,-0.0814 0.66161,0.0254 0.11471,0.10675 -0.0892,0.18268 -0.45306,0.16873 -0.40213,-0.0154 -0.48392,-0.0915 -0.20855,-0.19409 z m -86.64259,-0.32125 c 0.24918,-0.0928 0.54691,-0.0814 0.66161,0.0254 0.11471,0.10675 -0.0892,0.18268 -0.45306,0.16873 -0.40213,-0.0154 -0.48392,-0.0915 -0.20855,-0.19409 z m 84.57145,0 c 0.24918,-0.0928 0.54691,-0.0814 0.66161,0.0254 0.11471,0.10675 -0.0892,0.18268 -0.45306,0.16873 -0.40213,-0.0154 -0.48392,-0.0915 -0.20855,-0.19409 z m -82.50031,-0.32126 c 0.24918,-0.0928 0.54691,-0.0814 0.66161,0.0254 0.11471,0.10675 -0.0892,0.18268 -0.45306,0.16873 -0.40213,-0.0154 -0.48392,-0.0915 -0.20855,-0.19409 z m 80.42917,0 c 0.24918,-0.0928 0.54691,-0.0814 0.66162,0.0254 0.1147,0.10675 -0.0892,0.18268 -0.45306,0.16873 -0.40213,-0.0154 -0.48393,-0.0915 -0.20856,-0.19409 z m -78.35803,-0.32125 c 0.24918,-0.0928 0.54691,-0.0814 0.66161,0.0254 0.1147,0.10675 -0.0892,0.18268 -0.45306,0.16873 -0.40213,-0.0154 -0.48392,-0.0915 -0.20855,-0.19409 z m 76.2869,0 c 0.24918,-0.0928 0.54691,-0.0814 0.66161,0.0254 0.1147,0.10675 -0.0892,0.18268 -0.45306,0.16873 -0.40213,-0.0154 -0.48392,-0.0915 -0.20855,-0.19409 z m -74.23734,-0.31456 c 0.23732,-0.0891 0.62565,-0.0891 0.86297,0 0.23732,0.0891 0.0431,0.16203 -0.43148,0.16203 -0.47464,0 -0.66881,-0.0729 -0.43149,-0.16203 z m 71.79943,0 c 0.23732,-0.0891 0.62566,-0.0891 0.86298,0 0.23732,0.0891 0.0431,0.16203 -0.43149,0.16203 -0.47463,0 -0.6688,-0.0729 -0.43149,-0.16203 z m -69.01634,-0.32795 c 0.24918,-0.0928 0.54691,-0.0814 0.66161,0.0254 0.11471,0.10675 -0.0892,0.18268 -0.45306,0.16873 -0.40213,-0.0154 -0.48392,-0.0915 -0.20855,-0.19409 z m 66.60002,0.007 c 0.23731,-0.0891 0.62565,-0.0891 0.86297,0 0.23732,0.0891 0.0431,0.16204 -0.43149,0.16204 -0.47463,0 -0.6688,-0.0729 -0.43148,-0.16204 z m -64.20527,-0.32125 c 0.23732,-0.0891 0.62566,-0.0891 0.86298,0 0.23731,0.0891 0.0432,0.16204 -0.43149,0.16204 -0.47464,0 -0.66881,-0.0729 -0.43149,-0.16204 z m 61.44375,0 c 0.23732,-0.0891 0.62566,-0.0891 0.86297,0 0.23732,0.0891 0.0431,0.16204 -0.43148,0.16204 -0.47464,0 -0.66881,-0.0729 -0.43149,-0.16204 z m -58.33704,-0.32125 c 0.23732,-0.0891 0.62566,-0.0891 0.86297,0 0.23732,0.0891 0.0431,0.16203 -0.43148,0.16203 -0.47464,0 -0.66881,-0.0729 -0.43149,-0.16203 z m 55.57552,0 c 0.23732,-0.0891 0.62566,-0.0891 0.86298,0 0.23731,0.0891 0.0432,0.16203 -0.43149,0.16203 -0.47464,0 -0.6688,-0.0729 -0.43149,-0.16203 z m -52.28965,-0.33112 c 0.33586,-0.0815 0.80186,-0.0761 1.03557,0.0119 0.2337,0.088 -0.0411,0.15464 -0.61065,0.1481 -0.56957,-0.007 -0.76078,-0.0786 -0.42492,-0.16 z m 48.66516,0.001 c 0.33225,-0.0808 0.87592,-0.0808 1.20817,0 0.33224,0.0808 0.0604,0.14691 -0.60409,0.14691 -0.66449,0 -0.93632,-0.0661 -0.60408,-0.14691 z m -44.87464,-0.32126 c 0.33224,-0.0808 0.87591,-0.0808 1.20816,0 0.33224,0.0808 0.0604,0.14692 -0.60408,0.14692 -0.66449,0 -0.93633,-0.0661 -0.60408,-0.14692 z m 41.07756,0 c 0.33224,-0.0808 0.87592,-0.0808 1.20816,0 0.33225,0.0808 0.0604,0.14692 -0.60408,0.14692 -0.66449,0 -0.93633,-0.0661 -0.60408,-0.14692 z m -36.24016,-0.33033 c 0.52471,-0.0738 1.30138,-0.0719 1.72594,0.004 0.42457,0.0763 -0.005,0.13667 -0.95401,0.13425 -0.94928,-0.002 -1.29664,-0.0648 -0.77193,-0.13864 z m 31.23491,0.004 c 0.42717,-0.0766 1.12618,-0.0766 1.55335,0 0.42717,0.0766 0.0777,0.13922 -0.77668,0.13922 -0.85434,0 -1.20384,-0.0626 -0.77667,-0.13922 z m -24.16327,-0.32976 c 0.80688,-0.0676 2.12723,-0.0676 2.93411,0 0.80688,0.0676 0.1467,0.12297 -1.46706,0.12297 -1.61376,0 -2.27393,-0.0553 -1.46705,-0.12297 z m 15.87872,0 c 0.80688,-0.0676 2.12723,-0.0676 2.93411,0 0.80688,0.0676 0.1467,0.12297 -1.46706,0.12297 -1.61376,0 -2.27393,-0.0553 -1.46705,-0.12297 z"
       id="path821"
       inkscape:connector-curvature="0" />
    <path
       style="fill:#95191e;stroke-width:0.33300653"
       d="m 927.99063,500.80443 c -60.12012,-1.98697 -110.96359,-21.88433 -132.36285,-51.79959 -8.728,-12.20137 -11.71777,-26.38436 -8.31484,-39.4443 5.82415,-22.35225 28.39477,-42.08304 62.95134,-55.03081 34.81549,-13.04478 79.35892,-17.52382 120.01208,-12.06776 14.44081,1.9381 25.18592,4.27879 38.31604,8.34668 21.0318,6.51593 39.0223,15.62217 52.2962,26.47072 0.9307,0.76062 -0.021,0.40346 -4.1423,-1.55507 -7.4411,-3.53595 -12.4905,-5.49964 -20.7113,-8.05444 -21.7816,-6.76914 -45.48234,-10.01994 -73.18022,-10.03744 -12.29303,-0.008 -18.49769,0.29247 -29.14141,1.41009 -24.86788,2.6112 -48.73943,9.02858 -66.25935,17.81249 -7.12021,3.56984 -10.57619,5.74354 -10.55596,6.63935 0.0344,1.52569 13.38237,54.03688 13.60615,53.52708 0.12821,-0.29205 3.92692,-12.86912 8.44159,-27.94904 l 8.2085,-27.41804 6.23718,-0.0875 6.23717,-0.0875 0.47803,1.5331 c 0.26291,0.84321 4.04163,13.41707 8.39715,27.94192 4.35552,14.52484 8.01409,26.30681 8.13016,26.18215 0.11608,-0.12466 3.27551,-12.58417 7.02096,-27.68779 3.74545,-15.10362 6.88372,-27.57227 6.97393,-27.70811 0.14242,-0.21446 13.59783,-0.37961 13.57829,-0.16666 -0.004,0.0442 -4.79801,16.41605 -10.65325,36.38195 l -10.64588,36.30164 -6.07004,0.0876 -6.07004,0.0877 -0.35363,-1.21204 c -5.25001,-17.99403 -16.79501,-55.92419 -16.96775,-55.74617 -0.12931,0.13326 -4.09461,13.00327 -8.81176,28.60003 l -8.57665,28.35773 -6.03409,-0.0874 -6.0341,-0.0874 -8.902,-31.45361 c -4.8961,-17.29949 -8.99696,-31.53905 -9.11302,-31.64347 -0.25611,-0.23042 -3.60665,3.15552 -6.17002,6.23522 -3.93954,4.73306 -6.51676,9.51676 -8.21576,15.24964 -1.04048,3.51088 -1.04048,12.25033 0,15.76121 2.349,7.92614 6.45168,14.23328 13.5943,20.89882 24.0385,22.43286 73.88313,35.82398 126.67114,34.03112 35.47708,-1.20493 65.62078,-7.85404 87.99848,-19.41072 1.8756,-0.96864 2.0738,-1.02197 1.2081,-0.32506 -6.0761,4.8916 -14.9686,10.66081 -22.2553,14.43872 -23.9156,12.39933 -54.15977,20.21042 -86.30681,22.29023 -5.68117,0.36755 -19.59587,0.63707 -24.50846,0.4747 z m 28.7064,-45.43241 c -7.69452,-0.9796 -13.66084,-4.99129 -16.94628,-11.3945 -2.35383,-4.58755 -2.61592,-5.92209 -2.58669,-13.1714 0.0223,-5.53333 0.12963,-6.78176 0.77326,-8.99509 2.01523,-6.93001 6.43104,-12.33612 12.14545,-14.86922 4.26499,-1.8906 7.38664,-2.4381 12.72889,-2.23249 6.6076,0.25431 10.18896,1.65268 14.12689,5.51596 4.59385,4.50677 6.80709,10.31433 7.50662,19.6974 l 0.24549,3.29285 h -18.68471 -18.6847 l 0.003,0.72282 c 0.006,1.73254 0.79099,5.0359 1.57823,6.64356 1.33216,2.72046 2.97335,4.35215 5.57755,5.5453 2.08443,0.955 2.65963,1.06817 5.9455,1.16978 3.08662,0.0954 3.94023,0.007 5.6338,-0.58639 3.64033,-1.27461 6.77657,-4.1498 7.58141,-6.95033 l 0.40354,-1.40469 h 4.93365 c 2.87995,0 4.93366,0.12682 4.93366,0.30467 0,1.23227 -1.9831,5.71413 -3.44449,7.78466 -3.03859,4.30514 -7.10497,7.07065 -12.15327,8.26534 -3.05878,0.72387 -8.63402,1.04148 -11.61656,0.66177 z m 17.36462,-29.84882 c 0.29194,-0.43961 -0.69383,-4.57348 -1.49008,-6.2487 -0.96755,-2.03564 -3.25839,-4.21107 -5.52567,-5.24729 -1.76956,-0.80875 -2.29413,-0.89002 -5.74447,-0.89002 -3.37788,0 -4.00669,0.0926 -5.69563,0.83849 -2.46344,1.08798 -4.72698,2.99418 -6.11425,5.149 -1.16482,1.80929 -2.35652,5.46575 -2.03529,6.24482 0.15846,0.38432 2.27787,0.4572 13.29618,0.4572 7.85494,0 13.18843,-0.12163 13.30921,-0.3035 z m 36.42925,29.83313 c -2.7578,-0.45312 -5.758,-1.87704 -8.0256,-3.80902 l -1.9849,-1.69108 v 2.28101 2.28101 h -4.66001 -4.66006 v -33.0891 -33.08911 h 5.00525 5.00522 v 11.11302 11.11301 l 1.7985,-1.50486 c 3.4139,-2.85655 7.6964,-4.33724 12.5442,-4.33724 10.447,0 18.0836,5.99473 21.076,16.54455 0.784,2.76431 0.9025,11.72341 0.1953,14.77766 -2.4213,10.45818 -8.0053,16.89197 -16.434,18.93514 -2.6093,0.6325 -7.4747,0.8669 -9.8599,0.47501 z m 7.6845,-8.54351 c 3.5354,-1.03247 6.6719,-4.80765 8.0941,-9.74225 0.7774,-2.69714 0.8637,-11.78632 0.1373,-14.45641 -1.1981,-4.40359 -3.2649,-7.10684 -6.54,-8.5537 -2.8411,-1.25513 -7.6539,-1.45153 -10.556,-0.43077 -5.0978,1.79307 -7.6616,6.22488 -8.5101,14.71097 -0.3983,3.98265 -0.042,8.20371 0.9018,10.69399 2.5318,6.67848 9.2983,9.87345 16.4729,7.77817 z m 56.4566,7.90163 c -5.0768,-0.69309 -10.8106,-2.83081 -14.9003,-5.55527 -10.9762,-7.3121 -16.2489,-21.59556 -13.4752,-36.50387 2.4822,-13.34191 11.7698,-23.28398 24.5991,-26.33243 18.4334,-4.38013 36.2015,4.30807 39.5361,19.33228 0.3022,1.36153 0.5494,2.55671 0.5494,2.65594 0,0.0992 -3.3571,0.14148 -7.4603,0.0939 l -7.4602,-0.0866 -0.7003,-1.76689 c -2.3845,-6.01636 -7.4186,-9.07079 -14.9285,-9.05775 -11.0547,0.0192 -17.8548,6.97051 -19.116,19.5411 -0.6231,6.21079 0.288,11.67184 2.7262,16.34131 2.3625,4.52464 5.8756,7.44798 10.6693,8.87838 4.427,1.32097 11.3237,0.83903 15.3501,-1.07265 4.149,-1.96987 7.7815,-7.43896 7.7984,-11.74108 v -1.04408 h -7.9393 -7.9394 v -5.30068 -5.30068 h 15.0157 15.0158 v 17.99019 17.9902 h -4.8094 c -4.2843,0 -4.8283,-0.0614 -4.9825,-0.5622 -0.095,-0.3092 -0.4266,-1.79099 -0.7364,-3.29285 -0.8875,-4.3026 -0.6775,-4.15531 -2.805,-1.96728 -3.2375,3.32944 -7.6519,5.62605 -12.7285,6.6221 -2.5902,0.50819 -8.0827,0.57583 -11.2829,0.13893 z m 47.7004,-34.50969 v -33.24973 h 7.7667 7.7668 v 27.14592 27.14591 h 17.4321 17.4321 v 6.10382 6.10381 h -25.1989 -25.1988 z m 60.7533,29.87657 v -3.37316 h -1.3807 c -1.2427,0 -1.3808,-0.0803 -1.3808,-0.80313 v -0.80314 h 3.9697 3.9697 v 0.80314 c 0,0.72282 -0.1381,0.80313 -1.3808,0.80313 h -1.3807 v 3.37316 3.37316 h -1.2082 -1.2082 z m 6.5586,-0.80313 v -4.1763 h 1.6801 1.6802 l 0.7994,2.88596 c 0.4397,1.58728 0.8604,2.82924 0.9349,2.75992 0.074,-0.0693 0.4884,-1.33187 0.9197,-2.80565 l 0.7842,-2.6796 1.7786,-0.0971 1.7786,-0.0971 v 4.19308 4.19308 h -1.0355 -1.0356 v -3.26608 c 0,-1.79634 -0.1123,-3.16152 -0.2496,-3.03375 -0.1373,0.12778 -0.6428,1.56138 -1.1233,3.18576 -0.8067,2.72736 -0.9447,2.9611 -1.8025,3.05339 -0.8335,0.0897 -0.9689,-0.0424 -1.318,-1.28501 -0.214,-0.76173 -0.674,-2.25235 -1.0222,-3.31248 l -0.6332,-1.92752 -0.033,3.29284 -0.032,3.29285 h -1.0356 -1.0355 v -4.17629 z"
       id="path819"
       inkscape:connector-curvature="0" />
  </g>
</svg>
