<svg xmlns="http://www.w3.org/2000/svg" height="496.411" width="406.555" id="svg2"><path id="path817" d="M130.04 494.3c-8.78-3.133-12.944-6.144-18.495-13.378-5.742-7.481-7.439-14.55-6.757-28.153.65-12.983 2.666-17.89 10.823-26.346 9.263-9.603 25.034-13.45 38.545-9.402 12.562 3.763 23.246 18.77 24.688 34.678l.702 7.737h-63.088l.87 3.666c1.664 7.02 4.147 11.693 8.423 15.857 8.7 8.47 24.334 9.373 36.062 2.082l6.624-4.117 2.716 3.814 2.716 3.814-4.755 3.92c-9.173 7.561-26.833 10.195-39.074 5.827zm36.434-47.198c-2.41-11.435-9.196-18.441-19.612-20.249-12.985-2.253-29.02 9.452-29.02 21.183v3.4h49.545zm45.445 47.759c-7.791-2.896-11.73-6.237-15.077-12.786-7.217-14.123-.175-30.874 14.855-35.337 11.22-3.332 20.338-2.085 29.32 4.01l4.825 3.274-.003-7.626c-.003-10.557-3.149-16.454-9.998-18.742-8.211-2.744-18.664-1.203-25.756 3.796-6.595 4.648-8.105 4.56-10.884-.632-1.805-3.372-1.717-3.776 1.355-6.207 9.042-7.155 13.384-8.509 27.285-8.509 15.17 0 21.857 2.414 26.792 9.671 3.48 5.119 4.829 23.165 3.62 48.442l-.823 17.22h-5.127c-3.669 0-5.128-.568-5.128-2 0-2.686-.304-2.608-7.796 2.002-8.027 4.94-19.525 6.373-27.46 3.424zm26.175-10.909c5.575-2.852 7.748-7.002 7.748-14.794 0-6.705-.237-7.174-5.309-10.531-6.838-4.525-15.617-5.552-23.086-2.7-14.49 5.535-13.536 25.881 1.404 29.936 5.757 1.563 14.068.738 19.243-1.91zm67.74 10.317c-9.271-3.04-18.852-11.162-23.07-19.557-3.602-7.17-5.095-19.181-3.474-27.95 1.912-10.343 5.105-16.376 11.936-22.547 7.802-7.048 13.637-9.242 24.616-9.255 10.487-.012 20.864 3.676 26.138 9.289l3.066 3.264-4.239 4.24-4.239 4.239-3.696-3.527c-9.753-9.305-26.24-8.024-35.3 2.742-3.43 4.076-6.397 14.03-6.397 21.46 0 5.752 3.691 14.958 7.719 19.251 4.313 4.598 12.844 8.781 17.99 8.822 4.977.04 12.853-3.373 17.037-7.38l3.412-3.269 3.829 3.997 3.828 3.996-3.24 3.472c-5.49 5.882-13.032 8.928-23.241 9.388-5.134.232-10.837-.072-12.676-.675zm65.488-.694c-6.219-3.447-6.716-6.174-6.766-37.14l-.047-29h-13.494l.413-5c.402-4.853.58-5.011 6.081-5.41l5.667-.41v-21.18h12v20h16v12h-14.667v26.572c0 22.988.299 26.87 2.215 28.787 2.134 2.134 6.428 2.187 11.15.137 1.453-.631 2.503.358 3.694 3.478 1.502 3.939 1.389 4.586-1.179 6.693-3.457 2.838-16.28 3.126-21.067.473zm-311.935-20.14L45.946 452.77H23.175v38.667h-12v-104H35.11c30.973 0 36.24 1.094 44.09 9.16 6.792 6.979 9.323 13.615 9.28 24.328-.054 13.015-8.472 24.922-20.125 28.464-3.216.978-5.709 2.401-5.54 3.164.168.763 6.018 10.034 13 20.603 6.981 10.569 12.694 19.606 12.694 20.082 0 .476-3.528.865-7.84.865h-7.841zm4.8-36.659c12.718-7.754 12.718-25.594 0-33.347-3.778-2.304-6.737-2.65-22.678-2.655l-18.334-.005v38.667l18.334-.005c15.941-.004 18.9-.35 22.679-2.655zm205.655-75.473c-16.47-4.396-37.896-17.136-55.729-33.138-5.35-4.801-10.278-8.73-10.95-8.73-.67 0-4.993 3.38-9.604 7.51-17.623 15.784-39.945 29.167-55.339 33.177-17.535 4.567-34.182 1.17-44.488-9.079-6.792-6.755-11.273-16.04-14.076-29.17-2.742-12.839-1.698-42.016 2.133-59.656 1.5-6.904 2.575-12.69 2.39-12.86-.185-.168-6.017-2.202-12.96-4.519C25.725 229.656-.055 206.464 0 180.77c.053-24.823 23.85-46.608 67.842-62.107 12.917-4.551 15.965-6.111 15.817-8.098-.101-1.354-1.451-9.571-3-18.26-3.115-17.471-3.695-39.574-1.372-52.29 3.15-17.244 12.866-30.87 26.392-37.01C110.387.866 114.36.23 122.509.308c20.57.197 43.206 11.606 70.188 35.377l10.188 8.975 9.812-8.704c12.79-11.347 33.41-25.104 44.779-29.876C270.16.757 282.153-1.135 291.852.658c18.644 3.447 29.429 15.84 34.821 40.016 2.83 12.691 1.837 41.708-2.056 60.033-1.473 6.932-2.442 12.84-2.153 13.128.289.29 6.518 2.536 13.843 4.994 54.344 18.232 80.43 49.38 66.585 79.507-8.635 18.788-33.84 36.442-68.167 47.745-11.932 3.929-13.043 4.576-12.31 7.17 3.06 10.834 6.091 35.115 6.074 48.65-.032 25.638-4.947 40.163-17.37 51.332-10.876 9.778-24.728 12.487-41.277 8.07zm-124.7-22.984c10.637-5.13 26.038-15.992 38.61-27.231l6.575-5.88L179.3 292.17c-6.064-7.172-13.727-16.793-17.027-21.381l-6.002-8.343-8.678-.889c-4.773-.489-15.97-2.143-24.882-3.675s-17.063-2.86-18.115-2.95c-2.97-.254-6.706 19.714-7.647 40.874-.67 15.047-.403 19.899 1.469 26.815 2.554 9.434 8.333 17.458 14.653 20.344 6.98 3.187 19.629 1.355 32.07-4.646zm147.843 4.616c11.199-4.68 16.857-18.482 16.857-41.12 0-13.485-4.253-44.595-6.36-46.525-.536-.49-6.373.234-12.973 1.609-6.6 1.374-18.402 3.222-26.226 4.106l-14.225 1.608-6.638 8.87c-3.65 4.877-11.24 14.354-16.864 21.058-5.626 6.705-9.897 12.725-9.493 13.38 1.253 2.027 22.435 19.504 29.132 24.037 18.752 12.69 36.015 17.479 46.79 12.977zm-78.335-65.166l10.354-12.333-10.914-.388c-6.003-.213-15.826-.213-21.829 0l-10.914.388 10.354 12.333c5.694 6.783 10.858 12.333 11.474 12.333.617 0 5.78-5.55 11.475-12.333zm26.374-35c5.459-7.423 19.587-31.15 27-45.344l8.363-16.011-8.365-15.99c-7.43-14.202-21.589-37.968-27-45.322-1.877-2.552-3.504-2.666-37.847-2.666-34.342 0-35.97.114-37.847 2.666-5.4 7.338-19.56 31.105-26.954 45.237l-8.32 15.904 5.93 11.808c6.16 12.266 18.013 32.668 25.94 44.648 3.495 5.283 5.536 7.069 8.585 7.512 2.2.32 18.524.502 36.277.403 30.624-.17 32.377-.315 34.238-2.845zm-53.182-27.811c-12.652-5.918-22-20.162-22-33.522 0-19.785 17.175-36.64 37.333-36.64 20.159 0 37.334 16.855 37.334 36.64 0 19.784-17.175 36.64-37.334 36.64-6.295 0-10.49-.853-15.333-3.118zm-46 26.619c0-.289-4.185-7.57-9.3-16.18-5.116-8.611-9.657-16.775-10.09-18.142-.435-1.367-1.277-2.486-1.874-2.486-1.017 0-12.07 28.039-12.07 30.62 0 .655 3.412 1.9 7.582 2.765 15.456 3.208 25.752 4.577 25.752 3.423zm143.667-2.881c8.546-1.527 12.333-2.77 12.333-4.047 0-1.835-10.217-29.874-11.269-30.926-.303-.304-2.088 2.48-3.967 6.187-1.878 3.707-6.718 12.187-10.756 18.846-4.038 6.659-7.341 12.452-7.341 12.875 0 .796.542.72 21-2.935zm-189.056-25.26c3.521-9.534 7.88-20.593 9.688-24.577l3.285-7.243-7.025-16.987c-3.863-9.343-8.101-20.403-9.417-24.577-1.316-4.175-3.051-7.843-3.856-8.152-2.418-.928-24.424 7.364-37.953 14.302-49.942 25.61-41.744 55.736 21.769 80.002 7.46 2.85 14.362 5.044 15.336 4.874.974-.17 4.652-8.109 8.173-17.642zM330.736 227.3c6.475-2.274 17.473-7.058 24.44-10.63 50.254-25.77 41.416-56.49-23.16-80.504-7.238-2.691-13.84-4.632-14.67-4.313-.831.318-3.165 5.605-5.186 11.748-2.021 6.142-6.266 17.153-9.432 24.467l-5.757 13.3 6.895 16.7c3.792 9.186 7.968 20.001 9.28 24.034 2.809 8.638 3.157 9.334 4.669 9.334.631 0 6.446-1.861 12.92-4.136zm-205.374-76.864c2.741-4.95 7.912-13.71 11.491-19.466l6.507-10.467-5.759.884c-3.167.486-11.056 1.817-17.53 2.957-11.595 2.043-11.76 2.125-10.918 5.477 1.031 4.11 10.407 29.615 10.886 29.615.187 0 2.582-4.05 5.323-9zm169.252-11.917l4.453-12.25-6.946-1.364c-12.699-2.495-22.739-4.136-25.3-4.136-2.283 0-2.124.69 1.611 7 2.28 3.85 7.247 12.672 11.038 19.604l6.894 12.605 1.899-4.605c1.044-2.532 3.902-10.116 6.351-16.854zm-172.799-33.687c7.914-1.425 18.88-2.998 24.369-3.495l9.979-.904 6.702-8.957c3.687-4.926 11.305-14.441 16.93-21.146 5.625-6.704 9.897-12.725 9.493-13.38-1.752-2.834-23.582-20.359-32.113-25.778-28.764-18.275-47.778-17.185-56.734 3.254-4.574 10.437-5.162 33.465-1.418 55.455 3.094 18.168 3.53 19.412 6.413 18.306 1.095-.42 8.465-1.93 16.38-3.355zM306.94 93.77c3.786-20.881 4.516-31.941 2.924-44.333C306.595 24 294.088 14.02 273.037 20.052c-14.492 4.151-31.33 14.784-47.778 30.17l-8.619 8.063 9.967 11.57c5.482 6.364 13.102 15.844 16.934 21.066l6.968 9.495 9.333.956c7.073.725 31.287 4.743 43.522 7.224.47.095 2.08-6.577 3.575-14.827zm-83.271 2.667c-2.194-3.663-19.515-23.667-20.492-23.667-1 0-18.519 20.2-20.526 23.667-.756 1.304 3.707 1.666 20.525 1.666 16.837 0 21.275-.36 20.493-1.666z" fill="#52d1f9" stroke-width="1.333"/></svg>