<svg xmlns="http://www.w3.org/2000/svg" height="201.855" width="169.967" id="svg819"><g transform="translate(-922.02 -514.627)" id="g1372" stroke-width=".431"><path id="path1376" d="M1037.05 716.165c-.393-.397-.362-3.606.036-3.606.177 0 .321.876.321 1.947 0 1.072-.016 1.948-.036 1.948-.02 0-.164-.13-.32-.289zm5.474-14.86c0-7.26.06-10.23.13-6.6.073 3.63.073 9.57 0 13.201-.071 3.63-.13.66-.13-6.6zm-4.046.434c0-9.666-.025-9.955-.857-9.955-.733 0-.846-.264-.785-1.84.071-1.823.074-1.825.238-.26.117 1.115.41 1.643 1 1.799.795.21.833.677.833 10.215 0 5.497-.096 9.995-.215 9.995-.117 0-.214-4.48-.214-9.954zm-42.3 5.326c.417-.11.995-.102 1.285.016.29.119-.05.209-.758.2-.707-.01-.944-.106-.527-.216zm14.773.013c.295-.12.777-.12 1.071 0 .295.12.054.219-.535.219-.59 0-.83-.098-.536-.219zm42.21-.013c.416-.11.995-.102 1.285.016.29.119-.051.209-.758.2-.707-.01-.944-.106-.528-.216zm-91.044-.446c.77-.097 1.926-.095 2.57.004.644.098.014.177-1.4.175-1.414-.003-1.94-.083-1.17-.18zm36.624-1.634c.005-.953.093-1.291.195-.753.103.539.099 1.318-.009 1.731-.107.414-.19-.026-.186-.978zm27.481.902c-.128-.337-.15-1.165-.05-1.84.155-1.047.19-.993.246.372.062 1.553.115 1.603 1.885 1.764l1.82.165-1.834.076c-1.24.051-1.91-.123-2.067-.537zm-43.902-1.01l-1.038-1.19 1.178 1.048c1.101.981 1.374 1.332 1.038 1.332-.076 0-.606-.536-1.178-1.19zm9.887.108c.553-.595 1.102-1.082 1.22-1.082.118 0-.238.487-.792 1.082-.553.595-1.102 1.082-1.22 1.082-.118 0 .238-.487.792-1.082zm26.805-.344c.16-.426.4-.667.532-.533.132.133 0 .482-.292.776-.424.424-.473.374-.24-.243zm-10.557-2.794l-1.039-1.19 1.179 1.049c1.1.98 1.374 1.331 1.038 1.331-.077 0-.607-.536-1.178-1.19zm-11.36-6.384c0-4.047.064-5.76.143-3.808.08 1.952.08 5.263 0 7.357-.078 2.095-.143.498-.143-3.55zm59.84 6.456c.021-.504.122-.607.259-.262.124.313.108.686-.034.83-.143.144-.244-.112-.225-.568zm3.89-.18c0-.595.097-.839.216-.541.119.297.119.784 0 1.082-.119.297-.216.054-.216-.541zm-80.095-4.84c-.088-4.864-.127-5.062-1.055-5.242l-.964-.188.977-.059c.538-.032 1.075.197 1.194.51s.154 2.699.078 5.302l-.139 4.733zm12.334-.304c0-4.346-.067-4.727-.857-4.936-.687-.182-.843-.556-.785-1.89l.072-1.664.165 1.579c.117 1.115.41 1.643 1 1.799.762.201.833.629.833 5.021 0 2.641-.096 4.802-.214 4.802s-.214-2.12-.214-4.71zm54.096 4.4c.651-.1 1.615-.097 2.142.006.527.103-.01.184-1.184.181-1.178-.003-1.61-.087-.958-.187zm-43.685-3.152c0-1.309.08-1.844.178-1.19a9.673 9.673 0 0 1 0 2.38c-.098.655-.178.12-.178-1.19zm3.837 1.732c.143-.533 1.303-.671 6.436-.77l6.261-.119.174-2.044.174-2.045-.044 2.164-.044 2.164-6.195.121c-4.27.083-6.31.285-6.566.65-.268.38-.323.346-.197-.121zm50.13-5.505c.652-.1 1.616-.096 2.143.006.527.103-.01.184-1.184.181-1.179-.003-1.61-.087-.958-.187zm-48.74-.987c.426-.477.872-.866.99-.866.117 0-.135.39-.562.866-.426.476-.872.865-.99.865-.117 0 .135-.39.562-.865zm47.156-.306c-.233-.617-.184-.667.24-.243.292.294.424.643.292.776-.132.134-.372-.107-.532-.533zm-43.595-1.289c.31-.125.679-.11.821.035.143.143-.11.246-.562.227-.5-.02-.6-.123-.259-.262zm5.395-1.543l-.816-.974.964.824c.906.775 1.16 1.123.816 1.123-.08 0-.515-.438-.964-.973zm41.33-.217c-.532-.686-.517-.701.162-.163.714.565.941.92.588.92-.089 0-.426-.34-.75-.757zm-47.609-1.712c.53-.103 1.398-.103 1.928 0s.096.188-.964.188-1.494-.085-.964-.188zm41.988.019c.294-.12.776-.12 1.07 0 .295.12.055.218-.535.218-.589 0-.83-.098-.535-.218zm-13.531-3.96c-.072-1.859-.065-1.867 1.32-1.732 1.306.127 1.396.243 1.444 1.867l.05 1.731-.184-1.623c-.155-1.368-.343-1.623-1.203-1.623-.862 0-1.045.25-1.187 1.623l-.169 1.623-.072-1.867zm-87.046-4.842l-2.356-.292 2.224-.07c1.223-.04 2.343.124 2.489.362.145.238.205.4.132.362-.073-.039-1.193-.202-2.489-.362zm19.61-.314c.77-.096 1.926-.094 2.57.004.644.099.014.178-1.4.175-1.414-.003-1.94-.083-1.17-.18zm31.018-21.218c-1.628-2.797-3.376-5.865-3.883-6.817a79.206 79.206 0 0 0-1.709-3.03c-.432-.714-1.177-1.98-1.656-2.813a5847.31 5847.31 0 0 0-3.06-5.321c-1.203-2.094-2.189-3.93-2.189-4.08 0-.15-.661-1.262-1.47-2.47a73.505 73.505 0 0 1-2.777-4.575c-2.829-5.155-3.497-6.34-4.519-8.007-.583-.952-2.016-3.484-3.184-5.627-1.169-2.142-2.292-4.09-2.496-4.328-.441-.515-4.98-8.431-5.202-9.075-.085-.245-.587-1.128-1.116-1.961-1.271-2.005-5.646-9.618-5.852-10.182-.088-.244-1.475-2.679-3.081-5.41a2346.495 2346.495 0 0 1-3.295-5.616c-3.57-6.175-4.77-8.269-5.502-9.601a86.645 86.645 0 0 0-2.024-3.433c-.632-1.01-1.42-2.435-1.752-3.166-.332-.73-1.206-2.302-1.942-3.492-2.75-4.45-8.914-15.367-8.914-15.79 0-.243-.17-.44-.378-.44-.209 0-.494-.341-.635-.758-.141-.416-.838-1.731-1.548-2.921-.71-1.19-1.423-2.443-1.583-2.783-.16-.34-.932-1.602-1.715-2.804-.784-1.201-1.424-2.368-1.424-2.593 0-.224-.27-.716-.598-1.092-.329-.375-1.253-1.949-2.054-3.496-.8-1.547-1.943-3.592-2.54-4.544-.596-.953-1.216-2.024-1.377-2.38-.162-.358-.687-1.306-1.167-2.109-.48-.802-.816-1.514-.746-1.583.07-.069 14.704-.26 32.52-.426l32.394-.301 2.553 4.481c1.404 2.465 5.783 10.1 9.73 16.967 3.947 6.867 7.11 12.553 7.03 12.634-.081.082-4.48-7.43-9.776-16.694l-9.63-16.843-15.53-.011c-8.543-.006-15.532.068-15.532.165s1.38 2.58 3.065 5.518c1.685 2.938 4.064 7.095 5.285 9.238 1.221 2.142 5.856 10.225 10.298 17.96l11.557 20.126c1.913 3.333 4.993 8.689 6.844 11.902 3.452 5.994 10.7 18.683 12.546 21.965.57 1.012 1.194 1.84 1.389 1.84.195 0 1.264-1.607 2.376-3.57 1.112-1.965 3.703-6.493 5.758-10.064 2.054-3.57 5.57-9.705 7.814-13.633a11092.94 11092.94 0 0 1 21.105-36.788c7.896-13.671 13.932-24.274 13.932-24.474 0-.108-6.989-.191-15.53-.185l-15.532.011-9.633 16.84c-5.298 9.26-9.698 16.772-9.778 16.692-.079-.08 4.246-7.792 9.612-17.136l9.755-16.99 24.015.285c13.208.157 27.908.286 32.667.286h8.653l-3.025 5.068c-1.663 2.787-3.426 5.903-3.918 6.925-.491 1.021-1.048 1.858-1.237 1.858-.188 0-.343.2-.343.443 0 .378-5.361 9.91-8.465 15.05-.532.881-1.546 2.673-2.252 3.983-.707 1.309-1.475 2.672-1.707 3.03-.232.356-1.418 2.401-2.635 4.544-4.971 8.749-6.458 11.334-7.465 12.984-.582.952-1.183 2.023-1.335 2.38-.153.357-.792 1.429-1.42 2.38-.63.953-1.416 2.365-1.747 3.139-.332.773-.749 1.406-.927 1.406-.178 0-.324.193-.324.428s-1.156 2.396-2.57 4.801c-1.414 2.405-2.57 4.55-2.57 4.766a.39.39 0 0 1-.387.393c-.213 0-.598.535-.855 1.19-.594 1.508-2.125 4.24-7.16 12.77-2.213 3.751-4.024 7.014-4.024 7.25 0 .236-.144.43-.32.43-.178.001-.886 1.17-1.575 2.598-.69 1.427-1.389 2.595-1.555 2.595-.166 0-.557.633-.868 1.407-.312.774-1.444 2.866-2.516 4.65-2.357 3.923-2.437 4.065-4.241 7.466-.79 1.49-1.908 3.34-2.485 4.114-.578.774-.896 1.41-.707 1.413.189.003.14.15-.11.325-.249.175-1.29 1.876-2.311 3.78-1.023 1.905-1.976 3.56-2.118 3.68-.143.118-.708 1.092-1.257 2.163-.868 1.695-2.981 5.386-6.384 11.15-.526.89-1.092 1.91-1.258 2.267-.782 1.683-2.827 4.761-3.163 4.761-.206 0-1.707-2.288-3.335-5.085z" fill="#67b080"/><path id="path1374" d="M1037.479 716.165c-.624-.63-.26-3.004.57-3.722.812-.702.858-1.277.858-10.74 0-9.636-.031-10.008-.857-10.226-.644-.17-.857-.59-.857-1.691v-1.464h5.141v13.2c0 12.624-.037 13.239-.857 14.066-.83.838-3.376 1.206-3.998.577zm-52.358-9.693c-.715-.21-1.872-.984-2.57-1.719-1.253-1.32-1.272-1.41-1.484-7.26-.207-5.74-.244-5.93-1.178-6.064-.786-.112-.964-.412-.964-1.623v-1.484h5.57v6.511c0 6.337.028 6.54 1.052 7.574 1.519 1.535 4.786 1.507 6.627-.058l1.318-1.12v-4.763c0-4.399-.065-4.78-.857-4.99-.644-.17-.857-.59-.857-1.69v-1.464h5.141v7.137c0 6.67.057 7.173.858 7.679.613.387.856 1.009.856 2.19v1.652l-2.035-.132c-1.809-.117-2.112-.287-2.726-1.53l-.691-1.398-.809.917c-1.632 1.851-4.394 2.474-7.25 1.635zm22.327-.492c-2.49-1.473-3.649-4.054-3.652-8.137 0-3.965.926-6.29 3.22-8.057 1.394-1.075 2.069-1.268 4.866-1.393 2.835-.126 3.431-.016 4.706.866 2.486 1.72 3.208 3.086 3.395 6.422l.168 3.004-6.367.12-6.368.12.109 1.082c.06.595.689 1.618 1.399 2.273 1.065.981 1.685 1.19 3.54 1.19 1.413 0 2.83-.315 3.812-.847l1.563-.846.68 1.048c.374.576.68 1.26.68 1.52 0 .896-4.007 2.291-7.07 2.462-2.541.142-3.256.016-4.68-.827zm9.18-10.926c0-.582-.452-1.588-1.003-2.236-.81-.951-1.368-1.178-2.894-1.178-1.04 0-2.334.24-2.876.532-.909.492-2.648 2.862-2.651 3.616-.001.178 2.119.324 4.711.324 4.713 0 4.713 0 4.713-1.058zm32.775 11.226c-2.084-.747-3.213-2.055-3.213-3.724 0-1.193.088-1.25 1.928-1.25 1.395 0 1.928.173 1.928.624 0 1.852 4.614 2.677 6.471 1.158.868-.71.932-.956.502-1.91-.37-.822-1.322-1.405-3.794-2.324-5.356-1.992-7.002-4.212-5.47-7.379.955-1.976 3.017-3.104 5.719-3.13 4.167-.04 6.855 1.67 6.855 4.363 0 1.171-.102 1.24-1.827 1.24-1.479 0-1.906-.184-2.249-.968-.897-2.052-4.674-2.127-5.177-.102-.384 1.546.337 2.186 4.001 3.548 4.246 1.578 5.68 2.913 5.68 5.285 0 .984-.3 2.253-.668 2.82-1.427 2.2-6.918 3.1-10.685 1.75zm-92.54-11.358c-2.306-6.368-4.283-11.821-4.393-12.119-.11-.297-.565-.54-1.01-.54-.644 0-.812-.318-.812-1.538v-1.537l2.25.13 2.248.131 3.856 10.905c2.121 5.997 3.978 11.021 4.126 11.164.149.144 1.05-1.958 2.002-4.67a2369.75 2369.75 0 0 1 4.005-11.273l2.272-6.342h4.52v1.484c0 1.185-.186 1.513-.917 1.624-.782.118-1.543 1.884-5.23 12.148l-4.315 12.01h-4.41zm69.619 9.63c0-1.479.041-1.515 1.714-1.515s1.714.036 1.714 1.515c0 1.479-.042 1.515-1.714 1.515-1.673 0-1.714-.036-1.714-1.515zm13.71-20.342c0-1.327.133-1.515 1.071-1.515.939 0 1.071.188 1.071 1.515s-.132 1.515-1.07 1.515c-.94 0-1.072-.188-1.072-1.515zm-34.808-82.125c-1.846-3.282-9.094-15.971-12.546-21.964-1.85-3.214-4.93-8.57-6.844-11.903l-11.557-20.125c-4.442-7.736-9.077-15.819-10.298-17.961-1.221-2.143-3.6-6.3-5.285-9.238-1.686-2.938-3.065-5.421-3.065-5.518 0-.097 6.99-.171 15.531-.165l15.531.01 9.64 16.868c5.945 10.4 9.887 16.866 10.283 16.865.394-.001 4.366-6.517 10.282-16.867l9.64-16.865 15.531-.01c8.542-.007 15.531.076 15.531.184 0 .2-6.036 10.803-13.932 24.474a11092.94 11092.94 0 0 0-21.105 36.788 5944.489 5944.489 0 0 1-7.814 13.634c-2.055 3.57-4.646 8.098-5.758 10.062-1.112 1.964-2.181 3.57-2.376 3.57-.195 0-.82-.827-1.389-1.839z" fill="#38495c"/></g></svg>