<svg xmlns="http://www.w3.org/2000/svg" id="svg2" width="414.313" height="160.802"><g id="g817" transform="translate(-785.86 -340.088)" stroke-width=".333"><path d="M926.707 500.763c.907-.066 2.305-.065 3.106.002.801.068.059.122-1.65.121-1.708 0-2.364-.056-1.456-.122zm15.36.001c.811-.067 2.054-.066 2.76.002.708.07.043.125-1.475.124-1.52-.001-2.098-.058-1.286-.126zm-22.792-.312a5.279 5.279 0 0 1 1.553 0c.427.077.078.14-.777.14-.854 0-1.204-.063-.776-.14zm30.721 0a5.279 5.279 0 0 1 1.554 0c.427.077.078.14-.777.14-.854 0-1.204-.063-.777-.14zm-35.381-.316a3.07 3.07 0 0 1 1.208 0c.332.08.06.147-.604.147-.665 0-.937-.066-.604-.147zm40.563-.006c.43-.077 1.051-.074 1.381.006.33.08-.021.143-.78.14-.76-.004-1.03-.07-.6-.146zm-44.354-.317c.336-.081.802-.076 1.036.012.233.088-.042.155-.611.148-.57-.007-.76-.078-.425-.16zm48.327 0c.335-.081.801-.076 1.035.012.234.088-.041.155-.61.148-.57-.007-.761-.078-.425-.16zm-51.779-.32c.336-.082.802-.077 1.036.011.233.088-.041.155-.611.148-.57-.007-.76-.078-.425-.16zm55.23 0c.336-.082.802-.077 1.036.011.234.088-.041.155-.61.148-.57-.007-.761-.078-.426-.16zm-58.17-.312c.237-.09.625-.09.862 0 .238.089.044.162-.431.162s-.669-.073-.432-.162zm61.098 0c.237-.09.626-.09.863 0 .237.089.043.162-.432.162-.474 0-.668-.073-.431-.162zm-63.86-.322c.237-.089.626-.089.863 0 .237.09.043.163-.432.163-.474 0-.668-.073-.431-.163zm66.643-.007c.25-.092.547-.08.662.026.114.107-.09.182-.453.169-.402-.016-.484-.092-.209-.195zm-69.038-.32c.25-.094.547-.082.662.025.114.106-.09.182-.453.168-.402-.015-.484-.091-.209-.194zm71.454 0c.25-.094.547-.082.662.025.115.106-.09.182-.453.168-.402-.015-.484-.091-.209-.194zm-73.87-.322c.249-.093.547-.081.661.025.115.107-.089.183-.453.17-.402-.016-.484-.092-.208-.195zm76.287 0c.249-.093.547-.081.661.025.115.107-.089.183-.453.17-.402-.016-.484-.092-.208-.195zm-78.358-.321c.249-.093.547-.082.661.025.115.107-.089.183-.453.169-.402-.016-.484-.092-.208-.194zm80.429 0c.25-.093.547-.082.661.025.115.107-.089.183-.453.169-.402-.016-.483-.092-.208-.194zm-82.5-.322c.249-.092.546-.081.661.026.115.107-.089.183-.453.169-.402-.016-.484-.092-.208-.195zm84.571 0c.25-.092.547-.081.662.026.114.107-.09.183-.453.169-.403-.016-.484-.092-.209-.195zm-86.643-.32c.25-.094.547-.082.662.024.115.107-.09.183-.453.17-.402-.016-.484-.092-.209-.195zm-1.726-.322c.25-.093.547-.081.662.025.115.107-.09.183-.453.169-.402-.015-.484-.092-.209-.194zm92.166 0c.25-.093.547-.081.662.025.114.107-.09.183-.453.169-.402-.015-.484-.092-.209-.194zm1.726-.321c.25-.093.547-.082.662.025.114.107-.09.183-.453.169-.403-.016-.484-.092-.209-.194zm-97.343-.322c.249-.092.547-.081.661.026.115.107-.089.183-.453.169-.402-.016-.484-.092-.208-.195zm99.069 0c.25-.092.547-.081.662.026.114.107-.09.183-.453.169-.403-.016-.484-.092-.209-.195zm3.107-.642c.249-.093.547-.081.661.025.115.107-.089.183-.453.17-.402-.016-.484-.092-.208-.195zm-27.292-12.226a49.513 49.513 0 0 1 4.315 0c1.187.063.216.114-2.157.114-2.374 0-3.344-.051-2.158-.114zm-11.385-.316c.62-.072 1.553-.07 2.071.003.519.073.011.131-1.128.13-1.139-.002-1.563-.062-.943-.134zm25.538 0a11.795 11.795 0 0 1 2.244 0c.617.071.112.13-1.122.13-1.234 0-1.74-.059-1.122-.13zm-31.067-.316a5.279 5.279 0 0 1 1.553 0c.427.077.078.14-.776.14-.855 0-1.204-.063-.777-.14zm37.28 0a5.279 5.279 0 0 1 1.554 0c.427.077.077.14-.777.14s-1.204-.063-.777-.14zm-41.243-.317c.336-.081.802-.076 1.035.012.234.088-.04.155-.61.148-.57-.007-.761-.078-.425-.16zm46.255 0c.336-.081.802-.076 1.036.012.233.088-.041.155-.61.148-.57-.007-.762-.078-.426-.16zm-50.052-.321c.336-.081.802-.076 1.035.012.234.088-.04.155-.61.148-.57-.007-.761-.079-.425-.16zm53.85 0c.335-.081.801-.076 1.035.012.234.088-.041.155-.61.148-.57-.007-.762-.079-.426-.16zm-56.791-.311c.237-.09.626-.09.863 0 .237.089.043.162-.432.162-.474 0-.668-.073-.431-.162zm60.063 0c.237-.09.626-.09.863 0 .237.089.043.162-.432.162-.474 0-.668-.073-.431-.162zm-62.99-.331c.335-.082.801-.077 1.035.011.234.089-.041.155-.61.149-.57-.007-.761-.079-.426-.16zm65.751.01c.238-.09.626-.09.863 0 .238.089.044.162-.431.162s-.669-.073-.432-.162zm-68.347-.322c.237-.089.626-.089.863 0 .237.09.043.162-.432.162-.474 0-.668-.073-.431-.162zm71.109 0c.237-.089.626-.089.863 0 .237.09.043.162-.431.162-.475 0-.67-.073-.432-.162zm-73.159-.328c.25-.092.547-.081.662.026.115.107-.09.182-.453.169-.402-.016-.484-.092-.209-.195zm75.575.007c.238-.089.626-.089.863 0 .238.09.043.162-.431.162-.475 0-.669-.072-.432-.162zm-77.99-.328c.248-.092.546-.08.66.026.115.107-.089.183-.452.169-.403-.016-.484-.092-.209-.195zm80.428 0c.25-.092.547-.08.662.026.115.107-.09.183-.453.169-.402-.016-.484-.092-.209-.195zm-82.5-.32c.25-.094.547-.082.662.025.114.106-.09.182-.454.168-.402-.015-.483-.091-.208-.194zm84.571 0c.25-.094.547-.082.662.025.115.106-.089.182-.453.168-.402-.015-.484-.091-.209-.194zm-86.297-.322c.25-.093.547-.081.662.025.114.107-.09.183-.453.17-.403-.016-.484-.092-.209-.195zm88.369 0c.249-.093.546-.081.661.025.115.107-.089.183-.453.17-.402-.016-.484-.092-.208-.195zm-90.44-.321c.249-.093.547-.082.661.025.115.107-.089.183-.453.169-.402-.016-.484-.092-.208-.194zm92.51 0c.25-.093.548-.082.662.025.115.107-.089.183-.453.169-.402-.016-.484-.092-.208-.194zm-94.236-.322c.25-.092.547-.081.662.026.114.106-.09.182-.454.168-.402-.015-.483-.091-.208-.194zm95.963 0c.249-.092.547-.081.661.026.115.106-.089.182-.453.168-.402-.015-.484-.091-.208-.194zm-97.689-.32c.25-.094.547-.082.662.025.114.106-.09.182-.454.168-.402-.015-.483-.091-.208-.194zm-1.726-.322c.25-.093.547-.081.662.025.114.107-.09.183-.453.17-.403-.016-.484-.092-.209-.195zm102.867 0c.249-.093.546-.081.661.025.115.107-.089.183-.453.17-.402-.016-.484-.092-.208-.195zm-199.5-10.302c-.429-.51-.417-.52.13-.12.333.242.605.495.605.561 0 .265-.283.095-.734-.44zm240.642-.522c0-.067.272-.32.604-.563.547-.4.56-.388.13.122-.45.535-.734.705-.734.44zm-183.12-1.16c-.122-.183.017-.236.324-.127.598.214.707.444.21.444-.178 0-.419-.143-.535-.317zm184.846-.125c0-.067.272-.32.604-.563.547-.4.56-.388.13.122-.45.535-.734.705-.734.44zm-245.98-.923l-.658-.723.776.612c.73.575.934.834.658.834-.065 0-.415-.326-.777-.723zm248.516-1.15c.315-.324.455-.709.312-.855-.143-.147-.055-.157.195-.023.361.195.333.369-.14.855-.327.336-.672.61-.766.61-.095 0 .085-.264.399-.588zm-251.437-1.26l-1.19-1.204 1.295 1.107c1.205 1.03 1.454 1.302 1.19 1.302-.058 0-.64-.542-1.295-1.205zm-5.523-5.14l-1.19-1.204 1.295 1.107c1.205 1.03 1.453 1.302 1.19 1.302-.058 0-.64-.542-1.295-1.205zm-2.603-2.73l-.657-.723.776.612c.428.336.777.662.777.723 0 .257-.278.067-.896-.612zm156.663.18a3.033 3.033 0 0 1 1.208 0c.332.08.06.147-.604.147-.665 0-.936-.066-.604-.147zm5.7-.006c.429-.077 1.05-.074 1.38.006.33.08-.021.143-.78.14-.76-.004-1.03-.07-.6-.147zm48.322.014c.237-.089.626-.089.863 0 .237.09.043.162-.431.162-.475 0-.67-.073-.432-.162zm5.357-.01c.336-.081.802-.076 1.036.012.233.088-.041.155-.611.148-.57-.007-.76-.078-.425-.16zm-61.601-.318c.249-.093.547-.081.661.026.115.106-.089.182-.453.168-.402-.015-.484-.091-.208-.194zm11.39 0c.25-.093.548-.081.663.026.114.106-.09.182-.453.168-.403-.015-.484-.091-.21-.194zm52.815 0c.25-.093.547-.081.662.026.114.106-.09.182-.454.168-.402-.015-.483-.091-.208-.194zm60.393-.013c.62-.072 1.552-.07 2.07.003.52.073.012.132-1.127.13-1.14-.002-1.564-.062-.943-.133zm-4.315-.311c.336-.082.802-.076 1.036.012.233.088-.041.154-.61.148-.57-.007-.762-.079-.426-.16zm9.163.003c.249-.093.547-.082.661.025.115.107-.089.183-.453.169-.402-.016-.484-.092-.208-.194zm-233.328-.664c-.43-.51-.417-.521.13-.122.333.243.605.496.605.563 0 .264-.284.094-.735-.441zm221.936.342c.25-.092.547-.08.662.026.115.107-.089.182-.453.168-.402-.015-.484-.091-.209-.194zm-81.924-33.19c0-18.288.042-25.769.093-16.625.05 9.143.05 24.106 0 33.25-.05 9.143-.093 1.662-.093-16.625zm9.615 30.84c0-1.325.061-1.867.136-1.205.075.663.075 1.747 0 2.41-.074.662-.136.12-.136-1.205zm-201.75 1.365c-.43-.51-.417-.52.13-.121.332.242.604.495.604.562 0 .265-.283.094-.734-.44zm313.13-17.746v-17.986l-15.101-.088-15.102-.087 15.274-.077 15.275-.076v18.15c0 9.983-.078 18.151-.173 18.151-.095 0-.172-8.094-.172-17.987zm10.011-15.584v-33.57l8.026.073 8.026.074-7.854.093-7.853.093v66.487h50.383l.102-6.184.101-6.184.078 6.344.078 6.345h-51.088zm61.707 33.344c.43-.077 1.05-.074 1.38.006.33.08-.02.143-.78.14-.76-.004-1.03-.07-.6-.147zm5.682-4.19l.096-4.417 1.814-.028 1.814-.028-1.728.125-1.728.125v8.278l1.122.13c1.097.126 1.093.13-.182.18l-1.304.052.096-4.417zm4.41 4.293c0-.068.467-.188 1.036-.266.57-.077 1.036-.022 1.036.125 0 .146-.466.265-1.036.265-.57 0-1.035-.056-1.035-.124zm3.733-3.008c-.062-1.723.01-3.27.149-3.437.143-.168.26 1.16.26 2.95v3.257l1.123.13 1.122.13-1.271.05-1.27.052zm-348.603 1.927l-.837-.883.95.779c.887.728 1.107.988.836.988-.061 0-.489-.398-.949-.884zm252.732-.589c.017-.374.098-.45.209-.194.1.232.088.51-.027.616-.115.107-.196-.083-.181-.422zm-99.813-.696l-.837-.883.95.779c.522.428.949.826.949.883 0 .252-.28.047-1.062-.779zm25.225.763c0-.067.272-.32.604-.563.548-.4.56-.388.13.122-.45.535-.734.705-.734.44zm-82.015-1.244l-.658-.723.777.612c.427.336.776.662.776.723 0 .257-.277.067-.895-.612zm150.017.28c0-.067.272-.32.605-.562.547-.4.56-.389.13.12-.451.536-.735.706-.735.442zm-250.102-1.887l-1.713-1.686 1.812 1.594c1.684 1.481 1.97 1.779 1.713 1.779-.055 0-.87-.76-1.812-1.687zm256.343 1.178c.016-.374.098-.45.209-.194.1.232.087.51-.027.616-.115.107-.197-.083-.182-.422zm93.185.348c0-.176.15-.538.334-.803.184-.265.335-.337.335-.16 0 .176-.15.538-.335.803-.184.265-.334.337-.334.16zm-96.664-1.927c.446-.442.888-.803.983-.803.095 0-.192.361-.638.803-.446.441-.888.803-.983.803-.095 0 .192-.362.638-.803zm-155.196-.241l-.657-.723.776.612c.428.337.777.662.777.723 0 .257-.278.067-.896-.612zm158.33.214c.016-.374.098-.45.208-.194.1.232.087.509-.027.616-.114.106-.196-.083-.18-.422zm-87.425-1.317c.25-.093.547-.082.662.025.114.107-.09.183-.453.169-.403-.015-.484-.091-.21-.194zm42.178-1.226c-.839-.795-1.447-1.446-1.352-1.446.095 0 .859.65 1.697 1.446.838.795 1.447 1.445 1.352 1.445-.095 0-.859-.65-1.697-1.445zm44.902.937c.017-.375.098-.45.208-.194.1.231.087.509-.027.615-.114.107-.196-.083-.181-.421zm-142.677-.026c.237-.089.625-.089.863 0 .237.09.043.162-.432.162-.474 0-.668-.073-.431-.162zm5.89-.007c.249-.093.547-.081.661.026.115.106-.089.182-.453.168-.402-.015-.484-.091-.208-.194zm52.468 0c.25-.093.547-.081.662.026.115.106-.089.182-.453.168-.402-.015-.484-.091-.209-.194zm83.256-.223c0-.067.272-.32.604-.562.547-.4.56-.388.13.121-.45.535-.734.706-.734.441zm81.378-.105a5.28 5.28 0 0 1 1.554 0c.427.076.078.139-.777.139-.854 0-1.204-.063-.777-.14zm5.178 0a5.28 5.28 0 0 1 1.554 0c.427.076.078.139-.777.139-.854 0-1.204-.063-.777-.14zm-344.618-1.139l-.658-.723.777.612c.73.575.934.834.658.834-.066 0-.415-.325-.777-.723zm355.028-.662c.155-.143 1.04-.213 1.969-.155l1.688.105-1.969.155c-1.083.086-1.842.038-1.688-.105zm-245.079-.783l-.836-.884.949.779c.887.728 1.107.988.837.988-.062 0-.49-.398-.95-.883zm17.976.762c0-.067.272-.32.604-.563.548-.4.56-.388.13.122-.45.535-.734.705-.734.44zm212.91-.117a45.282 45.282 0 0 1 4.142 0c1.084.064.107.116-2.171.115-2.278 0-3.165-.052-1.971-.115zm-342.4-.966c-.43-.51-.417-.52.13-.121.576.42.758.683.474.683-.071 0-.343-.253-.604-.562zm131.216-.523c0-.066.272-.32.604-.562.548-.4.56-.388.13.121-.45.536-.734.706-.734.441zm108.649-.426a5.278 5.278 0 0 1 1.553 0c.427.076.078.139-.777.139-.854 0-1.203-.063-.776-.14zm-3.085-.314c.249-.093.547-.082.661.025.115.107-.089.183-.453.169-.402-.016-.484-.092-.208-.194zm7.572.007c.237-.09.626-.09.863 0 .238.089.043.162-.431.162-.475 0-.67-.073-.432-.162zm-100.682-2.866c.017-.374.099-.45.209-.194.1.232.087.509-.027.615-.115.107-.197-.083-.182-.421zm-10.01-.643c.017-.374.098-.45.208-.194.1.232.088.51-.027.616-.114.107-.196-.083-.181-.422zm94.02-.856l-1.364-1.366 1.467 1.27c1.365 1.181 1.626 1.46 1.365 1.46-.056 0-.717-.613-1.467-1.364zm-91.184-.16c1.48-.06 3.81-.06 5.178.002 1.368.06.157.11-2.69.11-2.849 0-3.968-.05-2.488-.111zm-28.725-.911c.016-.374.098-.45.208-.194.1.232.088.509-.027.615-.115.107-.196-.083-.181-.421zm88.713 0c.017-.374.098-.45.209-.194.1.232.087.509-.027.615-.115.107-.196-.083-.181-.421zM870 436.89c0-.275.158-.41.35-.299.194.111.262.337.153.501-.296.446-.503.363-.503-.202zm46.255.218c0-.177.156-.41.345-.52.19-.11.346-.054.346.123 0 .176-.156.41-.346.52-.19.109-.345.054-.345-.123zm109.798-.226c.017-.374.098-.45.208-.194.1.232.087.51-.027.616-.114.107-.196-.083-.181-.422zm-89.06-.32c.017-.375.1-.451.21-.195.1.232.087.51-.028.616-.115.107-.196-.083-.181-.422zm63.86-.643c.018-.375.099-.45.21-.194.1.232.086.509-.028.615-.114.107-.196-.083-.18-.421zm35.9-.322c.018-.374.099-.45.21-.194.1.232.086.51-.028.616-.115.107-.196-.083-.181-.422zm-10.355-.32c.017-.375.098-.451.209-.195.1.232.086.51-.028.616-.114.107-.196-.083-.18-.422zm-79.02-.857l-.056-1.205 18.727.077 18.726.078-18.532.086-18.532.086-.14 1.04c-.136 1.023-.14 1.02-.193-.162zm-10.627-3.293c0-1.944.057-2.698.126-1.675.069 1.022.068 2.612-.001 3.534-.07.92-.126.084-.125-1.86zm100.388 2.248c.01-.53.084-.708.172-.395.088.313.082.746-.013.964-.095.217-.166-.038-.16-.569zm-36.55-1.606c0-1.06.065-1.455.143-.877.077.577.075 1.444 0 1.927-.08.483-.142.01-.14-1.05zm26.22.482c0-.795.068-1.12.15-.723a4.278 4.278 0 0 1 0 1.446c-.082.397-.15.072-.15-.723zm-157.818.455c.017-.374.099-.45.209-.194.1.232.088.51-.027.616-.115.107-.196-.083-.181-.422zm228.516-2.249c.016-.374.098-.45.208-.194.1.232.087.509-.027.616-.114.106-.196-.083-.18-.422zm-59.983-1.58c0-1.06.066-1.454.143-.877.077.577.075 1.445 0 1.927-.08.483-.142.01-.14-1.05zm-53.18-.32c.005-.707.075-.959.158-.56.082.4.08.979-.007 1.286-.087.307-.154-.02-.15-.727zm-197.853.294c.017-.374.099-.45.209-.194.1.232.087.509-.028.615-.114.107-.196-.083-.18-.421zm259.583-.321c.017-.375.098-.45.208-.195.1.232.087.51-.027.616-.114.107-.196-.083-.181-.421zm-19.255-1.42c0-.971.065-1.369.144-.883a6.616 6.616 0 0 1 0 1.767c-.079.486-.144.088-.144-.883zm59.01 1.367c2.231-.056 5.882-.056 8.112 0 2.231.056.406.102-4.055.102-4.462 0-6.287-.046-4.056-.102zm-254.463-.911c.016-.374.098-.45.208-.194.1.232.088.509-.027.615-.115.107-.196-.083-.181-.421zm169.528-.616c.01-.53.084-.708.172-.395.088.312.082.746-.013.963-.095.218-.166-.038-.16-.568zm-214.748-.027c.017-.374.098-.45.209-.194.1.232.087.51-.028.616-.114.107-.196-.083-.181-.422zm259.61-.134c0-.441.078-.622.174-.401.096.22.096.582 0 .803-.096.22-.174.04-.174-.402zm15.851.134c.017-.374.098-.45.209-.194.1.232.087.51-.027.616-.115.107-.197-.083-.182-.422zm-230.586-.963c.016-.375.098-.45.208-.195.1.232.088.51-.027.616-.115.107-.196-.083-.181-.421zm106-.456c0-.441.078-.622.174-.401.096.22.096.582 0 .803-.096.22-.174.04-.174-.402zm46.946 0c0-.441.078-.622.174-.401.096.22.096.582 0 .803-.096.22-.174.04-.174-.402zm-36.514-.146c-.108-.261-.116-.66-.018-.887.098-.227.19-.087.205.31l.027.723h13.092c11.411 0 13.113-.062 13.255-.488.114-.341.146-.317.107.08-.052.532-.918.575-13.264.653-11.396.073-13.235.02-13.404-.39zm113.836-.496c0-.442.078-.623.174-.402.096.221.096.583 0 .803-.096.221-.174.04-.174-.401zm-60.09-.187c.017-.375.098-.45.209-.195.1.232.087.51-.027.616-.115.107-.197-.083-.182-.421zm-215.338-.937c.004-.707.074-.959.157-.559.082.4.08.978-.007 1.285-.087.307-.154-.02-.15-.726zm251.265.481c0-.441.078-.622.174-.401.096.22.096.582 0 .803-.096.22-.174.04-.174-.402zm8.324-.642c0-.795.067-1.12.15-.723a4.278 4.278 0 0 1 0 1.446c-.082.397-.15.072-.15-.723zm-214.722-.321c0-.619.071-.872.158-.563.087.31.087.816 0 1.125-.087.309-.158.056-.158-.562zm195.67.455c.017-.374.098-.45.208-.194.1.232.087.509-.027.615-.114.107-.196-.083-.18-.421zm-42.804-.322c.017-.374.099-.45.209-.194.1.232.087.51-.027.616-.115.107-.197-.083-.182-.422zm77.383-2.864c0-.707.074-.958.157-.558.082.4.079.977-.01 1.285-.086.307-.154-.02-.15-.727zm-195.437-1.633c.016-.374.098-.45.208-.194.1.232.088.509-.027.616-.115.106-.196-.083-.181-.422zm-34.812-1.098c0-.618.071-.871.158-.562.087.31.087.815 0 1.125-.087.309-.158.056-.158-.563zm-44.867-.482c.004-.706.074-.958.157-.558.082.4.08.978-.007 1.285-.087.307-.154-.02-.15-.727zm259.582 0c0-.706.075-.958.157-.558.083.4.08.978-.01 1.285-.086.307-.154-.02-.15-.727zm-93.978-.642c.644-.618 1.248-1.124 1.343-1.124.095 0-.354.506-.998 1.124-.644.618-1.249 1.124-1.344 1.124-.095 0 .354-.506.999-1.124zm54.022-.803c.741-.707 1.426-1.285 1.52-1.285.096 0-.434.578-1.175 1.285-.742.707-1.426 1.285-1.521 1.285-.095 0 .434-.578 1.176-1.285zm17.068.08l-1.19-1.205 1.295 1.108c1.205 1.03 1.453 1.302 1.19 1.302-.059 0-.64-.542-1.295-1.205zm38.734.241c0-.442.078-.622.174-.402.096.221.096.583 0 .804-.096.22-.174.04-.174-.402zm-230.268-1.151c.016-.374.098-.45.208-.194.1.232.088.509-.027.616-.115.106-.196-.083-.181-.422zm33.483-.321c.017-.375.098-.45.209-.194.1.231.087.509-.028.615-.114.107-.196-.083-.181-.421zm-78.358-.643c.017-.374.098-.45.209-.194.1.232.087.509-.028.616-.114.107-.196-.083-.181-.422zm259.582 0c.017-.374.098-.45.21-.194.1.232.086.509-.028.616-.115.107-.196-.083-.181-.422zm15.88-.321c.016-.374.097-.45.208-.194.1.232.087.509-.027.616-.115.106-.197-.083-.182-.422zm-139.112-.643c.016-.374.098-.45.208-.194.1.232.088.51-.027.616-.115.107-.196-.083-.181-.422zm19.303.066c0-.066.272-.32.604-.562.548-.4.56-.388.13.122-.45.535-.734.705-.734.44zm16.505-.098c.249-.093.546-.081.661.026.115.106-.089.182-.453.168-.402-.015-.484-.091-.208-.194zm4.832 0c.25-.093.547-.081.662.026.115.106-.09.182-.453.168-.402-.015-.484-.091-.209-.194zm47.96.007c.237-.089.626-.089.863 0 .237.09.043.162-.431.162-.475 0-.67-.073-.432-.162zm4.854-.007c.25-.093.547-.081.662.026.115.106-.09.182-.453.168-.402-.015-.484-.091-.209-.194zm30.124-.931c.017-.375.098-.45.208-.195.1.232.087.51-.027.616-.114.107-.196-.083-.181-.421zm-101.858-1.58c.644-.618 1.248-1.124 1.343-1.124.095 0-.354.506-.998 1.124-.644.618-1.249 1.124-1.344 1.124-.095 0 .354-.506.999-1.124zm32.262-.883l-1.713-1.687 1.812 1.594c1.684 1.482 1.97 1.78 1.713 1.78-.055 0-.87-.76-1.812-1.687zm69.94.856c.018-.374.099-.45.21-.194.1.232.086.51-.028.616-.114.107-.196-.083-.18-.422zm-44.556-.897c0-.067.272-.32.604-.563.548-.4.56-.388.13.122-.45.535-.734.705-.734.44zm-78.33-.709c.016-.374.098-.45.208-.194.1.232.087.509-.027.616-.115.106-.197-.083-.182-.422zm104.866-.375c-.43-.51-.417-.52.13-.121.575.42.758.683.474.683-.072 0-.344-.253-.604-.562zm67.355 0c0-.132 2.291-.203 5.092-.158 9.422.154 10.318.27 2.59.335-4.225.035-7.682-.044-7.682-.177zm14.871-1.552c.016-.375.098-.45.209-.195.1.232.088.51-.027.616-.115.107-.197-.083-.182-.421zm-186.057-2.25c.017-.373.098-.45.209-.193.1.232.087.509-.028.615-.114.107-.196-.083-.181-.421zm96.216.29c.25-.093.547-.081.662.025.114.107-.09.183-.453.169-.403-.015-.484-.092-.21-.194zm-64.205-.321c.249-.093.547-.082.661.025.115.107-.089.183-.453.169-.402-.016-.484-.092-.208-.194zm9.32 0c.249-.093.547-.082.661.025.115.107-.089.183-.453.169-.402-.016-.484-.092-.208-.194zm45.565 0c.249-.093.547-.082.661.025.115.107-.089.183-.453.169-.402-.016-.484-.092-.208-.194zm7.594 0c.25-.093.547-.082.662.025.114.107-.09.183-.453.169-.403-.016-.484-.092-.209-.194zm-58.695-.338c.812-.068 2.055-.067 2.762.002.707.07.042.125-1.476.124-1.52-.001-2.098-.058-1.286-.126zm54.192.003c.62-.071 1.553-.07 2.071.003.519.074.011.132-1.128.13-1.139-.002-1.563-.062-.943-.133zm53.067-2.337c.741-.707 1.426-1.285 1.52-1.285.096 0-.433.578-1.175 1.285-.741.707-1.426 1.285-1.52 1.285-.096 0 .433-.578 1.175-1.285zm24.13-.723l-.657-.723.776.612c.428.337.777.662.777.723 0 .257-.278.067-.896-.612zm-230.699-.428c.017-.374.099-.45.209-.194.1.232.087.509-.028.615-.114.107-.196-.083-.18-.421zm64.55-.321c.017-.375.099-.45.21-.195.099.232.087.51-.028.616-.115.107-.196-.083-.181-.421zm-32.475-2.685c0-.167.154-.391.342-.499.195-.112.253.016.135.302-.23.557-.477.659-.477.197zm183.577-.239c.249-.093.547-.081.661.026.115.106-.089.182-.453.168-.402-.015-.484-.091-.208-.194zm-237.08-.223c0-.067.27-.32.603-.562.548-.4.56-.388.13.121-.45.535-.734.706-.734.441zm240.337-.1a3.07 3.07 0 0 1 1.208 0c.333.08.06.147-.604.147-.664 0-.936-.066-.604-.147zm-219.944-.608c.016-.375.098-.45.208-.195.1.232.088.51-.027.616-.115.107-.196-.083-.181-.421zm192.933.387c0-.067.272-.32.604-.562.548-.4.56-.389.13.121-.45.535-.734.705-.734.44zm-126.312-.709c.017-.374.099-.45.209-.194.1.232.087.51-.028.616-.114.107-.196-.083-.18-.422zm179.082-.375c-.43-.51-.417-.52.13-.12.576.419.758.683.474.683-.072 0-.343-.253-.604-.563zm-264.198-.722c.343-.354.702-.643.797-.643.095 0-.109.29-.452.643-.344.353-.703.642-.798.642-.094 0 .109-.289.453-.642zm214.362-1.285c.742-.707 1.426-1.285 1.521-1.285.095 0-.434.578-1.175 1.285-.742.706-1.426 1.285-1.521 1.285-.095 0 .434-.579 1.175-1.285zm47.107-.884l-1.887-1.847 1.985 1.756c1.844 1.631 2.143 1.938 1.887 1.938-.054 0-.947-.83-1.985-1.847zm-258.46-.887c.705-.687 1.338-1.184 1.407-1.105.068.08-.51.642-1.283 1.25l-1.407 1.103zm14.45.298c.017-.374.098-.45.209-.194.1.232.087.51-.028.616-.114.107-.196-.083-.181-.422zm68.693-.321c.016-.374.098-.45.208-.194.1.232.088.509-.027.616-.115.106-.196-.083-.181-.422zm130.8-.255c0-.067.271-.32.603-.562.548-.4.56-.389.13.12-.45.536-.734.706-.734.442zm-258.548-5.783c0-.066.272-.32.604-.562.548-.4.56-.388.13.121-.45.535-.734.706-.734.441zm274.361-.74c.25-.093.547-.082.662.025.115.107-.09.183-.453.169-.402-.016-.484-.092-.209-.194zm11.737 0c.249-.093.547-.082.661.025.115.107-.089.183-.453.169-.402-.016-.484-.092-.208-.194zm-8.652-.329a5.28 5.28 0 0 1 1.554 0c.427.077.078.14-.777.14-.854 0-1.204-.063-.777-.14zm5.182 0c.43-.077 1.051-.074 1.381.005.33.08-.02.144-.78.14-.76-.004-1.03-.07-.6-.146zm-280.902-.837c0-.056.505-.526 1.122-1.045l1.122-.943-1.014 1.044c-.945.973-1.23 1.192-1.23.944zm260.432-5.704c-.372-.56.052-.678.525-.147.272.305.298.49.07.49-.202 0-.47-.154-.595-.343zM808.9 377.478c.644-.618 1.249-1.124 1.344-1.124.095 0-.355.506-.999 1.124-.644.618-1.248 1.124-1.343 1.124-.095 0 .354-.506.998-1.124zm250.748-1.205l-.658-.722.777.612c.427.336.776.661.776.722 0 .257-.277.068-.895-.612zm-248.331-.683c0-.067.271-.32.604-.562.547-.4.56-.389.13.121-.451.535-.734.705-.734.44zm246.076-1.084c-.43-.509-.417-.52.13-.12.575.419.758.683.474.683-.072 0-.344-.253-.604-.563zm-185.323.115c0-.07.241-.212.536-.317.307-.11.445-.056.324.126-.202.305-.86.451-.86.191zm-58.682-.637c0-.067.272-.32.604-.563.547-.4.56-.388.13.122-.45.535-.734.705-.734.44zm3.106-2.25c0-.066.272-.319.604-.561.548-.4.56-.389.13.121-.45.535-.734.705-.734.44zm95.208-9.414c.25-.092.547-.081.662.026.114.107-.09.182-.453.168-.403-.015-.484-.091-.209-.194zm102.867 0c.249-.092.546-.081.661.026.115.107-.089.182-.453.168-.402-.015-.484-.091-.208-.194zM913.428 362c.25-.094.547-.082.662.024.114.107-.09.183-.453.17-.403-.016-.484-.092-.209-.195zm99.415 0c.249-.094.547-.082.661.024.115.107-.089.183-.453.17-.402-.016-.484-.092-.208-.195zm-97.69-.322c.25-.093.548-.082.663.025.114.107-.09.183-.454.169-.402-.015-.483-.092-.208-.194zm95.964 0c.249-.093.547-.082.661.025.115.107-.089.183-.453.169-.402-.015-.484-.092-.208-.194zm-94.237-.321c.249-.093.547-.082.661.025.115.107-.089.183-.453.169-.402-.016-.484-.092-.208-.194zm92.51 0c.25-.093.548-.082.662.025.115.107-.089.183-.453.169-.402-.016-.484-.092-.208-.194zm-90.439-.322c.25-.092.547-.081.662.026.114.106-.09.182-.453.168-.403-.015-.484-.091-.209-.194zm88.369 0c.249-.092.546-.081.661.026.115.106-.089.182-.453.168-.402-.015-.484-.091-.208-.194zm-86.643-.32c.25-.094.547-.082.662.024.114.107-.09.183-.454.17-.402-.016-.483-.092-.208-.195zm84.571 0c.25-.094.547-.082.662.024.115.107-.089.183-.453.17-.402-.016-.484-.092-.209-.195zm-82.5-.322c.25-.093.547-.082.662.025.114.107-.09.183-.453.169-.403-.015-.484-.092-.209-.194zm80.43 0c.248-.093.546-.082.66.025.116.107-.088.183-.452.169-.402-.015-.484-.092-.209-.194zm-78.014-.321c.25-.093.547-.082.662.025.115.107-.09.183-.453.169-.402-.016-.484-.092-.209-.194zm75.597 0c.25-.093.547-.082.662.025.114.107-.09.183-.453.169-.403-.016-.484-.092-.21-.194zm-73.547-.315c.237-.09.626-.09.863 0s.043.162-.432.162c-.474 0-.668-.073-.431-.162zm71.109 0c.237-.09.626-.09.863 0s.043.162-.431.162c-.475 0-.67-.073-.432-.162zm-68.693-.321c.238-.09.626-.09.863 0 .238.089.043.162-.431.162-.475 0-.669-.073-.432-.162zm65.931 0c.238-.09.626-.09.863 0 .238.089.044.162-.431.162s-.669-.073-.432-.162zm-62.824-.321c.237-.09.626-.09.863 0 .237.089.043.162-.432.162-.474 0-.668-.073-.431-.162zm60.063 0c.237-.09.626-.09.863 0 .237.089.043.162-.432.162-.474 0-.668-.073-.431-.162zm-57.122-.332c.336-.081.802-.076 1.035.012.234.088-.04.155-.61.148-.57-.007-.761-.078-.425-.16zm53.497.001c.333-.08.876-.08 1.209 0 .332.081.06.147-.604.147-.665 0-.937-.066-.605-.147zm-50.052-.32a2.997 2.997 0 0 1 1.208 0c.332.08.06.146-.604.146-.664 0-.936-.066-.604-.147zm46.607-.002c.336-.081.802-.076 1.036.012.233.088-.041.155-.61.148-.57-.007-.762-.078-.426-.16zm-42.288-.326c.43-.076 1.05-.073 1.38.006.33.08-.02.144-.78.14-.76-.004-1.03-.07-.6-.146zm37.276 0a5.279 5.279 0 0 1 1.554 0c.427.078.077.14-.777.14s-1.204-.062-.777-.14zm-31.75-.326c.62-.072 1.552-.07 2.07.003.519.073.011.131-1.128.13-1.139-.002-1.563-.062-.943-.134zm25.537 0a11.795 11.795 0 0 1 2.244 0c.617.071.112.13-1.122.13-1.234 0-1.74-.059-1.122-.13zm-14.686-.327a63.44 63.44 0 0 1 4.833 0c1.385.06.343.11-2.315.111-2.658 0-3.79-.05-2.518-.11zm-77.803-12.189c.249-.093.547-.081.661.025.115.107-.089.183-.453.17-.402-.016-.484-.092-.208-.195zm100.795-.964c.25-.092.547-.081.662.026.114.106-.09.182-.453.168-.403-.015-.484-.091-.209-.194zm-93.892-.32c.25-.094.547-.082.662.024.115.107-.09.183-.453.17-.402-.016-.484-.092-.209-.195zm92.166 0c.25-.094.547-.082.662.024.114.107-.09.183-.453.17-.402-.016-.484-.092-.209-.195zm-90.44-.322c.25-.093.547-.082.662.025.115.107-.09.183-.453.169-.402-.015-.484-.092-.209-.194zm88.714 0c.25-.093.547-.082.662.025.114.107-.09.183-.453.169-.402-.015-.484-.092-.209-.194zm-86.642-.321c.249-.093.546-.082.661.025.115.107-.089.183-.453.169-.402-.016-.484-.092-.208-.194zm84.571 0c.25-.093.547-.082.662.025.114.107-.09.183-.453.169-.403-.016-.484-.092-.209-.194zm-82.5-.322c.249-.093.547-.081.661.026.115.106-.089.182-.453.168-.402-.015-.484-.091-.208-.194zm80.429 0c.25-.093.547-.081.662.026.114.106-.09.182-.454.168-.402-.015-.483-.091-.208-.194zm-78.358-.321c.249-.093.547-.081.661.025.115.107-.089.183-.453.17-.402-.016-.484-.092-.208-.195zm76.287 0c.249-.093.547-.081.661.025.115.107-.089.183-.453.17-.402-.016-.484-.092-.208-.195zm-74.238-.315c.238-.089.626-.089.863 0 .238.09.043.163-.431.163-.475 0-.669-.073-.432-.163zm71.8 0c.237-.089.626-.089.863 0 .237.09.043.163-.432.163-.474 0-.668-.073-.431-.163zm-69.016-.327c.249-.093.546-.082.661.025.115.107-.09.183-.453.169-.402-.016-.484-.092-.208-.194zm66.6.007c.237-.09.625-.09.862 0 .238.089.044.162-.431.162s-.669-.073-.431-.162zm-64.206-.322c.238-.089.626-.089.863 0 .238.09.043.162-.431.162-.475 0-.67-.073-.432-.162zm61.444 0c.237-.089.626-.089.863 0 .237.09.043.162-.432.162-.474 0-.668-.073-.431-.162zm-58.337-.321c.237-.09.626-.09.863 0s.043.162-.432.162c-.474 0-.668-.073-.431-.162zm55.575 0c.238-.09.626-.09.863 0 .238.09.044.162-.431.162s-.669-.073-.432-.162zm-52.29-.331c.337-.082.803-.076 1.036.012.234.088-.04.154-.61.148-.57-.007-.761-.079-.425-.16zm48.666 0a3.07 3.07 0 0 1 1.208 0c.332.082.06.148-.604.148-.664 0-.936-.066-.604-.147zm-44.875-.32a3.038 3.038 0 0 1 1.209 0c.332.08.06.147-.605.147-.664 0-.936-.067-.604-.147zm41.078 0a3.033 3.033 0 0 1 1.208 0c.332.08.06.147-.604.147-.664 0-.936-.067-.604-.147zm-36.24-.33c.524-.074 1.301-.073 1.726.003.424.077-.005.137-.954.135-.95-.002-1.297-.065-.772-.14zm31.235.003a5.279 5.279 0 0 1 1.553 0c.427.077.078.14-.777.14-.854 0-1.204-.063-.776-.14zm-24.164-.33a21.25 21.25 0 0 1 2.934 0c.807.068.147.124-1.467.124-1.613 0-2.273-.056-1.467-.123zm15.88 0a21.25 21.25 0 0 1 2.933 0c.807.068.147.124-1.467.124s-2.274-.056-1.467-.123z" id="path821" fill="#b25a5e"/><path d="M927.99 500.804c-60.12-1.987-110.963-21.884-132.362-51.8-8.728-12.2-11.718-26.384-8.315-39.443 5.824-22.353 28.395-42.083 62.951-55.031 34.816-13.045 79.36-17.524 120.012-12.068 14.441 1.938 25.186 4.279 38.316 8.347 21.032 6.516 39.023 15.622 52.297 26.47.93.761-.021.404-4.143-1.555-7.44-3.536-12.49-5.5-20.711-8.054-21.782-6.77-45.482-10.02-73.18-10.038-12.293-.008-18.498.293-29.142 1.41-24.868 2.612-48.74 9.03-66.259 17.813-7.12 3.57-10.576 5.744-10.556 6.64.034 1.525 13.382 54.036 13.606 53.526.128-.292 3.927-12.869 8.442-27.949l8.208-27.418 6.237-.087 6.238-.088.478 1.533c.263.844 4.041 13.418 8.397 27.942 4.355 14.525 8.014 26.307 8.13 26.183.116-.125 3.276-12.585 7.021-27.688 3.745-15.104 6.884-27.573 6.974-27.708.142-.215 13.598-.38 13.578-.167-.004.044-4.798 16.416-10.653 36.382l-10.646 36.302-6.07.087-6.07.088-.354-1.212c-5.25-17.994-16.795-55.924-16.967-55.746-.13.133-4.095 13.003-8.812 28.6l-8.577 28.357-6.034-.087-6.034-.087-8.902-31.454c-4.896-17.3-8.997-31.54-9.113-31.643-.256-.23-3.607 3.155-6.17 6.235-3.94 4.733-6.517 9.517-8.216 15.25-1.04 3.51-1.04 12.25 0 15.76 2.35 7.927 6.452 14.234 13.594 20.9 24.039 22.432 73.884 35.823 126.672 34.03 35.477-1.204 65.62-7.854 87.998-19.41 1.876-.969 2.074-1.022 1.208-.325-6.076 4.891-14.968 10.66-22.255 14.438-23.916 12.4-54.16 20.21-86.307 22.29-5.681.368-19.596.638-24.508.475zm28.707-45.432c-7.694-.98-13.66-4.991-16.946-11.394-2.354-4.588-2.616-5.923-2.587-13.172.022-5.533.13-6.782.773-8.995 2.016-6.93 6.431-12.336 12.146-14.87 4.265-1.89 7.386-2.437 12.729-2.232 6.607.255 10.189 1.653 14.127 5.516 4.593 4.507 6.807 10.315 7.506 19.698l.246 3.293h-37.37l.003.722c.006 1.733.791 5.036 1.578 6.644 1.333 2.72 2.974 4.352 5.578 5.545 2.084.955 2.66 1.068 5.946 1.17 3.086.095 3.94.007 5.633-.586 3.64-1.275 6.777-4.15 7.582-6.95l.403-1.405h4.934c2.88 0 4.934.126 4.934.304 0 1.233-1.984 5.714-3.445 7.785-3.038 4.305-7.105 7.07-12.153 8.265-3.059.724-8.634 1.042-11.617.662zm17.365-29.849c.292-.44-.694-4.573-1.49-6.248-.968-2.036-3.259-4.212-5.526-5.248-1.77-.809-2.294-.89-5.745-.89-3.377 0-4.006.093-5.695.839-2.464 1.088-4.727 2.994-6.114 5.149-1.165 1.809-2.357 5.465-2.036 6.245.159.384 2.278.457 13.296.457 7.855 0 13.189-.122 13.31-.304zm36.429 29.833c-2.758-.453-5.758-1.877-8.026-3.809l-1.985-1.69v4.561h-9.32V388.24h10.011v22.226l1.798-1.505c3.414-2.856 7.697-4.337 12.544-4.337 10.447 0 18.084 5.995 21.076 16.545.784 2.764.903 11.723.196 14.777-2.422 10.458-8.006 16.892-16.434 18.935-2.61.633-7.475.867-9.86.475zm7.684-8.543c3.536-1.033 6.672-4.808 8.095-9.742.777-2.698.863-11.787.137-14.457-1.198-4.403-3.265-7.107-6.54-8.554-2.841-1.255-7.654-1.451-10.556-.43-5.098 1.793-7.662 6.225-8.51 14.71-.399 3.983-.042 8.204.901 10.695 2.532 6.678 9.299 9.873 16.473 7.778zm56.457 7.901c-5.077-.693-10.81-2.83-14.9-5.555-10.976-7.312-16.25-21.595-13.475-36.504 2.482-13.342 11.77-23.284 24.599-26.332 18.433-4.38 36.201 4.308 39.536 19.332.302 1.362.55 2.557.55 2.656 0 .1-3.358.142-7.461.094l-7.46-.087-.7-1.766c-2.385-6.017-7.42-9.071-14.93-9.058-11.054.019-17.854 6.97-19.115 19.54-.623 6.212.288 11.673 2.726 16.342 2.363 4.525 5.876 7.448 10.67 8.879 4.426 1.32 11.323.839 15.35-1.073 4.148-1.97 7.78-7.44 7.798-11.741v-1.044h-15.88v-10.602h30.032v35.98h-4.81c-4.284 0-4.828-.06-4.982-.561-.095-.31-.427-1.791-.737-3.293-.887-4.303-.677-4.156-2.805-1.968-3.237 3.33-7.652 5.626-12.728 6.623-2.59.508-8.083.575-11.283.138zm47.7-34.51v-33.249h15.534v54.292h34.864v12.207h-50.398zm60.754 29.877v-3.373h-1.381c-1.243 0-1.38-.08-1.38-.803v-.803h7.939v.803c0 .723-.138.803-1.381.803h-1.38v6.746h-2.417zm6.558-.803v-4.176h3.36l.8 2.886c.44 1.587.86 2.83.935 2.76.074-.07.488-1.332.92-2.806l.784-2.68 1.778-.097 1.779-.097v8.386h-2.071v-3.266c0-1.796-.112-3.161-.25-3.033-.137.127-.642 1.561-1.123 3.185-.807 2.728-.945 2.962-1.802 3.054-.834.09-.97-.043-1.318-1.285a99.054 99.054 0 0 0-1.023-3.313l-.633-1.927-.033 3.293-.032 3.292h-2.071v-4.176z" id="path819" fill="#95191e"/></g></svg>