<svg xmlns="http://www.w3.org/2000/svg" id="svg26" version="1" viewBox="0 0 70 70"><defs id="defs6"><style id="style4">.cls-1{fill: #7e5fa6}</style><style id="style4-3">.cls-1{fill: #7e5fa6}</style><style id="style4-32">.cls-1{fill: #7e5fa6}</style></defs><g id="g4539" transform="matrix(.12862 0 0 .12234 -26 100)"><g id="g4505" transform="translate(1 -938)"><path id="path4513" d="M505 304l-5-20c-3-18-5-23-10-33-4-9-9-14-22-21-9-6-30-15-35-17-4 0-4-2-1-2l6-2h11l7-1-5-4c-9-7-16-17-21-33a156 156 0 0 0-6-15 73 73 0 0 0-5-12l-7-15c3 0 14 6 21 10a162 162 0 0 1 56 77c1 2 1 2 4 0 5-3 6-8 6-20 0-9 0-10-2-13-3-4-3-5 1-2 3 2 7 8 8 11l1 14c0 10 0 13-2 21-2 7-3 10-2 16 1 10 4 22 6 22l1-18 1-20c1-5 2-9 4-10 1-2 1-2 2 0l1 8c2 16 7 24 17 26l5 1-5 3-6 5-9 16a700 700 0 0 1-3 8l-3 8-7 13-2-1z" class="cls-1" style="fill:#7e5faf;fill-opacity:0.94117647"/><path id="path4511" d="M505 303l-2-5-1-6-1-3c0-5-4-22-8-34-2-5-7-11-11-16-8-7-26-17-42-23l-9-4c1-2 11-3 20-3l7 1-2-2-7-6a72 72 0 0 1-17-23l-7-22-12-25c-3-4-2-4 9 2a143 143 0 0 1 67 81c0 3 2 3 5 1 5-5 6-9 6-20-1-8-1-10-3-14l-2-3 3 2c4 3 5 5 7 12 3 6 2 23-1 34-2 10-2 21 2 33l3 5c1 1 1-1 1-14 0-20 3-37 6-34l2 8c3 17 7 23 16 26 4 1 5 2 3 3-5 2-10 7-13 14l-4 7-9 23c-3 5-5 7-6 5z"/><path id="path4507" d="M506 303c-3-7-4-12-6-25l-6-22a4592 4592 0 0 1-4-7c-6-11-21-22-47-32-12-5-12-6-4-7l13-1h7l-4-3-8-6a74 74 0 0 1-16-28l-3-6-1-5-1-2-1-3-1-5a1137 1137 0 0 1-10-21l6 3c17 8 40 30 54 51a95 95 0 0 1 12 24l2 5 1 5c2 1 6-2 9-6 2-4 2-5 2-15l-1-14-1-1 5 5c2 4 2 6 3 16 0 10 0 13-2 22-2 8-2 11-2 18 1 13 7 28 8 23l1-21c1-17 1-20 3-24 2-5 2-6 4 9 3 14 7 20 16 22 4 1 4 1 2 2-5 2-10 7-13 13l-3 7-3 7-3 9-7 14-1-1z" class="cls-1"/></g><circle id="Еліпс_1" cx="404" cy="-500" r="51" class="cls-1" data-name="Еліпс 1"/><circle id="Еліпс_1_копія_5" cx="497" cy="-472" r="40" class="cls-1" data-name="Еліпс 1 копія 5"/><circle id="Еліпс_1_копія_7" cx="561" cy="-620" r="43" class="cls-1" data-name="Еліпс 1 копія 7"/><circle id="Еліпс_1_копія_19" cx="561" cy="-620" r="43" class="cls-1" data-name="Еліпс 1 копія 19"/><circle id="Еліпс_1_копія_3" cx="370" cy="-601" r="51" class="cls-1" data-name="Еліпс 1 копія 3"/><circle id="Еліпс_1_копія_8" cx="515" cy="-389" r="39" class="cls-1" data-name="Еліпс 1 копія 8"/><ellipse id="Еліпс_1_копія_10" cx="648" cy="-662" class="cls-1" data-name="Еліпс 1 копія 10" rx="45" ry="45"/><ellipse id="Еліпс_1_копія_9" cx="447" cy="-354" class="cls-1" data-name="Еліпс 1 копія 9" rx="32" ry="33"/><ellipse id="Еліпс_1_копія_16" cx="571" cy="-451" class="cls-1" data-name="Еліпс 1 копія 16" rx="32" ry="33"/><circle id="Еліпс_1_копія_14" cx="624" cy="-505" r="28" class="cls-1" data-name="Еліпс 1 копія 14"/><ellipse id="Еліпс_1_копія_15" cx="509" cy="-323" class="cls-1" data-name="Еліпс 1 копія 15" rx="25" ry="25"/><ellipse id="Еліпс_1_копія_17" cx="468" cy="-298" class="cls-1" data-name="Еліпс 1 копія 17" rx="21" ry="21"/><ellipse id="Еліпс_1_копія_18" cx="505" cy="-271" class="cls-1" data-name="Еліпс 1 копія 18" rx="19" ry="20"/><circle id="Еліпс_1_копія_12" cx="638" cy="-576" r="38" class="cls-1" data-name="Еліпс 1 копія 12"/><circle id="Еліпс_1_копія_13" cx="447" cy="-419" r="27" class="cls-1" data-name="Еліпс 1 копія 13"/><circle id="Еліпс_1_копія_11" cx="561" cy="-530" r="39" class="cls-1" data-name="Еліпс 1 копія 11"/><circle id="Еліпс_1_копія" cx="474" cy="-576" r="51" class="cls-1" data-name="Еліпс 1 копія"/></g></svg>